<svg id="Capa_1" data-name="Capa 1" xmlns="http://www.w3.org/2000/svg" viewBox="0 0 1935.41 1879.58"><defs><style>.cls-1{fill:#e293b7;}.cls-2{fill:#fdcd79;}.cls-3{fill:#f5a46c;}.cls-4{fill:#f18663;}.cls-5{fill:#fff482;}.cls-6{fill:#827ea9;}.cls-7{fill:#6d6191;}.cls-8{fill:#716c9b;}.cls-9{fill:#a49acb;}.cls-10{fill:#475487;}.cls-11{fill:#57559a;}.cls-12{fill:#231841;}.cls-13{fill:#2d2455;}.cls-14{fill:#120223;}.cls-15{fill:#b2e0f9;}.cls-16{fill:#cbe9fc;}.cls-17{fill:#89d2f6;}.cls-18{fill:#79c1ec;}.cls-19{fill:#d2ecfc;}.cls-20{fill:#5671b6;}.cls-21{fill:#499ed7;}.cls-22{fill:#565293;}.cls-23{fill:#5281b9;}.cls-24{fill:#462101;}.cls-25{fill:#f4a69a;}.cls-26{fill:#f7b5ab;}.cls-27{fill:#e6817a;}.cls-28{fill:#3c3c77;}.cls-29{fill:#65bfae;}.cls-30{fill:#fadd90;}.cls-31{fill:#f3b482;}.cls-32{fill:#fff;}</style></defs><polygon class="cls-1" points="1901.33 1143.6 1797.05 680.31 1797.05 1160.61 1901.33 1143.6"/><path class="cls-1" d="M307.6,716.83h801.95A15.4,15.4,0,0,1,1115,710l6.42,6.87h67.34l-40.61-73c-91.39,8.35-212.28,14.44-303.88,9.56-37-2-81.09-1-112.29-24.36-37.42-28.08-41.57-106-32.31-174.11L489.74,495.72l2.61,6.89,2.73-1a7.61,7.61,0,0,1,5.4,14.22l-2.74,1h0l2.25,5.92,3.45-1.31a7.6,7.6,0,1,1,5.39,14.22L505.38,537l6,15.71-31.6,12,.52,1.36A25.11,25.11,0,0,1,465.7,598.4l-9.63,3.65a25.09,25.09,0,0,1-32.36-14.57l-.52-1.36L393,597.56l-6-15.72-3.45,1.31a7.6,7.6,0,0,1-5.39-14.21l3.45-1.31-2.24-5.93-4.17,1.58a7.6,7.6,0,1,1-5.4-14.21l4.17-1.58L369.29,535l-.71-.14a126.33,126.33,0,0,1-14.42-3.39l-1.59-.5c-1.89-.59-3.76-1.23-5.62-1.9l-1.61-.59c-2.57-1-5.11-2-7.61-3.18l-35.46,6.9-11.33,14.17A5.92,5.92,0,0,1,281.7,539l2.64-3.3L164.57,558.94l68.56,1117.27,20.12-3.29V769.53C253.25,740.42,277.58,716.83,307.6,716.83Z" transform="translate(-114.87 -241.74)"/><path class="cls-1" d="M1245.45,616.45l-34,100.38h54.9c22.8-18.7,40.46-25,40.46-25l153-53.64V562.41c-35-11.54-46.59-56.31-49.94-87.21-2.89-26.66-4.63-52.48-3.39-75.43a2.17,2.17,0,0,1,0-4c.1-.05.2-.08.3-.12a191.43,191.43,0,0,1,2.38-19.74.81.81,0,0,1,0,.11c-1.55-30.45,12.88-51.29,30.37-65l-198.41,38.58C1278.74,402.79,1272,561.79,1245.45,616.45Z" transform="translate(-114.87 -241.74)"/><path class="cls-1" d="M1555,291.55c11.69-.29,23.28,1.17,34.17,5.92,15.15,6.62,28.62,18.27,42.08,27.72,14.36,10.08,28.56,20.17,37,36.05,8.89,16.85,9.83,36.43,16.1,54.2,11.27,32,54.2,48.59,56.74,82.17,1.32,17.61-5.84,35-5.09,52.79,1.15,27.81,29.78,60,13.75,87.06-7.56,12.74-22.27,22.59-36,27.19q-9.32,3.11-18.6,5.77c38.42,8.83,66.43,25.4,86.59,46.41h75.93a56.94,56.94,0,0,1,8.32.68L1760.35,248.7l-213.29,41.46c1.79.29,3.59.57,5.31.88Z" transform="translate(-114.87 -241.74)"/><path class="cls-2" d="M274.85,361c.4-.93.82-1.86,1.25-2.78C275.67,359.12,275.25,360.05,274.85,361Z" transform="translate(-114.87 -241.74)"/><path class="cls-2" d="M272.61,366.46q.54-1.41,1.11-2.82Q273.15,365,272.61,366.46Z" transform="translate(-114.87 -241.74)"/><path class="cls-2" d="M264.91,422.47c.09.95.16,1.91.27,2.86,0-.06,0-.11,0-.17C265.06,424.26,265,423.37,264.91,422.47Z" transform="translate(-114.87 -241.74)"/><path class="cls-2" d="M264.57,418.36l.06.92c0-.14,0-.29,0-.43S264.58,418.52,264.57,418.36Z" transform="translate(-114.87 -241.74)"/><path class="cls-2" d="M275.87,463.57c.2.43.43.83.63,1.26h0C276.3,464.4,276.07,464,275.87,463.57Z" transform="translate(-114.87 -241.74)"/><path class="cls-2" d="M510.17,374.7a125.09,125.09,0,0,1,5.36,32.92A125.09,125.09,0,0,0,510.17,374.7Z" transform="translate(-114.87 -241.74)"/><path class="cls-2" d="M264.5,416.37c0,.22,0,.45,0,.67v-.33C264.51,416.59,264.5,416.48,264.5,416.37Z" transform="translate(-114.87 -241.74)"/><path class="cls-2" d="M497.4,346.1c1.81,3,3.52,6.06,5.09,9.24C500.92,352.16,499.21,349.09,497.4,346.1Z" transform="translate(-114.87 -241.74)"/><path class="cls-2" d="M502.91,356.25c1.62,3.34,3.13,6.77,4.47,10.3C506,363,504.53,359.59,502.91,356.25Z" transform="translate(-114.87 -241.74)"/><path class="cls-2" d="M267.19,437.51c-.19-.89-.35-1.78-.52-2.68C266.84,435.73,267,436.62,267.19,437.51Z" transform="translate(-114.87 -241.74)"/><path class="cls-2" d="M268.91,377.74c.27-1,.56-1.94.85-2.9C269.47,375.8,269.18,376.76,268.91,377.74Z" transform="translate(-114.87 -241.74)"/><path class="cls-2" d="M264.56,404.42c0,.92-.1,1.85-.13,2.77,0-.87.08-1.74.13-2.62Z" transform="translate(-114.87 -241.74)"/><path class="cls-2" d="M267.46,383.51c.22-1,.47-2,.71-2.94C267.93,381.54,267.68,382.52,267.46,383.51Z" transform="translate(-114.87 -241.74)"/><path class="cls-2" d="M283.07,345.23c.54-.88,1.08-1.75,1.64-2.61C284.15,343.48,283.61,344.35,283.07,345.23Z" transform="translate(-114.87 -241.74)"/><path class="cls-2" d="M321.54,320.76c-7.58,17-9,36.37-6.37,54.65,5,35.45,27.25,73,63.94,82.32a69.78,69.78,0,0,0,28.27,1c12.56-2,25.25-6,37.28-10.12,25.29-8.59,51-23.1,57.81-50.88,5.27-21.45-4.26-43.71-14.33-62.21-1.54-2.83-3.15-5.61-4.8-8.37a125.58,125.58,0,0,0-137.9-33.44c-2,.75-4,1.56-5.91,2.41A72.12,72.12,0,0,0,321.54,320.76Zm26.78,1.87c3.78-17.6,33.42-26.17,66.21-19.13s56.3,27,52.52,44.62-33.42,26.16-66.2,19.12S344.54,340.23,348.32,322.63Z" transform="translate(-114.87 -241.74)"/><path class="cls-2" d="M279.06,469.93h0l1,2h0C279.74,471.23,279.4,470.58,279.06,469.93Z" transform="translate(-114.87 -241.74)"/><path class="cls-2" d="M270.19,448.78c.09.27.16.55.25.83-.08-.26-.15-.52-.23-.77C270.2,448.82,270.2,448.8,270.19,448.78Z" transform="translate(-114.87 -241.74)"/><path class="cls-2" d="M288.16,484.62h0c.41.57.84,1.13,1.26,1.7v0Z" transform="translate(-114.87 -241.74)"/><path class="cls-2" d="M264.38,411.41c0,.61,0,1.21,0,1.81,0-.45,0-.9,0-1.35C264.39,411.72,264.38,411.56,264.38,411.41Z" transform="translate(-114.87 -241.74)"/><path class="cls-2" d="M270.63,372.05c.31-1,.64-1.91,1-2.86C271.27,370.14,270.94,371.09,270.63,372.05Z" transform="translate(-114.87 -241.74)"/><path class="cls-2" d="M268.23,441.83c.14.58.27,1.16.43,1.75-.15-.55-.27-1.1-.41-1.65A.3.3,0,0,0,268.23,441.83Z" transform="translate(-114.87 -241.74)"/><path class="cls-2" d="M286.31,340.24c.57-.85,1.15-1.69,1.75-2.52C287.46,338.55,286.88,339.39,286.31,340.24Z" transform="translate(-114.87 -241.74)"/><path class="cls-2" d="M306,317.74c.76-.69,1.52-1.38,2.3-2.05C307.49,316.36,306.73,317.05,306,317.74Z" transform="translate(-114.87 -241.74)"/><path class="cls-2" d="M320.4,306.55c.87-.58,1.72-1.16,2.6-1.71C322.12,305.39,321.27,306,320.4,306.55Z" transform="translate(-114.87 -241.74)"/><path class="cls-2" d="M315.37,310.07c.84-.62,1.66-1.24,2.52-1.84C317,308.83,316.21,309.45,315.37,310.07Z" transform="translate(-114.87 -241.74)"/><path class="cls-2" d="M310.56,313.8c.8-.65,1.6-1.32,2.42-1.95C312.16,312.48,311.36,313.15,310.56,313.8Z" transform="translate(-114.87 -241.74)"/><path class="cls-2" d="M289.78,335.4c.62-.82,1.23-1.64,1.87-2.44C291,333.76,290.4,334.58,289.78,335.4Z" transform="translate(-114.87 -241.74)"/><path class="cls-2" d="M330.36,521.58h0l1.51.82h0Z" transform="translate(-114.87 -241.74)"/><path class="cls-2" d="M323.73,517.76h0l1.55.93h0Z" transform="translate(-114.87 -241.74)"/><path class="cls-2" d="M293.48,330.73c.66-.79,1.32-1.59,2-2.37C294.8,329.14,294.14,329.94,293.48,330.73Z" transform="translate(-114.87 -241.74)"/><path class="cls-2" d="M301.57,321.89c.74-.73,1.47-1.46,2.22-2.17C303,320.43,302.31,321.16,301.57,321.89Z" transform="translate(-114.87 -241.74)"/><path class="cls-2" d="M310.23,508.09l0,0c.49.4,1,.81,1.46,1.2h0C311.17,508.87,310.7,508.48,310.23,508.09Z" transform="translate(-114.87 -241.74)"/><path class="cls-2" d="M304.44,503.05l0,0c.48.45,1,.88,1.47,1.33l0,0Z" transform="translate(-114.87 -241.74)"/><path class="cls-2" d="M297.41,326.22c.7-.76,1.39-1.52,2.11-2.27C298.8,324.7,298.11,325.46,297.41,326.22Z" transform="translate(-114.87 -241.74)"/><path class="cls-2" d="M325.69,303.23c.87-.52,1.73-1.06,2.62-1.56C327.42,302.17,326.56,302.71,325.69,303.23Z" transform="translate(-114.87 -241.74)"/><path class="cls-2" d="M483.67,327.47q3.33,3.75,6.4,7.79Q487,331.23,483.67,327.47Z" transform="translate(-114.87 -241.74)"/><path class="cls-2" d="M337.15,297.19c.79-.36,1.57-.75,2.37-1.11C338.72,296.43,337.94,296.83,337.15,297.19Z" transform="translate(-114.87 -241.74)"/><path class="cls-2" d="M266.28,389.34c.18-1,.38-2,.58-3C266.66,387.36,266.46,388.35,266.28,389.34Z" transform="translate(-114.87 -241.74)"/><path class="cls-2" d="M331.24,300.11c.86-.45,1.7-.92,2.58-1.36C332.94,299.19,332.1,299.66,331.24,300.11Z" transform="translate(-114.87 -241.74)"/><path class="cls-2" d="M264.77,401.19c.07-1,.18-2,.28-3C265,399.21,264.84,400.2,264.77,401.19Z" transform="translate(-114.87 -241.74)"/><path class="cls-2" d="M277.34,355.6c.45-.91.91-1.82,1.38-2.72C278.25,353.78,277.79,354.69,277.34,355.6Z" transform="translate(-114.87 -241.74)"/><path class="cls-2" d="M265.38,395.24c.13-1,.28-2,.43-3C265.66,393.26,265.51,394.25,265.38,395.24Z" transform="translate(-114.87 -241.74)"/><path class="cls-2" d="M491,336.46c2,2.72,3.93,5.53,5.73,8.45C494.89,342,493,339.18,491,336.46Z" transform="translate(-114.87 -241.74)"/><path class="cls-2" d="M292.9,490.77v0c.43.53.86,1.07,1.3,1.59h0C293.75,491.81,293.33,491.28,292.9,490.77Z" transform="translate(-114.87 -241.74)"/><path class="cls-2" d="M280.09,350.34c.49-.89,1-1.78,1.5-2.66C281.08,348.56,280.58,349.45,280.09,350.34Z" transform="translate(-114.87 -241.74)"/><path class="cls-2" d="M266,431.43c-.15-.93-.27-1.87-.4-2.8C265.76,429.56,265.88,430.5,266,431.43Z" transform="translate(-114.87 -241.74)"/><path class="cls-3" d="M265.22,425.73c.11,1,.27,1.93.41,2.9s.25,1.87.4,2.8c.06.39.14.77.21,1.16C265.84,430.31,265.49,428,265.22,425.73Z" transform="translate(-114.87 -241.74)"/><path class="cls-3" d="M266.64,434.68l0,.15c.17.9.33,1.79.52,2.68.14.67.32,1.33.47,2Q267.11,437.1,266.64,434.68Z" transform="translate(-114.87 -241.74)"/><path class="cls-3" d="M264.61,418.85c0,.14,0,.29,0,.43.07,1.06.18,2.13.28,3.19.08.9.15,1.79.25,2.69Q264.8,422,264.61,418.85Z" transform="translate(-114.87 -241.74)"/><path class="cls-3" d="M270.63,420.57c5.43,15.95,13.86,30.95,23.29,44.86a138.63,138.63,0,0,0,33.25,34.14c12.33,9,26.76,16.24,41.94,18.62,15,2.36,30.37-.46,44.84-4.45a409,409,0,0,0,44-15c12.46-5,24.53-11.23,35-19.66,1.87-1.51,3.65-3.08,5.37-4.72a125,125,0,0,0,11.78-99.63q-1.25-4.08-2.79-8.15c-1.34-3.53-2.85-7-4.47-10.3-.14-.3-.27-.61-.42-.91-1.57-3.18-3.28-6.25-5.09-9.24-.24-.4-.47-.8-.71-1.19-1.8-2.92-3.72-5.73-5.73-8.45l-.89-1.2q-3.06-4-6.4-7.79c-.15-.15-.27-.33-.41-.49l.08.13c1.65,2.76,3.26,5.54,4.8,8.37,10.07,18.5,19.6,40.76,14.33,62.21C495.65,425.47,470,440,444.66,448.57c-12,4.08-24.72,8.08-37.28,10.12a69.78,69.78,0,0,1-28.27-1c-36.69-9.3-58.9-46.87-63.94-82.32-2.61-18.28-1.21-37.65,6.37-54.65a72.12,72.12,0,0,1,18-24.68h0c-.8.36-1.58.75-2.37,1.11-1.12.52-2.24,1-3.33,1.56-.88.44-1.72.91-2.58,1.36s-2,1-2.93,1.56-1.75,1-2.62,1.56-1.81,1-2.69,1.61-1.73,1.13-2.6,1.71-1.69,1.1-2.51,1.68-1.68,1.22-2.52,1.84-1.61,1.17-2.39,1.78-1.62,1.3-2.42,1.95-1.54,1.24-2.29,1.89-1.54,1.36-2.3,2.05-1.47,1.31-2.18,2-1.48,1.44-2.22,2.17-1.38,1.36-2.05,2.06-1.41,1.51-2.11,2.27-1.3,1.42-1.93,2.14-1.34,1.58-2,2.37-1.23,1.47-1.83,2.23-1.25,1.62-1.87,2.44-1.16,1.54-1.72,2.32-1.18,1.67-1.75,2.52-1.08,1.58-1.6,2.38-1.1,1.73-1.64,2.61-1,1.63-1.48,2.45-1,1.77-1.5,2.66-.93,1.69-1.37,2.54-.93,1.81-1.38,2.72-.84,1.73-1.24,2.6-.85,1.85-1.25,2.78-.76,1.77-1.13,2.66-.75,1.88-1.11,2.82-.68,1.82-1,2.73-.67,1.9-1,2.86-.59,1.85-.87,2.79-.58,1.92-.85,2.9-.5,1.88-.74,2.83-.49,1.95-.71,2.94-.41,1.91-.6,2.87-.4,2-.58,3-.32,2-.47,2.93-.3,2-.43,3c0,.2-.06.4-.08.6A103,103,0,0,0,270.63,420.57Z" transform="translate(-114.87 -241.74)"/><path class="cls-3" d="M493.63,481.89c1.49-2.17,2.9-4.39,4.25-6.65C496.53,477.5,495.12,479.72,493.63,481.89Z" transform="translate(-114.87 -241.74)"/><path class="cls-3" d="M483.48,494.78l5.16-2,3.71,9.79h0l-2.61-6.89-2.14-5.62c1.8-2.22,3.5-4.51,5.13-6.83A126.93,126.93,0,0,1,483.48,494.78Z" transform="translate(-114.87 -241.74)"/><path class="cls-3" d="M268.25,441.93c.14.55.26,1.1.41,1.65.28,1,.6,2.06.91,3.1C269.1,445.1,268.66,443.51,268.25,441.93Z" transform="translate(-114.87 -241.74)"/><path class="cls-3" d="M265.28,396c-.09.75-.15,1.51-.23,2.27-.1,1-.21,2-.28,3l-.12,1.52C264.8,400.45,265,398.19,265.28,396Z" transform="translate(-114.87 -241.74)"/><path class="cls-3" d="M264.56,404.57c-.05.88-.1,1.75-.13,2.62s0,1.59,0,2.39C264.41,407.9,264.47,406.24,264.56,404.57Z" transform="translate(-114.87 -241.74)"/><path class="cls-3" d="M270.44,449.61c.65,2,1.35,4,2.11,6-.86-2.25-1.62-4.51-2.34-6.78C270.29,449.09,270.36,449.35,270.44,449.61Z" transform="translate(-114.87 -241.74)"/><path class="cls-3" d="M304.44,503.05l1.42,1.28Z" transform="translate(-114.87 -241.74)"/><path class="cls-3" d="M323.73,517.76l1.51.91Z" transform="translate(-114.87 -241.74)"/><path class="cls-3" d="M310.23,508.09c.47.39.94.78,1.42,1.16C311.17,508.87,310.7,508.48,310.23,508.09Z" transform="translate(-114.87 -241.74)"/><path class="cls-3" d="M330.36,521.58l1.49.8Z" transform="translate(-114.87 -241.74)"/><path class="cls-3" d="M279.06,469.93c.34.65.68,1.3,1,1.94C279.74,471.23,279.4,470.58,279.06,469.93Z" transform="translate(-114.87 -241.74)"/><path class="cls-3" d="M275.55,462.79c.11.25.21.52.32.78.2.43.43.83.63,1.26C276.18,464.15,275.86,463.47,275.55,462.79Z" transform="translate(-114.87 -241.74)"/><path class="cls-3" d="M292.9,490.77c.43.51.85,1,1.28,1.55C293.75,491.81,293.33,491.28,292.9,490.77Z" transform="translate(-114.87 -241.74)"/><path class="cls-3" d="M288.16,484.62l1.24,1.67Z" transform="translate(-114.87 -241.74)"/><path class="cls-3" d="M264.39,411.87c0,.45,0,.9,0,1.35,0,1,.06,2.1.11,3.15,0,.11,0,.22,0,.34C264.44,415.09,264.4,413.48,264.39,411.87Z" transform="translate(-114.87 -241.74)"/><path class="cls-3" d="M345.34,528.45,347,529Z" transform="translate(-114.87 -241.74)"/><rect class="cls-3" x="382.87" y="275.09"/><path class="cls-3" d="M374,547.49l-3.71-9.79,5-1.9q-3.39-.39-6.74-1l.71.14L374,547.49Z" transform="translate(-114.87 -241.74)"/><path class="cls-3" d="M352.57,530.94l1.59.5Z" transform="translate(-114.87 -241.74)"/><path class="cls-4" d="M347,529c1.86.67,3.73,1.31,5.62,1.9l1.59.5a126.33,126.33,0,0,0,14.42,3.39q3.35.58,6.74,1L426,516.59h0l57.51-21.81a126.93,126.93,0,0,0,9.25-11.51c.31-.45.6-.92.9-1.38,1.49-2.17,2.9-4.39,4.25-6.65.2-.35.45-.68.65-1l-.14.12c-1.72,1.64-3.5,3.21-5.37,4.72-10.52,8.43-22.59,14.63-35,19.66a409,409,0,0,1-44,15c-14.47,4-29.83,6.81-44.84,4.45-15.18-2.38-29.61-9.63-41.94-18.62a138.63,138.63,0,0,1-33.25-34.14c-9.43-13.91-17.86-28.91-23.29-44.86a103,103,0,0,1-5.33-24.73v0c0,.05,0,.09,0,.14-.27,2.24-.48,4.5-.63,6.76,0,.57,0,1.14-.09,1.71v.15c-.09,1.67-.15,3.33-.17,5,0,.61,0,1.22,0,1.83,0,.15,0,.31,0,.46,0,1.61.05,3.22.13,4.84V417c0,.44,0,.88.05,1.32,0,.16,0,.32,0,.49q.19,3.15.55,6.31c0,.06,0,.11,0,.17s0,.27,0,.4c.27,2.29.62,4.58,1,6.86.12.7.27,1.39.4,2.09q.47,2.42,1,4.83c.18.77.37,1.55.57,2.32a.3.3,0,0,1,0,.1c.41,1.58.85,3.17,1.32,4.75.21.7.4,1.4.62,2.1,0,0,0,0,0,.06.72,2.27,1.48,4.53,2.34,6.78.93,2.44,1.94,4.82,3,7.17.31.68.63,1.36.95,2h0q1.23,2.58,2.55,5.09h0c.34.65.68,1.3,1,1.94h0a125.68,125.68,0,0,0,8.06,12.73h0l1.24,1.67v0q1.69,2.26,3.48,4.43v0c.43.51.85,1,1.28,1.55h0A124.77,124.77,0,0,0,304.42,503l0,0,1.42,1.28,0,0q2.12,1.9,4.31,3.7l0,0c.47.39.94.78,1.42,1.16h0a127,127,0,0,0,12,8.49h0l1.51.91h0c1.67,1,3.37,2,5.08,2.89h0l1.49.8h0q2.91,1.51,5.88,2.88c2.5,1.15,5,2.2,7.61,3.18Z" transform="translate(-114.87 -241.74)"/><path class="cls-5" d="M400.85,367.24c32.78,7,62.42-1.52,66.2-19.12s-19.74-37.58-52.52-44.62S352.1,305,348.32,322.63,368.06,360.2,400.85,367.24Z" transform="translate(-114.87 -241.74)"/><polygon class="cls-6" points="359.32 307.06 327.84 319 333.8 334.71 364.87 322.93 364.87 322.93 396.47 310.94 390.51 295.23 359.32 307.06 359.32 307.06"/><polygon class="cls-6" points="351.68 286.92 351.68 286.92 320.2 298.86 322.45 304.78 353.92 292.85 353.92 292.84 385.12 281.01 382.87 275.09 382.87 275.09 351.68 286.92"/><polygon class="cls-6" points="377.48 260.87 373.76 251.09 368.61 253.04 311.1 274.86 314.81 284.64 377.48 260.87"/><polygon class="cls-7" points="308.31 344.38 333.8 334.71 327.84 319 272.19 340.11 278.15 355.82 308.31 344.38 308.31 344.38"/><rect class="cls-7" x="378.62" y="550.94" width="59.52" height="6.33" transform="translate(-284.83 -60.91) rotate(-20.77)"/><polygon class="cls-7" points="259.16 305.75 314.81 284.64 311.1 274.86 311.1 274.85 260.44 294.07 255.45 295.96 259.16 305.75"/><path class="cls-8" d="M429.68,526.38,374,547.49h0l-4.17,1.58a7.6,7.6,0,1,0,5.4,14.21l4.17-1.58,55.65-21.1,31.47-11.94-5.39-14.22,33.92-12.87-2.73,1h0Z" transform="translate(-114.87 -241.74)"/><path class="cls-8" d="M474.19,548.8l-5.39-14.22-31.48,11.94-55.65,21.11-3.45,1.31a7.6,7.6,0,0,0,5.39,14.21l3.45-1.31,55.66-21.11Z" transform="translate(-114.87 -241.74)"/><path class="cls-9" d="M461.16,514.44l5.39,14.22h0l31.19-11.83h0l2.74-1a7.61,7.61,0,0,0-5.4-14.22Z" transform="translate(-114.87 -241.74)"/><path class="cls-9" d="M468.8,534.58l5.39,14.22h0L505.38,537l3.45-1.31a7.6,7.6,0,1,0-5.39-14.22L500,522.75,468.8,534.58Z" transform="translate(-114.87 -241.74)"/><path class="cls-10" d="M448.68,576.45l-25.49,9.66h0l.52,1.36a25.09,25.09,0,0,0,32.36,14.57l9.63-3.65A25.11,25.11,0,0,0,480.26,566l-.52-1.36h0Z" transform="translate(-114.87 -241.74)"/><path class="cls-7" d="M329.23,250.94a5.91,5.91,0,0,0-3.44,7.62l6.77,17.84a5.91,5.91,0,1,0,11.05-4.19l-6.76-17.84A5.91,5.91,0,0,0,329.23,250.94Z" transform="translate(-114.87 -241.74)"/><path class="cls-7" d="M551.92,351.16a5.91,5.91,0,0,0-7.63-3.43l-17.83,6.76a5.91,5.91,0,1,0,4.19,11.06l17.84-6.77A5.91,5.91,0,0,0,551.92,351.16Z" transform="translate(-114.87 -241.74)"/><path class="cls-7" d="M236.63,477.06l17.84-6.76a5.92,5.92,0,1,0-4.2-11.06L232.44,466a5.91,5.91,0,1,0,4.19,11.05Z" transform="translate(-114.87 -241.74)"/><path class="cls-7" d="M410.53,246.73l-3,18.85a5.91,5.91,0,0,0,11.68,1.84l3-18.85a5.91,5.91,0,1,0-11.68-1.84Z" transform="translate(-114.87 -241.74)"/><path class="cls-7" d="M282.63,547.26a5.91,5.91,0,0,0,8.31-.92l11.33-14.17.58-.73a5.92,5.92,0,1,0-9.24-7.39l-9.27,11.6L281.7,539A5.9,5.9,0,0,0,282.63,547.26Z" transform="translate(-114.87 -241.74)"/><path class="cls-7" d="M490,278.45l-11.91,14.9a5.91,5.91,0,1,0,9.24,7.38l11.91-14.89a5.92,5.92,0,0,0-9.24-7.39Z" transform="translate(-114.87 -241.74)"/><path class="cls-7" d="M250.09,392.51a5.91,5.91,0,0,0-5-6.68l-18.88-2.67a5.91,5.91,0,1,0-1.66,11.71l18.88,2.67A5.91,5.91,0,0,0,250.09,392.51Z" transform="translate(-114.87 -241.74)"/><path class="cls-7" d="M535.87,439l18.89,2.67a5.91,5.91,0,1,0,1.65-11.71l-18.89-2.67A5.91,5.91,0,1,0,535.87,439Z" transform="translate(-114.87 -241.74)"/><path class="cls-7" d="M278.4,325.56a5.93,5.93,0,0,0-1.06-8.3l-15.08-11.68a5.92,5.92,0,0,0-7.25,9.35l15.09,11.68A5.92,5.92,0,0,0,278.4,325.56Z" transform="translate(-114.87 -241.74)"/><path class="cls-11" d="M882.78,1731.62h380.56c1.27-23.35,2.58-45.13,3.86-65.13H312.8V782.63H695.1c-4-9.34-5.54-19.79,2.78-26.47l27.79,26.47H979c.29-3,2.39-6,8.43-7.57a2.19,2.19,0,0,1,.4-1.87c0-.05.1-.07.14-.11-7-7.5,4.09-11.24,4.09-11.24s12.51-2.21,39.53-1.31a869.39,869.39,0,0,0,90.68-3.33s-19.08-24.83-12.7-40.37H307.6c-30,0-54.35,23.59-54.35,52.7v910.06c0,29.1,24.33,52.7,54.35,52.7H882.78Z" transform="translate(-114.87 -241.74)"/><path class="cls-11" d="M1781.63,716.83c18.33,19.12,30.2,41.88,37.53,65.8h33.2v883.86h-14.77c.44,21.19.81,43.18,1.14,65.8h18.83c30,0,54.36-23.6,54.36-52.7V769.53c0-26.36-20-48.13-46-52a56.94,56.94,0,0,0-8.32-.68Z" transform="translate(-114.87 -241.74)"/><path class="cls-11" d="M1167.66,768.45l3.25-2.71,21.65,16.89h19c17.63-30.67,37.68-51.73,54.83-65.8h-54.9l-8.59,25.42-14.14-25.42h-67.34l36.1,38.68Z" transform="translate(-114.87 -241.74)"/><path class="cls-12" d="M1814.39,966.21a2.17,2.17,0,0,1,.66.3,2.2,2.2,0,0,1,.5,3.07c-.57.79-1.13,1.57-1.71,2.36l4.15,190.72,26.57,476.58H1837q.33,13.41.62,27.25h14.77V782.63h-33.2C1843.17,861,1818.67,951.56,1814.39,966.21Z" transform="translate(-114.87 -241.74)"/><path class="cls-12" d="M1173.63,859.43,1166,848.91l-37.64,4.35s-2.57.13-6.86.23l21.52,45,12.49-1.64Z" transform="translate(-114.87 -241.74)"/><polygon class="cls-12" points="1164.22 905.61 1152.01 915.41 1161.18 934.57 1164.22 905.61"/><path class="cls-12" d="M1192.56,782.63,1205.91,793c1.85-3.57,3.73-7.07,5.66-10.41Z" transform="translate(-114.87 -241.74)"/><path class="cls-13" d="M1252,1639.24l5.34-112.41-96,12.59h0l-276.12,36.22h0l-173.79,22.79-173.78,22.8-83-632.47,344.56-45.2L757,891.88l-37.33,6.55s-54,5.74-81.75-1.12c0,0-56-18-34.8-20.89-2.11-.27-4.34-.56-6.81-.9h0a2.21,2.21,0,0,1-1.89-2.48,2.31,2.31,0,0,1,.22-.64c-7.28-3.55-13.29-8.08-16.52-13.91,0,0-2.57-2.85,1.32-6.43l-2.71-.4h0a2.19,2.19,0,0,1-1.86-2.49,2,2,0,0,1,.15-.43c-2.36-.92-4.07-1.87-4.86-2.83,0,0-10.79-12.5,4.21-17.28a2.17,2.17,0,0,1,.29-1.89,1.42,1.42,0,0,1,.13-.12c-7.4-7.08,3.44-11.46,3.44-11.46s12.35-2.95,39.37-3.63a872.28,872.28,0,0,0,87.51-8.24c-.26-.38-.48-.78-.75-1.15h0a2.21,2.21,0,0,1,.48-3.08l.05,0a84.7,84.7,0,0,1-9.75-16.43H312.8v883.86h954.4q.91-14.22,1.8-27.25Z" transform="translate(-114.87 -241.74)"/><path class="cls-13" d="M1265.46,1277.18l10.6-100.88-9.17-19.16L1244.61,1175l-1.57-1.74,22.78,173.67,3.21-67.81a2.21,2.21,0,0,1-3.57-2Z" transform="translate(-114.87 -241.74)"/><path class="cls-13" d="M753.88,811.46l3.09-2.89,171.2,118.07L1143,898.46l-21.52-45c-15.47.37-53.36.49-74.69-6.15,0,0-54.85-21.29-33.51-22.89-2.09-.39-4.3-.82-6.75-1.3h0a2.2,2.2,0,0,1-1.74-2.58,2.26,2.26,0,0,1,.26-.62c-7.07-4-12.8-8.85-15.68-14.86,0,0-2.4-3,1.7-6.34l-2.69-.56h0a2.19,2.19,0,0,1-1.71-2.6,1.89,1.89,0,0,1,.18-.41c-2.31-1.06-4-2.1-4.69-3.11,0,0-3.65-4.79-3.22-9.44H725.67L743,799.14Z" transform="translate(-114.87 -241.74)"/><path class="cls-13" d="M1839.87,1823h157.77c31.74,0,42.31-25.44,42.31-25.44l9.41-44.66c7-27-28.21-20.61-28.21-20.61H1838.73C1839.15,1761.51,1839.51,1791.8,1839.87,1823Z" transform="translate(-114.87 -241.74)"/><path class="cls-13" d="M125.22,1797.56S135.79,1823,167.53,1823H1258.9q1.23-29.14,2.59-56H882.78v-34.71H144s-35.26-6.42-28.22,20.61Z" transform="translate(-114.87 -241.74)"/><path class="cls-14" d="M1263.34,1731.62H882.78V1767h378.71Q1262.39,1748.75,1263.34,1731.62Z" transform="translate(-114.87 -241.74)"/><polygon class="cls-15" points="963.47 665.21 1040.66 655.08 1040.66 655.08 1028.17 656.72 813.29 684.9 903.21 746.92 972.99 737.77 963.47 665.21"/><rect class="cls-15" x="879.24" y="1484.65" width="278.49" height="73.19" transform="translate(-304.08 -96.35) rotate(-7.47)"/><polygon class="cls-15" points="738.8 768.49 687.99 706.3 696.86 773.99 738.8 768.49"/><polygon class="cls-15" points="684.32 701.82 339.77 747.02 684.32 701.82 684.32 701.82"/><path class="cls-16" d="M1265.82,1346.94,1243,1173.27l-6.16-6.76c-13.5,15.13-27.73,30.36-42.23,44.8a149.62,149.62,0,0,1-16.53,14l26,198.21h0l4.7,35.81-57,7.48,9.52,72.57h0l96-12.59Z" transform="translate(-114.87 -241.74)"/><polygon class="cls-16" points="963.47 665.21 972.99 737.77 1002.51 733.89 1040.66 655.08 963.47 665.21"/><polygon class="cls-17" points="523.08 796.78 696.86 773.99 687.99 706.3 684.32 701.82 339.77 747.02 513.56 724.22 523.08 796.78"/><polygon class="cls-17" points="760.79 1261.33 587 1284.13 596.52 1356.7 770.31 1333.9 770.31 1333.9 760.79 1261.33"/><polygon class="cls-18" points="587 1284.13 483.75 1297.67 471.76 1206.29 471.76 1206.29 419.82 810.33 523.08 796.78 513.56 724.22 339.77 747.02 422.73 1379.49 596.52 1356.7 587 1284.13"/><polygon class="cls-19" points="1002.51 733.89 972.99 737.77 903.21 746.92 995.85 810.81 1003.92 794.94 983.72 772.72 1002.51 733.89"/><path class="cls-19" d="M638,1038.52l-103.26,13.55,34.33-4.51,46.47,354.33h0l112.08-179.16,172.74,170.08,112.41-152.32,183.51,122.9,7.89,60.17h0l-26-198.21C1083,1294.71,986,1172.2,986,1172.2l-2.89-3.54a64.24,64.24,0,1,1-69.1-84.54h0l-60.39-73.9-41.94,5.5Z" transform="translate(-114.87 -241.74)"/><polygon class="cls-20" points="1089.25 1181.82 1081.35 1121.66 897.85 998.76 785.44 1151.07 612.7 980.99 500.62 1160.15 513.37 1257.36 1089.25 1181.82"/><path class="cls-20" d="M858.7,1156.19a64.22,64.22,0,0,0,124.45,12.47l-69.08-84.54h0A64.26,64.26,0,0,0,858.7,1156.19Z" transform="translate(-114.87 -241.74)"/><polygon class="cls-21" points="454.14 805.83 419.82 810.33 471.76 1206.29 500.62 1160.15 454.14 805.83"/><polygon class="cls-22" points="513.37 1257.36 500.62 1160.15 500.62 1160.15 500.62 1160.15 471.76 1206.29 471.76 1206.29 483.75 1297.67 587 1284.13 760.79 1261.33 1036.91 1225.11 1093.94 1217.63 1089.25 1181.82 1089.25 1181.82 1089.25 1181.82 513.37 1257.36"/><path class="cls-23" d="M1837.59,1666.49q-.28-13.86-.62-27.25H1269q-.88,13-1.8,27.25c-1.28,20-2.59,41.78-3.86,65.13q-.94,17.13-1.85,35.38-1.35,26.85-2.59,56c-3.67,86.4-6.5,187.41-7,298.32h289.12l12.14-258.93.63,8.72-.89-17.19V1748.08h0a2.2,2.2,0,1,1,4.39,0v105.68l6.51,124.81a2.2,2.2,0,0,1-2,2.3l10.2,140.45h272.55c-2.63-103.23-3.64-204.71-4.69-298.32-.36-31.2-.72-61.49-1.14-90.71C1838.4,1709.67,1838,1687.68,1837.59,1666.49Z" transform="translate(-114.87 -241.74)"/><path class="cls-24" d="M1563.85,1978.57l-6.51-124.81V1748.08a2.2,2.2,0,1,0-4.39,0h0v105.84l.89,17.19,5.62,107.69a2.2,2.2,0,0,0,2.31,2.08h0A2.2,2.2,0,0,0,1563.85,1978.57Z" transform="translate(-114.87 -241.74)"/><path class="cls-25" d="M707.87,799.56c3.5,4.78,5.68,10.1,7.75,15.14s4,9.81,6.93,13.61,7.8,7,13,9.46a104.76,104.76,0,0,0,14,5.32,2.2,2.2,0,0,1-1.32,4.2,109.75,109.75,0,0,1-14.54-5.55c-5.49-2.64-11-6.08-14.58-10.77-3.35-4.44-5.41-9.56-7.49-14.6a72.33,72.33,0,0,0-6.48-13.07,872.28,872.28,0,0,1-87.51,8.24c-27,.68-39.37,3.63-39.37,3.63s-10.84,4.38-3.44,11.46a2.18,2.18,0,0,1,2.94-.39c6.39,4.65,17.08,5.47,27,5.43,3.47,0,6.84-.08,9.93-.08h2.93c15.71,0,22.5-.35,44.13-2.77a2.2,2.2,0,0,1,.49,4.37c-21.64,2.43-28.85,2.81-44.62,2.8h-2.93c-3,0-6.39.08-9.93.08-10.1,0-21.49-.56-29.55-6.25h0a2.26,2.26,0,0,1-.8-1.18c-15,4.78-4.21,17.28-4.21,17.28.79,1,2.5,1.91,4.86,2.83a2.16,2.16,0,0,1,2.34-1.43c16.15,2.35,24.93,4.5,47,5.3,8,.29,15.69.59,23,.59a135.82,135.82,0,0,0,23.44-1.68,2.2,2.2,0,1,1,.77,4.33,139.51,139.51,0,0,1-24.21,1.75c-7.39,0-15.12-.31-23.12-.6-21.05-.75-30.46-2.76-44.79-4.94-3.89,3.58-1.32,6.43-1.32,6.43,3.23,5.83,9.24,10.36,16.52,13.91a2.2,2.2,0,0,1,2.26-1.25c21.67,2.92,25.92,3.18,64.92,3.76a2.19,2.19,0,0,1,2.16,2.23,2.21,2.21,0,0,1-2.23,2.17c-34.49-.5-42.2-.8-58.63-2.9-21.2,2.85,34.8,20.89,34.8,20.89,27.72,6.86,81.75,1.12,81.75,1.12L757,891.88l42.24,51.68h0l3.66,4.48,50.82,62.18,60.39,73.9,69.08,84.54,2.89,3.54s96.92,122.51,192.08,53.15a149.62,149.62,0,0,0,16.53-14c14.5-14.44,28.73-29.67,42.23-44.8l-118.09-129.84-8.07,15.88-92.63-63.89-89.92-62L757,808.57l-3.09,2.89L743,799.14l-17.33-16.51-27.79-26.47c-8.32,6.68-6.79,17.13-2.78,26.47a84.7,84.7,0,0,0,9.75,16.43A2.18,2.18,0,0,1,707.87,799.56Z" transform="translate(-114.87 -241.74)"/><path class="cls-24" d="M575.13,829.82c8.06,5.69,19.45,6.21,29.55,6.25,3.54,0,6.92-.08,9.93-.08h2.93c15.77,0,23-.37,44.62-2.8a2.2,2.2,0,0,0-.49-4.37c-21.63,2.42-28.42,2.77-44.13,2.77h-2.93c-3.09,0-6.46.08-9.93.08-9.91,0-20.6-.78-27-5.43a2.18,2.18,0,0,0-2.94.39,1.42,1.42,0,0,0-.13.12,2.17,2.17,0,0,0-.29,1.89,2.26,2.26,0,0,0,.8,1.18Z" transform="translate(-114.87 -241.74)"/><path class="cls-24" d="M624.19,857c8,.29,15.73.6,23.12.6a139.51,139.51,0,0,0,24.21-1.75,2.2,2.2,0,1,0-.77-4.33,135.82,135.82,0,0,1-23.44,1.68c-7.27,0-14.95-.3-23-.59-22.1-.8-30.88-3-47-5.3a2.16,2.16,0,0,0-2.34,1.43,2,2,0,0,0-.15.43,2.19,2.19,0,0,0,1.86,2.49h0l2.71.4C593.73,854.25,603.14,856.26,624.19,857Z" transform="translate(-114.87 -241.74)"/><path class="cls-24" d="M661.71,879.32a2.21,2.21,0,0,0,2.23-2.17,2.19,2.19,0,0,0-2.16-2.23c-39-.58-43.25-.84-64.92-3.76a2.2,2.2,0,0,0-2.26,1.25,2.31,2.31,0,0,0-.22.64,2.21,2.21,0,0,0,1.89,2.48h0c2.47.34,4.7.63,6.81.9C619.51,878.52,627.22,878.82,661.71,879.32Z" transform="translate(-114.87 -241.74)"/><path class="cls-24" d="M719,831c3.57,4.69,9.09,8.13,14.58,10.77a109.75,109.75,0,0,0,14.54,5.55,2.2,2.2,0,0,0,1.32-4.2,104.76,104.76,0,0,1-14-5.32c-5.18-2.46-10.17-5.7-13-9.46s-4.86-8.56-6.93-13.61-4.25-10.36-7.75-15.14a2.18,2.18,0,0,0-3-.5l-.05,0a2.21,2.21,0,0,0-.48,3.08h0c.27.37.49.77.75,1.15a72.33,72.33,0,0,1,6.48,13.07C713.63,821.41,715.69,826.53,719,831Z" transform="translate(-114.87 -241.74)"/><path class="cls-26" d="M1461.93,653.26h0a2.21,2.21,0,0,1,2.67,1.6c3.5,14,9.9,24.49,18.81,32s20.43,12,34.32,13.69a70.59,70.59,0,0,0,8.43.46c9.22,0,22-1.45,33.87-6.57a65.57,65.57,0,0,0,6.43-3.24c-49.91-.08-45.15-62.53-23.38-88.9,15.16-18.35,1.42-30.32-15.12-43.35-25.89,22.65-53,39.16-68.14,39.16v40.09A63.26,63.26,0,0,0,1461.93,653.26Z" transform="translate(-114.87 -241.74)"/><path class="cls-27" d="M1522.79,554.83c-17.66,9.66-37.29,14.34-59.49,8.71-1.2-.3-2.31-.75-3.46-1.13v35.67c15.19,0,42.25-16.51,68.14-39.16Z" transform="translate(-114.87 -241.74)"/><path class="cls-26" d="M1522.79,554.83c-11-8.7-22-18.18-25.87-30.51-11.84-38.21,30.64-76.6,34.49-114.08a77.28,77.28,0,0,0,.26-11c-1.48-4.5-2.88-9.1-4.16-13.8-15.31-56.68-65-65.42-65-65.42-40.88,10.6-53,54.76-53.32,56a191.43,191.43,0,0,0-2.38,19.74,33.87,33.87,0,0,1,14.15-3.07,36.38,36.38,0,0,1,10.62,1.6,2.2,2.2,0,0,1-1.3,4.21,31.7,31.7,0,0,0-9.32-1.41,29.43,29.43,0,0,0-12.57,2.77h0a2.21,2.21,0,0,1-1.85,0c-1.24,23,.5,48.77,3.39,75.43,3.35,30.9,15,75.67,49.94,87.21,1.15.38,2.26.83,3.46,1.13C1485.5,569.17,1505.13,564.49,1522.79,554.83Zm-10.54-127.78c.27,6.2-7.45,11.58-17.27,12s-18-4.25-18.24-10.45c-.14-3.13,1.78-6,5-8.22a7.35,7.35,0,1,1,9.34-7.07,7.27,7.27,0,0,1-1.07,3.78,27.54,27.54,0,0,1,4-.5C1503.82,416.17,1512,420.85,1512.25,427.05Zm-42.4-34.29a49,49,0,0,1,14.31-2.1c7.1,0,14.31,1.5,19.85,5.33a2.2,2.2,0,1,1-2.5,3.61c-4.46-3.1-10.87-4.55-17.35-4.54a44.79,44.79,0,0,0-13,1.9h0a2.2,2.2,0,1,1-1.3-4.2ZM1421,406a7.36,7.36,0,1,1-7.37,7.35A7.34,7.34,0,0,1,1421,406Zm31.83,28.47a2.2,2.2,0,0,1-2.75,1.45,43.47,43.47,0,0,1-4.23-1.54c-1.21,5.2-7.84,9.71-16.29,10.62-9.76,1-18.21-3.12-18.86-9.28s6.7-12,16.46-13.07a26,26,0,0,1,8.15.41c2-2.22,3.93-4.21,5.44-6.1a13.36,13.36,0,0,0,3.37-8.16h0a2.2,2.2,0,1,1,4.4.18,17.69,17.69,0,0,1-4.34,10.72c-1.36,1.69-2.83,3.26-4.3,4.83a11.45,11.45,0,0,1,5.22,4.67,48,48,0,0,0,6.27,2.52A2.21,2.21,0,0,1,1452.87,434.45Zm5.42,27.4h0a2.2,2.2,0,1,1,1.78-4,7.33,7.33,0,0,0,3,.59c3.24,0,7.28-2,10.59-5s5.88-6.81,6.55-9.54a2.2,2.2,0,1,1,4.26,1.09c-1.06,4-4,8.27-7.88,11.73s-8.57,6.08-13.52,6.11a11.58,11.58,0,0,1-4.73-1Z" transform="translate(-114.87 -241.74)"/><path class="cls-28" d="M1409.13,376.06a.81.81,0,0,0,0-.11c.32-1.2,12.44-45.36,53.32-56,0,0,49.72,8.74,65,65.42,1.28,4.7,2.68,9.3,4.16,13.8a77.28,77.28,0,0,1-.26,11c-3.85,37.48-46.33,75.87-34.49,114.08,3.83,12.33,14.87,21.81,25.87,30.51l5.19,4.09c16.54,13,30.28,25,15.12,43.35-21.77,26.37-26.53,88.82,23.38,88.9,1.47,0,3,0,4.52-.14s2.88-.24,4.32-.35c40.82-3,80.19-8.84,119.72-20.26q9.3-2.68,18.6-5.77c13.78-4.6,28.49-14.45,36-27.19,16-27.09-12.6-59.25-13.75-87.06-.75-17.76,6.41-35.18,5.09-52.79-2.54-33.58-45.47-50.18-56.74-82.17-6.27-17.77-7.21-37.35-16.1-54.2-8.39-15.88-22.59-26-37-36.05-13.46-9.45-26.93-21.1-42.08-27.72-10.89-4.75-22.48-6.21-34.17-5.92l-2.62-.51c-1.72-.31-3.52-.59-5.31-.88-19.21-3.07-41.85-4.42-60.45-.82a118.36,118.36,0,0,0-47.11,21.73C1422,324.77,1407.58,345.61,1409.13,376.06Z" transform="translate(-114.87 -241.74)"/><path class="cls-29" d="M1211.57,782.63c-1.93,3.34-3.81,6.84-5.66,10.41l95.35,74.38c4.5-15.22,9.76-26.15,14.75-37,6.09-13.33,11.81-26.75,15.65-49h0a2.2,2.2,0,1,1,4.33.75c-3.89,22.63-9.85,36.64-16,50-5.21,11.39-10.52,22.36-15,38.13l200.37,156.3,23-30.17,104.11,118.43a375.35,375.35,0,0,0-29.23-34.89h0a2.2,2.2,0,0,1,3.2-3c15,15.91,24.29,28.19,33.13,40,8.49,11.39,16.65,22.42,29.33,36.08,11.44-11.71,31.21-36,55.55-67.69,25.51-33.23,56.08-74.63,87.56-118.41a2.18,2.18,0,0,1,2.41-.8c4.28-14.65,28.78-105.24,4.77-183.58-7.33-23.92-19.2-46.68-37.53-65.8-20.16-21-48.17-37.58-86.59-46.41-39.53,11.42-78.9,17.24-119.72,20.26a64.84,64.84,0,0,1-13.53,7.77c-12.68,5.44-25.94,6.93-35.61,6.93a75.82,75.82,0,0,1-9-.49c-14.52-1.75-26.92-6.54-36.61-14.69s-16.6-19.58-20.26-34.28h0a2.18,2.18,0,0,1,1.58-2.66,63.26,63.26,0,0,1-2.09-15.09l-153,53.64s-17.66,6.32-40.46,25C1249.25,730.9,1229.2,752,1211.57,782.63Zm298.85,186.08c50.37-69.34,66.83-89.77,124.68-161.53h0a2.2,2.2,0,1,1,3.43,2.77c-57.87,71.77-74.2,92-124.55,161.35a2.2,2.2,0,1,1-3.56-2.59Z" transform="translate(-114.87 -241.74)"/><path class="cls-29" d="M1818,1162.66l-4.15-190.72c-30.89,42.94-60.84,83.48-85.93,116.15-25.57,33.3-46,58.39-57.55,69.77a2.2,2.2,0,0,1-1.59.64,2.17,2.17,0,0,1-1.56-.69c-5.5-5.85-10.15-11.21-14.35-16.31-19.63,18.49-44.28,38.72-71.47,54.32-104.65,87.13-203.13-53.64-203.13-53.64l-92.56-127.89c0,.06,0,.12,0,.18.13,19.49.07,41.28.64,58.33.38,11.34,1.07,20.65,2.21,25.46l0,.73-18.76,178.65a2.2,2.2,0,0,1-.81,1.49l-3.21,67.81-8.53,179.89L1252,1639.24h592.61Z" transform="translate(-114.87 -241.74)"/><path class="cls-29" d="M1244.61,1175l22.28-17.87,12.21-9.79,5.09-48.51a122,122,0,0,1-1.89-17.72c-.41-7.73-.62-16.89-.74-26.63-.19-15.16-.16-31.69-.31-46.35L1173.63,859.43l-18.1,37.39h0l-38.15,78.81-18.79,38.83,20.2,22.21,118.09,129.84,6.16,6.76Z" transform="translate(-114.87 -241.74)"/><path class="cls-24" d="M1336,782.17a2.2,2.2,0,1,0-4.33-.75h0c-3.84,22.2-9.56,35.62-15.65,49-5,10.9-10.25,21.83-14.75,37l3.72,2.91c4.51-15.77,9.82-26.74,15-38.13C1326.14,818.81,1332.1,804.8,1336,782.17Z" transform="translate(-114.87 -241.74)"/><path class="cls-24" d="M1281.56,1054.49c.12,9.74.33,18.9.74,26.63a122,122,0,0,0,1.89,17.72l-5.09,48.51-3,29-10.6,100.88a2.2,2.2,0,1,0,4.38.46L1288.6,1099l0-.73c-1.14-4.81-1.83-14.12-2.21-25.46-.57-17-.51-38.84-.64-58.33,0-.06,0-.12,0-.18l-4.45-6.15C1281.4,1022.8,1281.37,1039.33,1281.56,1054.49Z" transform="translate(-114.87 -241.74)"/><path class="cls-24" d="M1526.18,701a70.59,70.59,0,0,1-8.43-.46c-13.89-1.67-25.4-6.2-34.32-13.69s-15.31-18-18.81-32a2.21,2.21,0,0,0-2.67-1.6h0a2.18,2.18,0,0,0-1.58,2.66h0c3.66,14.7,10.56,26.14,20.26,34.28s22.09,12.94,36.61,14.69a75.82,75.82,0,0,0,9,.49c9.67,0,22.93-1.49,35.61-6.93a64.84,64.84,0,0,0,13.53-7.77c-1.44.11-2.87.25-4.32.35s-3,.14-4.52.14a65.57,65.57,0,0,1-6.43,3.24C1548.14,699.53,1535.4,701,1526.18,701Z" transform="translate(-114.87 -241.74)"/><path class="cls-24" d="M1514,971.3c50.35-69.31,66.68-89.58,124.55-161.35a2.2,2.2,0,1,0-3.43-2.77h0c-57.85,71.76-74.31,92.19-124.68,161.53a2.2,2.2,0,1,0,3.56,2.59Z" transform="translate(-114.87 -241.74)"/><path class="cls-24" d="M1668.77,1158.5a2.2,2.2,0,0,0,1.59-.64c11.51-11.38,32-36.47,57.55-69.77,25.09-32.67,55-73.21,85.93-116.15.58-.79,1.14-1.57,1.71-2.36a2.2,2.2,0,0,0-.5-3.07,2.29,2.29,0,0,0-3.07.5c-31.48,43.78-62,85.18-87.56,118.41-24.34,31.7-44.11,56-55.55,67.69-12.68-13.66-20.84-24.69-29.33-36.08-8.84-11.86-18.08-24.14-33.13-40a2.2,2.2,0,0,0-3.2,3h0a375.35,375.35,0,0,1,29.23,34.89l3.57,4.77c5.31,7.12,10.55,14.18,16.85,21.84,4.2,5.1,8.85,10.46,14.35,16.31A2.17,2.17,0,0,0,1668.77,1158.5Z" transform="translate(-114.87 -241.74)"/><path class="cls-25" d="M982.2,792.07c.72,1,2.38,2,4.69,3.11a2.16,2.16,0,0,1,2.42-1.3c16,3.3,24.62,6,46.63,8,12.17,1.16,23.58,2.3,34,2.3a107.52,107.52,0,0,0,12.41-.66,2.2,2.2,0,0,1,.52,4.37,110.91,110.91,0,0,1-12.93.69c-10.71,0-22.23-1.16-34.39-2.32-21-2-30.24-4.55-44.41-7.56-4.1,3.35-1.7,6.34-1.7,6.34,2.88,6,8.61,10.89,15.68,14.86a2.19,2.19,0,0,1,2.33-1.12c21.45,4.19,25.68,4.7,64.57,7.56a2.2,2.2,0,0,1-.32,4.39c-34.39-2.52-42.08-3.26-58.35-6.33-21.34,1.6,33.51,22.89,33.51,22.89,21.33,6.64,59.22,6.52,74.69,6.15,4.29-.1,6.86-.23,6.86-.23l37.64-4.35,7.61,10.52,107.62,148.71,4.45,6.15,92.56,127.89s98.48,140.77,203.13,53.64c27.19-15.6,51.84-35.83,71.47-54.32-6.3-7.66-11.54-14.72-16.85-21.84l-3.57-4.77L1528.33,996.46l-23,30.17L1305,870.33l-3.72-2.91L1205.91,793l-13.35-10.41-21.65-16.89-3.25,2.71-10.13-12.94-36.1-38.68L1115,710a15.4,15.4,0,0,0-5.46,6.87c-6.38,15.54,12.7,40.37,12.7,40.37a869.39,869.39,0,0,1-90.68,3.33c-27-.9-39.53,1.31-39.53,1.31S981,765.58,988,773.08a2.19,2.19,0,0,1,3-.22c4.18,3.41,10.44,5.22,17.18,6.14s13.86,1,19.8,1.39c8.91.55,14.94.84,21.7.84,6.53,0,13.79-.27,25-.86a2.2,2.2,0,1,1,.23,4.39c-11.23.59-18.57.87-25.23.87-6.9,0-13-.3-22-.85-5.78-.35-13-.44-20.13-1.42s-14.09-2.85-19.35-7.08h0a2.16,2.16,0,0,1-.73-1.22c-6,1.54-8.14,4.52-8.43,7.57C978.55,787.28,982.2,792.07,982.2,792.07Z" transform="translate(-114.87 -241.74)"/><path class="cls-24" d="M988.14,776.28c5.26,4.23,12.26,6.08,19.35,7.08s14.35,1.07,20.13,1.42c8.93.55,15.07.85,22,.85,6.66,0,14-.28,25.23-.87a2.2,2.2,0,1,0-.23-4.39c-11.21.59-18.47.86-25,.86-6.76,0-12.79-.29-21.7-.84-5.94-.36-13.07-.46-19.8-1.39s-13-2.73-17.18-6.14a2.19,2.19,0,0,0-3,.22s-.1.06-.14.11a2.19,2.19,0,0,0-.4,1.87,2.16,2.16,0,0,0,.73,1.22Z" transform="translate(-114.87 -241.74)"/><path class="cls-24" d="M1035.52,806.31c12.16,1.16,23.68,2.32,34.39,2.32a110.91,110.91,0,0,0,12.93-.69,2.2,2.2,0,0,0-.52-4.37,107.52,107.52,0,0,1-12.41.66c-10.39,0-21.8-1.14-34-2.3-22-2.09-30.65-4.75-46.63-8a2.16,2.16,0,0,0-2.42,1.3,1.89,1.89,0,0,0-.18.41,2.19,2.19,0,0,0,1.71,2.6h0l2.69.56C1005.28,801.76,1014.56,804.32,1035.52,806.31Z" transform="translate(-114.87 -241.74)"/><path class="cls-24" d="M1071.67,830.78a2.2,2.2,0,0,0,.32-4.39c-38.89-2.86-43.12-3.37-64.57-7.56a2.19,2.19,0,0,0-2.33,1.12,2.26,2.26,0,0,0-.26.62,2.2,2.2,0,0,0,1.74,2.58h0c2.45.48,4.66.91,6.75,1.3C1029.59,827.52,1037.28,828.26,1071.67,830.78Z" transform="translate(-114.87 -241.74)"/><path class="cls-27" d="M1445.14,429.18a11.45,11.45,0,0,0-5.22-4.67c-.42.45-.81.92-1.22,1.37C1440.86,427.06,1443,428.18,1445.14,429.18Z" transform="translate(-114.87 -241.74)"/><path class="cls-27" d="M1433.07,426.93a2.19,2.19,0,0,1,.44-1.81c.61-.77,1.22-1.39,1.84-2.08a26,26,0,0,0-8.15-.41c-9.76,1-17.14,6.9-16.46,13.07s9.1,10.32,18.86,9.28c8.45-.91,15.08-5.42,16.29-10.62a122.48,122.48,0,0,1-11.72-5.94A2.18,2.18,0,0,1,1433.07,426.93Z" transform="translate(-114.87 -241.74)"/><path class="cls-27" d="M1490,417.11a7.31,7.31,0,0,1-6.28,3.59,7.66,7.66,0,0,1-2-.3c-3.17,2.18-5.09,5.09-5,8.22.28,6.2,8.45,10.87,18.24,10.45s17.54-5.82,17.27-12-8.43-10.88-18.25-10.44A27.54,27.54,0,0,0,1490,417.11Z" transform="translate(-114.87 -241.74)"/><path class="cls-24" d="M1421,420.7a7.36,7.36,0,1,0-7.37-7.37A7.35,7.35,0,0,0,1421,420.7Z" transform="translate(-114.87 -241.74)"/><path class="cls-24" d="M1490,417.11a7.27,7.27,0,0,0,1.07-3.78,7.36,7.36,0,1,0-9.34,7.07,7.66,7.66,0,0,0,2,.3A7.31,7.31,0,0,0,1490,417.11Z" transform="translate(-114.87 -241.74)"/><path class="cls-24" d="M1471.15,397h0a44.79,44.79,0,0,1,13-1.9c6.48,0,12.89,1.44,17.35,4.54A2.2,2.2,0,1,0,1504,396c-5.54-3.83-12.75-5.32-19.85-5.33a49,49,0,0,0-14.31,2.1,2.2,2.2,0,1,0,1.3,4.2Z" transform="translate(-114.87 -241.74)"/><path class="cls-24" d="M1408.36,399.79h0a29.43,29.43,0,0,1,12.57-2.77,31.7,31.7,0,0,1,9.32,1.41,2.2,2.2,0,0,0,1.3-4.21,36.38,36.38,0,0,0-10.62-1.6,33.87,33.87,0,0,0-14.15,3.07c-.1,0-.2.07-.3.12a2.17,2.17,0,0,0,0,4A2.21,2.21,0,0,0,1408.36,399.79Z" transform="translate(-114.87 -241.74)"/><path class="cls-24" d="M1451.41,431.7a48,48,0,0,1-6.27-2.52c-2.14-1-4.28-2.12-6.44-3.3.41-.45.8-.92,1.22-1.37,1.47-1.57,2.94-3.14,4.3-4.83a17.69,17.69,0,0,0,4.34-10.72,2.2,2.2,0,1,0-4.4-.18h0a13.36,13.36,0,0,1-3.37,8.16c-1.51,1.89-3.46,3.88-5.44,6.1-.62.69-1.23,1.31-1.84,2.08a2.19,2.19,0,0,0,.66,3.3,122.48,122.48,0,0,0,11.72,5.94,43.47,43.47,0,0,0,4.23,1.54,2.2,2.2,0,1,0,1.29-4.2Z" transform="translate(-114.87 -241.74)"/><path class="cls-24" d="M1476.54,456.71c3.84-3.46,6.82-7.69,7.88-11.73a2.2,2.2,0,1,0-4.26-1.09c-.67,2.73-3.23,6.6-6.55,9.54s-7.35,5-10.59,5a7.33,7.33,0,0,1-3-.59,2.2,2.2,0,1,0-1.78,4,11.58,11.58,0,0,0,4.73,1C1468,462.79,1472.7,460.12,1476.54,456.71Z" transform="translate(-114.87 -241.74)"/><polygon class="cls-24" points="1343.42 220.11 1343.42 220.11 1343.42 220.11 1343.42 220.11"/><path class="cls-30" d="M732,629c31.2,23.39,75.24,22.38,112.29,24.36,91.6,4.88,212.49-1.21,303.88-9.56l40.61,73,14.14,25.42,8.59-25.42,34-100.38c26.56-54.66,33.29-213.66-4.36-266.8a55.44,55.44,0,0,0-5.84-7.14c-41.61-41.73-126.6-33.25-185.37-33.7-66.82-.51-135.74-2.26-202.81,1.79-43.87,2.65-99.3,3-121.54,47.4-10.56,21.1-20.47,57.33-25.85,96.91C690.42,523,694.57,600.94,732,629Zm327-135.65a11,11,0,0,1,10.51,7.8,11,11,0,0,1-3.07,21.59H818.16a11,11,0,0,1-10.5-7.79,11,11,0,0,1,3.05-21.6ZM882.59,451.76a11,11,0,0,1,11-11h175.59a11,11,0,0,1,10.49,7.79,11,11,0,0,1-3,21.6H901.08a11,11,0,0,1-10.51-7.8A11,11,0,0,1,882.59,451.76Zm-31.73,18.35h-32.7a11,11,0,0,1-10.5-7.79,11,11,0,0,1,3.05-21.6h32.7a11,11,0,0,1,10.5,7.79,11,11,0,0,1-3,21.6Zm111.06,97.15H818.16a11,11,0,0,1-10.5-7.79,11,11,0,0,1,3.05-21.6H954.48A11,11,0,0,1,965,545.66a11,11,0,0,1-3,21.6Zm197.66,0H1015.83a11,11,0,0,1-10.51-7.8,11,11,0,0,1,3.07-21.59h143.75a11,11,0,0,1,10.49,7.79,11,11,0,0,1-3.05,21.6Zm0-44.5h-53.85a11,11,0,0,1-10.51-7.79,11,11,0,0,1,3.06-21.6h53.86a11,11,0,0,1,10.49,7.79,11,11,0,0,1-3.05,21.6Zm0-52.65h-32.69a11,11,0,0,1-10.51-7.8,11,11,0,0,1,3.07-21.59h32.69a11,11,0,0,1,10.49,7.79,11,11,0,0,1-3.05,21.6Zm0-44.5H1015.83a11,11,0,0,1-10.51-7.8,11,11,0,0,1,3.07-21.59h143.75a11,11,0,0,1,10.49,7.79,11,11,0,0,1-3.05,21.6ZM810.71,396.22H954.48A11,11,0,0,1,965,404a11,11,0,0,1-3,21.6H818.16a11,11,0,0,1-10.5-7.79,11,11,0,0,1,3.05-21.6Z" transform="translate(-114.87 -241.74)"/><path class="cls-31" d="M954.48,418.3H810.71a10.93,10.93,0,0,1-3.05-.48,11,11,0,0,0,10.5,7.79H961.92a11,11,0,0,0,3-21.6,10.9,10.9,0,0,1-10.48,14.29Z" transform="translate(-114.87 -241.74)"/><path class="cls-31" d="M1162.63,404a10.9,10.9,0,0,1-10.49,14.29H1008.39a10.72,10.72,0,0,1-3.07-.49,11,11,0,0,0,10.51,7.8h143.75a11,11,0,0,0,3.05-21.6Z" transform="translate(-114.87 -241.74)"/><path class="cls-31" d="M1069.23,462.8H893.64a10.77,10.77,0,0,1-3.07-.49,11,11,0,0,0,10.51,7.8h175.59a11,11,0,0,0,3-21.6,10.9,10.9,0,0,1-10.49,14.29Z" transform="translate(-114.87 -241.74)"/><path class="cls-31" d="M853.91,448.51a10.9,10.9,0,0,1-10.5,14.29h-32.7a10.93,10.93,0,0,1-3.05-.48,11,11,0,0,0,10.5,7.79h32.7a11,11,0,0,0,3-21.6Z" transform="translate(-114.87 -241.74)"/><path class="cls-31" d="M1162.63,448.51a10.9,10.9,0,0,1-10.49,14.29h-32.69a10.77,10.77,0,0,1-3.07-.49,11,11,0,0,0,10.51,7.8h32.69a11,11,0,0,0,3.05-21.6Z" transform="translate(-114.87 -241.74)"/><path class="cls-31" d="M1162.63,545.66a10.9,10.9,0,0,1,.54,3.25,11,11,0,0,1-11,11H1008.39a10.72,10.72,0,0,1-3.07-.49,11,11,0,0,0,10.51,7.8h143.75a11,11,0,0,0,3.05-21.6Z" transform="translate(-114.87 -241.74)"/><path class="cls-31" d="M965,545.66a10.9,10.9,0,0,1,.54,3.25,11,11,0,0,1-11,11H810.71a10.93,10.93,0,0,1-3.05-.48,11,11,0,0,0,10.5,7.79H961.92a11,11,0,0,0,3-21.6Z" transform="translate(-114.87 -241.74)"/><path class="cls-31" d="M1059,515.45H810.71a10.93,10.93,0,0,1-3.05-.48,11,11,0,0,0,10.5,7.79h248.3a11,11,0,0,0,3.07-21.59,10.89,10.89,0,0,1,.54,3.24A11,11,0,0,1,1059,515.45Z" transform="translate(-114.87 -241.74)"/><path class="cls-31" d="M1162.63,501.16a10.9,10.9,0,0,1-10.49,14.29h-53.86a11.06,11.06,0,0,1-3.06-.48,11,11,0,0,0,10.51,7.79h53.85a11,11,0,0,0,3.05-21.6Z" transform="translate(-114.87 -241.74)"/><path class="cls-32" d="M807.66,417.82a10.93,10.93,0,0,0,3.05.48H954.48a11,11,0,0,0,0-22.08H810.71a11,11,0,0,0-3.05,21.6Z" transform="translate(-114.87 -241.74)"/><path class="cls-32" d="M1152.14,418.3a11,11,0,0,0,0-22.08H1008.39a11,11,0,0,0-3.07,21.59,10.72,10.72,0,0,0,3.07.49Z" transform="translate(-114.87 -241.74)"/><path class="cls-32" d="M893.64,462.8h175.59a11,11,0,0,0,0-22.08H893.64a11,11,0,0,0-3.07,21.59A10.77,10.77,0,0,0,893.64,462.8Z" transform="translate(-114.87 -241.74)"/><path class="cls-32" d="M843.41,462.8a11,11,0,0,0,0-22.08h-32.7a11,11,0,0,0-3.05,21.6,10.93,10.93,0,0,0,3.05.48Z" transform="translate(-114.87 -241.74)"/><path class="cls-32" d="M1152.14,462.8a11,11,0,0,0,0-22.08h-32.69a11,11,0,0,0-3.07,21.59,10.77,10.77,0,0,0,3.07.49Z" transform="translate(-114.87 -241.74)"/><path class="cls-32" d="M1152.14,560a11,11,0,0,0,11-11,11.24,11.24,0,0,0-11-11H1008.39a11,11,0,0,0-3.07,21.59,10.72,10.72,0,0,0,3.07.49Z" transform="translate(-114.87 -241.74)"/><path class="cls-32" d="M954.48,560a11,11,0,0,0,11-11,11.24,11.24,0,0,0-11-11H810.71a11,11,0,0,0-3.05,21.6,10.93,10.93,0,0,0,3.05.48Z" transform="translate(-114.87 -241.74)"/><path class="cls-32" d="M799.68,504.41a11.24,11.24,0,0,0,11,11H1059a11,11,0,0,0,11-11,10.89,10.89,0,0,0-.54-3.24,11,11,0,0,0-10.51-7.8H810.71A11,11,0,0,0,799.68,504.41Z" transform="translate(-114.87 -241.74)"/><path class="cls-32" d="M1152.14,515.45a11,11,0,0,0,0-22.08h-53.86a11,11,0,0,0,0,22.08Z" transform="translate(-114.87 -241.74)"/></svg>