<svg id="Слой_1" data-name="Слой 1" xmlns="http://www.w3.org/2000/svg" viewBox="0 0 2562.4 1651.5"><defs><style>.cls-1{fill:#e3eaff;}.cls-2{fill:#fff;}.cls-3{fill:#768fdb;}.cls-4{fill:#4364cc;}.cls-5{fill:#062440;}.cls-6{fill:#f37a50;}.cls-7{fill:#2c2858;}.cls-8{fill:#de623c;}.cls-9{fill:#c4204a;}.cls-10{fill:#f57191;}.cls-11{fill:#f3dad1;}.cls-12{fill:#f5a3b7;}.cls-13{fill:#e62552;}.cls-14{fill:#494c7f;}.cls-15{fill:#a11a3d;}.cls-16{fill:#3f964f;}.cls-17{fill:#0e6a41;}.cls-18{fill:#b0173e;}.cls-19{fill:#f3c8b9;}.cls-20{fill:#f3ae9c;}.cls-21{fill:#de6280;}.cls-22{fill:#607fdb;}</style></defs><path class="cls-1" d="M219.48,1718.52c-150.17-168.72-76-349.14,6.77-535.95,30-67.77-44.25-136.64-63.26-208.28C108.3,768.14,273.83,542.69,421.14,506.1c174.58-43.36,286-64.81,360-116.36,91.17-63.48,169.2-254.87,516.47-273.33C1771.28,91.24,1710.32,311.52,1957,324.74c635.29,34.05,412.25,376.38,516.42,590.73,65.5,209.37,190.71,95.09,216.73,306.09,21.66,175.56-29.58,355.17-40.68,529.19Z" transform="translate(-132.99 -114.41)"/><polygon class="cls-2" points="596.58 732.43 548.71 1073.55 1347.34 1495.72 1556.98 865.07 923.44 567.39 596.58 732.43"/><path class="cls-3" d="M739.69,1685.78H335.61A72.35,72.35,0,0,1,408,1613.43H667.34a72.35,72.35,0,0,1,72.35,72.35Z" transform="translate(-132.99 -114.41)"/><rect class="cls-3" x="465.72" y="1011.32" width="28.92" height="615.56" transform="matrix(0.99, -0.14, 0.14, 0.99, -308.18, -36.72)"/><rect class="cls-3" x="262.91" y="823.83" width="615.51" height="28.92" transform="translate(-573.04 641.1) rotate(-51.07)"/><path class="cls-4" d="M473,1018.35a35.87,35.87,0,1,1-30.54-40.5A35.86,35.86,0,0,1,473,1018.35Z" transform="translate(-132.99 -114.41)"/><path class="cls-4" d="M860.12,588a68.71,68.71,0,1,1-54.24-80.62A68.71,68.71,0,0,1,860.12,588Z" transform="translate(-132.99 -114.41)"/><path class="cls-3" d="M1056.43,681.8l-326.86,165a253.52,253.52,0,0,1-11.16-25.46c-37.25-99.49-5.4-207,77.7-248.93,82-41.43,185.79-4.76,244.18,81.83A252.55,252.55,0,0,1,1056.43,681.8Z" transform="translate(-132.99 -114.41)"/><path class="cls-4" d="M1056.43,681.8l-326.86,165a253.52,253.52,0,0,1-11.16-25.46l321.88-167.1A252.55,252.55,0,0,1,1056.43,681.8Z" transform="translate(-132.99 -114.41)"/><path class="cls-5" d="M1434.75,1216.84c-98.19-15.45-248.41-128.62-179.63-279.08s118.43-101.63,53.58-255.84,25.11-302.64,140.22-291.6,159.89,93.85,289.15,45.84,264.3,55.54,234.87,173.53S1932.07,784,1990.62,834.88s282.78,74.74,222.08,235.38S2138.76,1284,2187.42,1349c183,244.61-108.16,344.94-233.16,357.12S1456.37,1690,1385,1561.58,1434.75,1216.84,1434.75,1216.84Z" transform="translate(-132.99 -114.41)"/><path class="cls-6" d="M1230.94,1280c13.7,34.24-55.91,138.94-86.9,134.61C1001.49,1340.17,872.42,1118,872.42,1118l42.21-59S1061.05,1167,1230.94,1280Z" transform="translate(-132.99 -114.41)"/><path class="cls-6" d="M1584.9,1199.53c-84.24,71.3-401.9,223.76-440.85,215.07l24.32-147.84s293-200.74,345.74-232.72C1605.33,978.46,1722.65,1083.37,1584.9,1199.53Z" transform="translate(-132.99 -114.41)"/><path class="cls-6" d="M836.15,966.75c-8.49-8.06-61.24-23.28-74.72-20.2-15.69,3.51-59.38,30.81-68.65,36.56s-2.32,14.44,12.75,15.27a99.17,99.17,0,0,0,54.75-17.14c22.7,6.77,39.07,12.69,41.14,14a27,27,0,0,1-7.82,51.56l-2.29,0a249.65,249.65,0,0,1,20,66.59c21.62,6.45,38.84,18.2,63.24,2.89l41.74-55.59C909.13,1043.65,850,979.7,836.15,966.75Z" transform="translate(-132.99 -114.41)"/><path class="cls-7" d="M635,1010.5l-7.67-1.33a4.5,4.5,0,0,1-3.71-4.67h0a4.48,4.48,0,0,1,4.22-4.23l7.71-.45a4.49,4.49,0,0,1,4.75,4.59l0,1.79A4.49,4.49,0,0,1,635,1010.5Z" transform="translate(-132.99 -114.41)"/><path class="cls-7" d="M1028.42,1030.85l-30.13.05a2.33,2.33,0,0,1-2.33-2.33l0-12.82a2.34,2.34,0,0,1,2.34-2.34l30.13,0a2.33,2.33,0,0,1,2.33,2.33l0,12.83A2.32,2.32,0,0,1,1028.42,1030.85Z" transform="translate(-132.99 -114.41)"/><path class="cls-7" d="M1012.78,1011.15l-.37,11.81-.46,11.58a3.77,3.77,0,0,1-4,3.52l-276.41-12.78c-8.31-.43-98.72-9.36-98-14.55l.37-6.12.23-5.11c.15-4,90.49-5.6,98.87-5.34l275.71,13.06a3.64,3.64,0,0,1,4,3.22A3.37,3.37,0,0,1,1012.78,1011.15Z" transform="translate(-132.99 -114.41)"/><path class="cls-6" d="M754.53,1014.19c-8.84-4.8-22.79-9-32.6-6.77-31.95,8.67,2,26.58,11.6,38,9.8,11.72,29.43,69.13,119.89,78.2,4,4.13-29-82.86-49.42-80C783.9,1046.5,763.07,1019.1,754.53,1014.19Z" transform="translate(-132.99 -114.41)"/><path class="cls-8" d="M1771.47,887.36l-6.31,176s-91.62,65.45-162.46,21.85c10.9-54.49,25.74-144.14,25.74-144.14Z" transform="translate(-132.99 -114.41)"/><path class="cls-9" d="M1601.54,1004.35s-119.61,9.55-297,156.43c17.26,12,108.64,146.51,108.64,146.51l127.08-37.85Z" transform="translate(-132.99 -114.41)"/><path class="cls-6" d="M1431.22,779.34c24.47,135.2,125.85,230,226.42,211.82S1819.9,848.6,1795.42,713.4s-125.85-230-226.42-211.82S1406.74,644.15,1431.22,779.34Z" transform="translate(-132.99 -114.41)"/><path class="cls-5" d="M1807.53,711.21c-102.85,5.35-206.46-33.75-272.36-96.58-18.78,90.78-104,164.71-104,164.71S1330.4,630.45,1444.66,519.6C1553.66,413.85,1860,417.16,1807.53,711.21Z" transform="translate(-132.99 -114.41)"/><path d="M1656,794.46a19.67,19.67,0,1,0-22.86-15.85A19.67,19.67,0,0,0,1656,794.46Z" transform="translate(-132.99 -114.41)"/><path d="M1513.92,818.36a19.66,19.66,0,1,0-22.85-15.85A19.66,19.66,0,0,0,1513.92,818.36Z" transform="translate(-132.99 -114.41)"/><path class="cls-8" d="M1575,801.45c-13.29,34.84-17.85,49.72-25.38,58.5,13.28,19.63,50.64,19.71,59.52,14.18-27.34-4.23-35.64-19-35.64-19Z" transform="translate(-132.99 -114.41)"/><path class="cls-6" d="M1771.64,737.22c-16.09,30.2-11,64.35,11.41,76.27s53.57-2.9,69.65-33.11,11-64.36-11.41-76.28S1787.72,707,1771.64,737.22Z" transform="translate(-132.99 -114.41)"/><path class="cls-8" d="M1800.29,791a6.39,6.39,0,0,0,2.31-.93,6.29,6.29,0,0,0,1.83-8.72c-6.32-9.67-7.94-18.08-4.83-25,4.81-10.67,19.68-16.39,30.93-18a6.3,6.3,0,0,0-1.83-12.46c-15.1,2.21-33.69,10-40.59,25.33-3.43,7.62-5.21,20.23,5.78,37A6.29,6.29,0,0,0,1800.29,791Z" transform="translate(-132.99 -114.41)"/><path class="cls-5" d="M1457.41,766.37a10.7,10.7,0,0,1,1.4-1.79c23.87-24.14,47.34-28.31,48.33-28.48a10,10,0,0,1,3.38,19.74c-.49.09-18.59,3.73-37.47,22.82a10,10,0,0,1-15.64-12.29Z" transform="translate(-132.99 -114.41)"/><path class="cls-5" d="M1633.07,712.77a10.08,10.08,0,0,1,2.22-.48c33.79-3.35,54.52,8.42,55.38,8.93a10,10,0,0,1-10,17.34c-.43-.24-16.69-9-43.41-6.34a10,10,0,0,1-4.19-19.45Z" transform="translate(-132.99 -114.41)"/><path class="cls-2" d="M1566.08,920c-3.29-3.29-1.84-9.21,2.35-9.55a290.63,290.63,0,0,0,87.4-19.35c3.94-1.46,7.75,3.29,6.16,7.66-4.89,13.42-16.42,34.69-41.4,40.22S1576.17,930.05,1566.08,920Z" transform="translate(-132.99 -114.41)"/><polygon class="cls-10" points="565.14 1253.99 526.56 1062.89 847.01 1216.26 617.92 1273.37 565.14 1253.99"/><polygon class="cls-11" points="576.92 1238.38 541.12 1069.59 557.99 1057.13 838.27 1194.19 576.92 1238.38"/><path class="cls-2" d="M704.73,1359.51c12.41-19.7,55.95-46.57,112.83-41.13s252.34-32.69,265.35-40.44c18.13,15.63,348.41,296.44,348.41,296.44l-13.72,24.89Z" transform="translate(-132.99 -114.41)"/><polygon class="cls-10" points="1303.62 1489.93 1295.25 1504.84 948.41 1537.35 565.14 1253.99 573.51 1239.09 928.72 1191.67 1303.62 1489.93"/><polygon class="cls-12" points="1288.35 1500.27 933.14 1547.68 558.25 1249.42 913.45 1202 1288.35 1500.27"/><path class="cls-10" d="M931.57,1389.1c-4.5-42.39,51.1-30.13,64.81,7.08,11.83,32.11,9.72,56.29,7.68,73.36C848.08,1449.19,871.43,1356.88,931.57,1389.1Z" transform="translate(-132.99 -114.41)"/><path class="cls-10" d="M1145.26,1449.05c-1.75-16.55,20-11.77,25.32,2.77a57.22,57.22,0,0,1,3,28.65C1112.66,1472.52,1121.77,1436.47,1145.26,1449.05Z" transform="translate(-132.99 -114.41)"/><path class="cls-10" d="M989.17,1516.94c-1.75-16.55,20-11.76,25.32,2.77a57.25,57.25,0,0,1,3,28.66C956.57,1540.42,965.68,1504.36,989.17,1516.94Z" transform="translate(-132.99 -114.41)"/><path class="cls-10" d="M895.73,1483.28c-1.75-16.55,20-11.77,25.32,2.77a57.22,57.22,0,0,1,3,28.65C863.13,1506.75,872.24,1470.7,895.73,1483.28Z" transform="translate(-132.99 -114.41)"/><path class="cls-10" d="M1058,1428.12c-1.75-16.56,20-11.77,25.32,2.77a57.22,57.22,0,0,1,3,28.65C1025.37,1451.59,1034.48,1415.54,1058,1428.12Z" transform="translate(-132.99 -114.41)"/><path class="cls-10" d="M1154.93,1527.76c-1.76-16.55,20-11.76,25.31,2.77a57.22,57.22,0,0,1,3,28.65C1122.32,1551.23,1131.44,1515.18,1154.93,1527.76Z" transform="translate(-132.99 -114.41)"/><path class="cls-10" d="M1225.14,1516.94c-1.76-16.55,20-11.76,25.31,2.77a57.25,57.25,0,0,1,3,28.66C1192.53,1540.42,1201.65,1504.36,1225.14,1516.94Z" transform="translate(-132.99 -114.41)"/><path class="cls-10" d="M1225.14,1585c-1.76-16.55,20-11.76,25.31,2.77a57.22,57.22,0,0,1,3,28.65C1192.53,1608.45,1201.65,1572.4,1225.14,1585Z" transform="translate(-132.99 -114.41)"/><path class="cls-10" d="M1300.49,1585c-1.76-16.55,20-11.76,25.32,2.77a57.46,57.46,0,0,1,3,28.65C1267.88,1608.45,1277,1572.4,1300.49,1585Z" transform="translate(-132.99 -114.41)"/><path class="cls-13" d="M1875.42,1631.9c-5.85-36.82-14.18-102-2.58-165,28-129.76,96-320.43,59.2-428.66-24.64-32.11-130.46-65.77-161.64-63.91-14.85,67.32-143.17,173.24-152.19,25.71-86,15.92-153.06,156.45-168.18,250.52-4.88,71.2,17.32,146.14,22.74,218.06,13.44,106.36-18.78,159-43,265.92l498.13-1.68C1898.92,1666.43,1877.85,1639.76,1875.42,1631.9Z" transform="translate(-132.99 -114.41)"/><path class="cls-6" d="M1634.2,1515.89c38.75,15.37,55.56,140.44,44.08,149.43-171.9,59.15-426.07-13.62-426.07-13.62l-8-75.57C1294.54,1573.35,1409.4,1567.49,1634.2,1515.89Z" transform="translate(-132.99 -114.41)"/><path class="cls-6" d="M1969,1231.51c-43,113.81-248.54,421.33-290.73,433.81L1593,1533.79s185.48-364.81,219.2-423.87C1870.38,1007.53,2039.59,1045.84,1969,1231.51Z" transform="translate(-132.99 -114.41)"/><path class="cls-9" d="M1897.82,1003.84c18.54.93,111.3-1.23,105.47,171.07,2.39,70.62-65.69,196.74-65.69,196.74s-131.27-38.43-223.72-112.38C1715.94,1222.84,1806.77,1012.52,1897.82,1003.84Z" transform="translate(-132.99 -114.41)"/><path class="cls-6" d="M1089.77,1632.7c26.74,3.66,105.27,7.89,162.44,19l-8-75.58c-42.13,2.24-101.5-74.13-184.91-86.57-28.45-4.24-41.43-8.6-43.95-5s-11.42,28.57,29.66,36.66c51.56,10.15,13.9,49.15-88.68,1.64-25.68-11.9-76.39-2.76-59.85,17.9C914.74,1563.57,968.07,1616.08,1089.77,1632.7Z" transform="translate(-132.99 -114.41)"/><path class="cls-14" d="M186.23,1765.91H2647.09a40,40,0,0,0,40-40v-1.32a40,40,0,0,0-40-40H186.23a40,40,0,0,0-40,40v1.32A40,40,0,0,0,186.23,1765.91Z" transform="translate(-132.99 -114.41)"/><path class="cls-15" d="M2449.13,1597H2051.9c-7,0-12.61,4.86-12.61,10.86v66c0,6,5.65,10.86,12.61,10.86h397.23Z" transform="translate(-132.99 -114.41)"/><path class="cls-9" d="M2462.78,1614.12v53.3a3.62,3.62,0,0,0,3.69,3.53h140.86a7,7,0,0,1,7.17,6.86h0a7,7,0,0,1-7.17,6.87H2451.4a7.72,7.72,0,0,1-7.72-7.72v-72.39a7.72,7.72,0,0,1,7.72-7.72h155.93a7,7,0,0,1,7.17,6.87v0a7,7,0,0,1-7.17,6.87h-140.9A3.59,3.59,0,0,0,2462.78,1614.12Z" transform="translate(-132.99 -114.41)"/><path class="cls-2" d="M2600.82,1671H2466.61a7,7,0,0,1-7-7V1617.6a7,7,0,0,1,7-7h134.21Z" transform="translate(-132.99 -114.41)"/><rect class="cls-1" x="2339.17" y="1506.51" width="104.35" height="5.43"/><rect class="cls-1" x="2396.65" y="1520.18" width="65.18" height="5.43"/><rect class="cls-1" x="2332.05" y="1546.15" width="84.28" height="5.43"/><rect class="cls-1" x="2350.72" y="1533.74" width="39.51" height="5.43"/><path class="cls-9" d="M2388.51,1665.82H2087.1a10.16,10.16,0,0,1-10.16-10.16v-29.57a10.16,10.16,0,0,1,10.16-10.16h301.41a10.16,10.16,0,0,1,10.16,10.16v29.57A10.16,10.16,0,0,1,2388.51,1665.82Z" transform="translate(-132.99 -114.41)"/><path class="cls-12" d="M2225.57,1433.41h408.64a12,12,0,0,1,12,12V1507a12,12,0,0,1-12,12H2225.57v-85.63Z" transform="translate(-132.99 -114.41)"/><path class="cls-10" d="M2212.24,1450.1v52a3.54,3.54,0,0,1-3.6,3.45H2071.13a6.86,6.86,0,0,0-7,6.7h0a6.86,6.86,0,0,0,7,6.7h152.22a7.53,7.53,0,0,0,7.53-7.53v-70.68a7.53,7.53,0,0,0-7.53-7.53H2071.13a6.86,6.86,0,0,0-7,6.7v0a6.86,6.86,0,0,0,7,6.7h137.55A3.5,3.5,0,0,1,2212.24,1450.1Z" transform="translate(-132.99 -114.41)"/><path class="cls-2" d="M2077.48,1505.59h133.33a6.88,6.88,0,0,0,6.88-6.88v-45.15a6.88,6.88,0,0,0-6.88-6.88H2077.48Z" transform="translate(-132.99 -114.41)"/><path class="cls-10" d="M2323.79,1433.41s16.35,36.8.27,85.63c7.33,0,21.28,0,21.28,0s17.38-37.73,0-85.58Z" transform="translate(-132.99 -114.41)"/><path class="cls-10" d="M2287.51,1433.41s16.35,36.8.27,85.63c7.33,0,21.28,0,21.28,0s17.37-37.73,0-85.58Z" transform="translate(-132.99 -114.41)"/><rect class="cls-1" x="1996.9" y="1340.72" width="73.56" height="5.42"/><rect class="cls-1" x="1981.99" y="1377.69" width="73.56" height="5.42"/><rect class="cls-1" x="2008.49" y="1366.45" width="73.56" height="5.41"/><path class="cls-16" d="M2415.33,1345.75H2009.42c-7,0-12.61,4.86-12.61,10.85v66c0,6,5.64,10.86,12.61,10.86h405.91Z" transform="translate(-132.99 -114.41)"/><path class="cls-17" d="M2429,1362.85v53.3a3.62,3.62,0,0,0,3.69,3.53h140.86a7,7,0,0,1,7.17,6.87h0a7,7,0,0,1-7.17,6.86H2417.6a7.72,7.72,0,0,1-7.72-7.72V1353.3a7.72,7.72,0,0,1,7.72-7.72h155.93a7,7,0,0,1,7.17,6.87v0a7,7,0,0,1-7.17,6.87h-140.9A3.59,3.59,0,0,0,2429,1362.85Z" transform="translate(-132.99 -114.41)"/><path class="cls-2" d="M2567,1419.68H2432.81a7,7,0,0,1-7-7v-46.36a7,7,0,0,1,7-7H2567Z" transform="translate(-132.99 -114.41)"/><path class="cls-17" d="M2081.42,1345.75s-16.36,37.69-.28,87.71c-7.33,0-21.28,0-21.28,0s-17.37-38.65,0-87.66Z" transform="translate(-132.99 -114.41)"/><path class="cls-17" d="M2332.52,1345.75s-16.35,37.69-.27,87.71c-7.34,0-21.29,0-21.29,0s-17.37-38.65,0-87.66Z" transform="translate(-132.99 -114.41)"/><rect class="cls-1" x="2305.37" y="1255.24" width="104.35" height="5.43"/><rect class="cls-1" x="2362.85" y="1268.91" width="65.18" height="5.43"/><rect class="cls-1" x="2298.25" y="1294.87" width="84.28" height="5.43"/><rect class="cls-1" x="2316.91" y="1282.47" width="39.51" height="5.43"/><polygon class="cls-13" points="2356.24 1331.04 2333.4 1320.45 2312.75 1331.04 2312.75 1275.19 2356.24 1275.19 2356.24 1331.04"/><path class="cls-4" d="M2005.41,1596.42l274.69,2,.42-80.61-274.7-2a11.31,11.31,0,0,0-11.37,11.26l-.3,58A11.31,11.31,0,0,0,2005.41,1596.42Z" transform="translate(-132.99 -114.41)"/><path class="cls-2" d="M2273.48,1584l299.65-.31-.11-50L2277,1530.89c-1.46,0-6.17,4.15-6.18,5.26h0l.14,45.6a2.46,2.46,0,0,0,2.55,2.22Z" transform="translate(-132.99 -114.41)"/><path class="cls-3" d="M2580.38,1599.15a8,8,0,0,0,1.92-15.81h-1.84l-297.07.32a86.28,86.28,0,0,1-9.9-.42,25.92,25.92,0,0,1-1.41-10.67l-.23-28a45.45,45.45,0,0,1,.79-9.92,28.1,28.1,0,0,1,11-1l297.08-.32a8,8,0,0,0,1.91-15.8h-1.83l-319.44-.16a8.93,8.93,0,0,0-8.85,8.78l0,63.62a8.94,8.94,0,0,0,8.76,8.87Z" transform="translate(-132.99 -114.41)"/><rect class="cls-1" x="2156" y="1449.3" width="160.43" height="4.88"/><rect class="cls-1" x="2183.79" y="1435.51" width="160.43" height="4.88"/><rect class="cls-1" x="2163.16" y="1425.24" width="68.87" height="4.88"/><rect class="cls-1" x="2264.01" y="1458.28" width="160.43" height="4.88"/><path class="cls-10" d="M421.14,1410.64c0-9.18-47.25-16.62-105.54-16.62s-105.55,7.44-105.55,16.62,47.25,16.62,105.55,16.62S421.14,1419.81,421.14,1410.64Z" transform="translate(-132.99 -114.41)"/><polygon class="cls-18" points="153.83 1522.66 210.06 1088.65 249.72 1093.83 193.48 1527.85 153.83 1522.66"/><path class="cls-13" d="M284.05,1658.22l2.77-21.15,39.65,5.19-2.77,21.15a13.62,13.62,0,0,1-15.28,11.75l-12.62-1.65A13.64,13.64,0,0,1,284.05,1658.22Z" transform="translate(-132.99 -114.41)"/><rect class="cls-19" x="298.14" y="1611.23" width="19.08" height="40.03" transform="translate(-1482.68 1610.35) rotate(-82.55)"/><path class="cls-20" d="M285.91,1636.85l.11-.84a1.18,1.18,0,0,1,1.33-1l39.38,5.15a1.19,1.19,0,0,1,1,1.32l-.11.84a1.2,1.2,0,0,1-1.33,1l-39.38-5.15A1.2,1.2,0,0,1,285.91,1636.85Z" transform="translate(-132.99 -114.41)"/><path class="cls-20" d="M287,1627.73l.11-.84a1.18,1.18,0,0,1,1.33-1l39.37,5.15a1.18,1.18,0,0,1,1,1.33l-.11.84a1.19,1.19,0,0,1-1.33,1L288,1629.06A1.18,1.18,0,0,1,287,1627.73Z" transform="translate(-132.99 -114.41)"/><path class="cls-20" d="M288.32,1618.22l.11-.84a1.19,1.19,0,0,1,1.33-1l39.37,5.15a1.18,1.18,0,0,1,1,1.33l-.11.84a1.17,1.17,0,0,1-1.32,1l-39.38-5.15A1.18,1.18,0,0,1,288.32,1618.22Z" transform="translate(-132.99 -114.41)"/><path class="cls-19" d="M362.18,1211c10.95,1.43,20.13.21,20.52-2.74v0h0a1.74,1.74,0,0,0-.17-.9l-6.62-33.53-4.71-23.89a.86.86,0,0,0-1.62-.22l-10.78,21.7-15.33,30.83a1.72,1.72,0,0,0-.4.81l0,0h0s0,0,0,0C342.67,1206,351.23,1209.59,362.18,1211Z" transform="translate(-132.99 -114.41)"/><path class="cls-13" d="M367.47,1173.82a28.5,28.5,0,0,1-8.67-2.43l10.78-21.7a.86.86,0,0,1,1.62.22l4.72,23.89A29.7,29.7,0,0,1,367.47,1173.82Z" transform="translate(-132.99 -114.41)"/><polygon class="cls-16" points="166.45 1144.17 193.8 1487.59 153.95 1490.91 126.6 1147.5 166.45 1144.17"/><path class="cls-13" d="M297.67,1237.33l1.77,21.26-39.85,3.32-1.77-21.26a13.63,13.63,0,0,1,12.45-14.72l12.68-1.06A13.64,13.64,0,0,1,297.67,1237.33Z" transform="translate(-132.99 -114.41)"/><rect class="cls-19" x="260.12" y="1259.09" width="40.03" height="19.08" transform="translate(-237.57 -86.7) rotate(-4.77)"/><path class="cls-20" d="M300.37,1258.61l.07.85a1.19,1.19,0,0,1-1.08,1.28l-39.57,3.3a1.19,1.19,0,0,1-1.28-1.08l-.07-.85a1.19,1.19,0,0,1,1.08-1.28l39.57-3.3A1.18,1.18,0,0,1,300.37,1258.61Z" transform="translate(-132.99 -114.41)"/><path class="cls-20" d="M301.26,1267.75l.07.84a1.18,1.18,0,0,1-1.08,1.28l-39.57,3.3a1.18,1.18,0,0,1-1.28-1.08l-.07-.84a1.18,1.18,0,0,1,1.08-1.28l39.57-3.3A1.17,1.17,0,0,1,301.26,1267.75Z" transform="translate(-132.99 -114.41)"/><path class="cls-20" d="M302,1277.32l.07.85a1.19,1.19,0,0,1-1.08,1.28l-39.57,3.3a1.18,1.18,0,0,1-1.28-1.08l-.07-.85a1.18,1.18,0,0,1,1.08-1.27l39.57-3.31A1.19,1.19,0,0,1,302,1277.32Z" transform="translate(-132.99 -114.41)"/><path class="cls-19" d="M306.41,1598.26c-11,.92-19.72,4.06-19.47,7v0h0v0a1.67,1.67,0,0,0,.37.83l13.56,31.37,9.66,22.36a.86.86,0,0,0,1.63-.13l5.95-23.49,8.45-33.37a1.83,1.83,0,0,0,.22-.89v0h0v0C326.54,1599,317.42,1597.34,306.41,1598.26Z" transform="translate(-132.99 -114.41)"/><path class="cls-13" d="M309.12,1635.74a28.86,28.86,0,0,1,9,.54l-5.95,23.49a.86.86,0,0,1-1.63.13l-9.66-22.36A29.93,29.93,0,0,1,309.12,1635.74Z" transform="translate(-132.99 -114.41)"/><polygon class="cls-17" points="171.56 1525.19 63.97 1157.54 102.01 1146.33 209.61 1513.99 171.56 1525.19"/><path class="cls-13" d="M310.53,1659.9l-6-20.3,38.05-11.2,6,20.29a13.52,13.52,0,0,1-9.15,16.79l-12.1,3.57A13.53,13.53,0,0,1,310.53,1659.9Z" transform="translate(-132.99 -114.41)"/><rect class="cls-19" x="301.45" y="1616.5" width="39.7" height="18.92" transform="translate(-579.41 42.68) rotate(-16.42)"/><path class="cls-20" d="M303.64,1639.77l-.23-.81a1.17,1.17,0,0,1,.79-1.46L342,1626.37a1.18,1.18,0,0,1,1.46.79l.24.81a1.18,1.18,0,0,1-.8,1.46l-37.78,11.13A1.18,1.18,0,0,1,303.64,1639.77Z" transform="translate(-132.99 -114.41)"/><path class="cls-20" d="M301,1631.07l-.24-.81a1.19,1.19,0,0,1,.8-1.46l37.78-11.13a1.18,1.18,0,0,1,1.46.8l.23.81a1.16,1.16,0,0,1-.79,1.45l-37.78,11.13A1.17,1.17,0,0,1,301,1631.07Z" transform="translate(-132.99 -114.41)"/><path class="cls-20" d="M298.35,1621.91l-.23-.81a1.17,1.17,0,0,1,.79-1.46l37.78-11.13a1.18,1.18,0,0,1,1.46.8l.24.8a1.18,1.18,0,0,1-.8,1.46l-37.78,11.13A1.17,1.17,0,0,1,298.35,1621.91Z" transform="translate(-132.99 -114.41)"/><path class="cls-19" d="M217.5,1271.49c10.5-3.09,18.35-7.89,17.51-10.72v0h0v0a1.73,1.73,0,0,0-.52-.74L215,1232.22l-13.86-19.78a.86.86,0,0,0-1.56.45l-1.07,24L197,1271a1.63,1.63,0,0,0,0,.9v0h0a.08.08,0,0,1,0,0C197.8,1274.81,207,1274.59,217.5,1271.49Z" transform="translate(-132.99 -114.41)"/><path class="cls-16" d="M207.37,1235.63a28.68,28.68,0,0,1-8.84,1.27l1.07-24a.86.86,0,0,1,1.56-.45L215,1232.22A29.14,29.14,0,0,1,207.37,1235.63Z" transform="translate(-132.99 -114.41)"/><polygon class="cls-17" points="290.92 1181.53 231.02 1479.46 192.2 1471.33 252.1 1173.4 290.92 1181.53"/><path class="cls-13" d="M428.24,1275.22l-4.33,20.72-38.82-8.13,4.33-20.71a13.53,13.53,0,0,1,16-10.46l12.35,2.58A13.52,13.52,0,0,1,428.24,1275.22Z" transform="translate(-132.99 -114.41)"/><rect class="cls-19" x="393.3" y="1280.29" width="18.92" height="39.7" transform="translate(-1085.3 1313.69) rotate(-78.18)"/><path class="cls-20" d="M424.79,1296.22l-.17.83a1.19,1.19,0,0,1-1.39.91l-38.56-8.07a1.16,1.16,0,0,1-.9-1.39l.17-.82a1.17,1.17,0,0,1,1.39-.91l38.55,8.06A1.19,1.19,0,0,1,424.79,1296.22Z" transform="translate(-132.99 -114.41)"/><path class="cls-20" d="M423.05,1305.16l-.17.82a1.18,1.18,0,0,1-1.4.91l-38.55-8.06a1.19,1.19,0,0,1-.91-1.4l.18-.82a1.18,1.18,0,0,1,1.39-.91l38.55,8.07A1.18,1.18,0,0,1,423.05,1305.16Z" transform="translate(-132.99 -114.41)"/><path class="cls-20" d="M421,1314.46l-.17.82a1.17,1.17,0,0,1-1.39.91l-38.55-8.06a1.17,1.17,0,0,1-.91-1.39l.17-.82a1.17,1.17,0,0,1,1.39-.91l38.55,8.06A1.17,1.17,0,0,1,421,1314.46Z" transform="translate(-132.99 -114.41)"/><path class="cls-19" d="M345.7,1584.55c-10.72-2.25-19.9-1.73-20.5,1.16a.08.08,0,0,1,0,0h0v0a1.68,1.68,0,0,0,.11.9l4,33.66,2.85,24a.86.86,0,0,0,1.59.33l12.3-20.64,17.49-29.33a1.76,1.76,0,0,0,.46-.78v0h0s0,0,0,0C364.62,1590.94,356.42,1586.79,345.7,1584.55Z" transform="translate(-132.99 -114.41)"/><path class="cls-16" d="M337.66,1620.94a28.47,28.47,0,0,1,8.39,3.06l-12.3,20.64a.86.86,0,0,1-1.59-.33l-2.85-24A29.4,29.4,0,0,1,337.66,1620.94Z" transform="translate(-132.99 -114.41)"/><path class="cls-12" d="M421.07,1411.23l-6,50.59-2.68,22.51h0l-16.84,141.31-2.6,21.8-4.43,37.21H237.85L234,1647.14l-2.2-21.73-14.26-140.58-2.25-22.19-5.23-51.51c1.64,8.95,48.24,16.13,105.5,16.13C372.62,1427.26,419.09,1420.14,421.07,1411.23Z" transform="translate(-132.99 -114.41)"/><path class="cls-21" d="M210.05,1410.64l0,.49A2,2,0,0,1,210.05,1410.64Z" transform="translate(-132.99 -114.41)"/><path class="cls-21" d="M421.14,1410.64a2.88,2.88,0,0,1-.07.59Z" transform="translate(-132.99 -114.41)"/><path class="cls-10" d="M395.52,1625.65l-2.6,21.8c-19.32,3.39-47.38,5.53-78.6,5.53-32.14,0-60.92-2.26-80.28-5.84l-2.2-21.73c19.33,3.8,49.1,6.24,82.46,6.24C347,1631.65,376.17,1629.31,395.52,1625.65Z" transform="translate(-132.99 -114.41)"/><path class="cls-10" d="M415,1461.82l-2.68,22.51h0c-15.55,6.13-53.59,10.45-98,10.45-43.27,0-80.45-4.1-96.74-10l-2.25-22.2c14.92,6.33,53.6,10.84,99,10.84C361.59,1473.47,401.61,1468.57,415,1461.82Z" transform="translate(-132.99 -114.41)"/><path class="cls-22" d="M2422.31,1300.53h-39.77a11.49,11.49,0,1,1,0-23h28.29v-74.7h-28.29a11.48,11.48,0,1,1,0-23h39.77a11.48,11.48,0,0,1,11.48,11.48V1289A11.48,11.48,0,0,1,2422.31,1300.53Z" transform="translate(-132.99 -114.41)"/><path class="cls-3" d="M2382.53,1145.9v188.62a11.22,11.22,0,0,1-11.22,11.22H2244.46a11.22,11.22,0,0,1-11.22-11.22V1145.9a11.24,11.24,0,0,1,11.22-11.23h126.85A11.22,11.22,0,0,1,2382.53,1145.9Z" transform="translate(-132.99 -114.41)"/><path class="cls-2" d="M2299.29,1114.58s-56.23-23.89-38.83-67.15,80.68-37.55,44.69-100.2c43.4,25.06,49.92,80.88,16.21,94.54S2285.93,1090.05,2299.29,1114.58Z" transform="translate(-132.99 -114.41)"/><path class="cls-2" d="M2352.14,1114.58s-40-17-27.62-47.75,57.37-26.7,31.78-71.26c30.86,17.83,35.5,57.52,11.53,67.24S2342.63,1097.14,2352.14,1114.58Z" transform="translate(-132.99 -114.41)"/><path class="cls-22" d="M2307.29,1222.41c20.91-24.24,40.16-1.44,35.65,15.61-3.6,19-35.68,44.41-36.26,41.92C2238.12,1229.35,2288.52,1193.75,2307.29,1222.41Z" transform="translate(-132.99 -114.41)"/><path class="cls-22" d="M2382.53,1328.85v5.67a11.22,11.22,0,0,1-11.22,11.22H2244.46a11.22,11.22,0,0,1-11.22-11.22v-5.67Z" transform="translate(-132.99 -114.41)"/><path class="cls-2" d="M2099.43,627.5a35.31,35.31,0,1,1,35.3-35.3A35.35,35.35,0,0,1,2099.43,627.5Zm0-60.89A25.59,25.59,0,1,0,2125,592.2,25.61,25.61,0,0,0,2099.43,566.61Z" transform="translate(-132.99 -114.41)"/><path class="cls-2" d="M610.39,678.85a35.31,35.31,0,1,1,35.31-35.31A35.35,35.35,0,0,1,610.39,678.85Zm0-60.89A25.58,25.58,0,1,0,636,643.54,25.62,25.62,0,0,0,610.39,618Z" transform="translate(-132.99 -114.41)"/><path class="cls-1" d="M1072.74,830.08a35.31,35.31,0,1,1,35.3-35.3A35.34,35.34,0,0,1,1072.74,830.08Zm0-60.88a25.58,25.58,0,1,0,25.58,25.58A25.6,25.6,0,0,0,1072.74,769.2Z" transform="translate(-132.99 -114.41)"/><path class="cls-2" d="M235.86,889.44a23.74,23.74,0,1,1,23.73-23.73A23.77,23.77,0,0,1,235.86,889.44Zm0-40.93a17.2,17.2,0,1,0,17.19,17.2A17.21,17.21,0,0,0,235.86,848.51Z" transform="translate(-132.99 -114.41)"/><path class="cls-2" d="M1258.56,271a35.3,35.3,0,1,1,38.85-31.37A35.34,35.34,0,0,1,1258.56,271Zm6.45-60.54a25.58,25.58,0,1,0,22.73,28.14A25.61,25.61,0,0,0,1265,210.44Z" transform="translate(-132.99 -114.41)"/><path class="cls-2" d="M2186.54,535.53a19.88,19.88,0,1,1-19.87-19.88A19.87,19.87,0,0,1,2186.54,535.53Z" transform="translate(-132.99 -114.41)"/><path class="cls-2" d="M1215.83,305.24a19.87,19.87,0,1,1-17.65-21.86A19.87,19.87,0,0,1,1215.83,305.24Z" transform="translate(-132.99 -114.41)"/><path class="cls-2" d="M1194.07,592.2a19.87,19.87,0,1,1-19.87-19.88A19.87,19.87,0,0,1,1194.07,592.2Z" transform="translate(-132.99 -114.41)"/><path class="cls-1" d="M1092.61,877.28a19.87,19.87,0,1,1-19.87-19.87A19.87,19.87,0,0,1,1092.61,877.28Z" transform="translate(-132.99 -114.41)"/><path class="cls-2" d="M2550.09,1155.82a19.87,19.87,0,1,1-19.87-19.87A19.87,19.87,0,0,1,2550.09,1155.82Z" transform="translate(-132.99 -114.41)"/><path class="cls-2" d="M610.39,1362.35a19.87,19.87,0,1,1-19.87-19.87A19.87,19.87,0,0,1,610.39,1362.35Z" transform="translate(-132.99 -114.41)"/><circle class="cls-2" cx="160.21" cy="631.95" r="49.7"/></svg>