<svg id="Layer_1" data-name="Layer 1" xmlns="http://www.w3.org/2000/svg" xmlns:xlink="http://www.w3.org/1999/xlink" viewBox="0 0 1512.72 1146.89"><defs><style>.cls-1,.cls-13,.cls-15,.cls-16,.cls-2,.cls-6,.cls-7,.cls-8{fill:none;}.cls-2{stroke:#afc4fa;stroke-width:5.44px;stroke-dasharray:27.58 41.37;}.cls-13,.cls-15,.cls-2,.cls-6,.cls-7,.cls-8{stroke-linecap:round;stroke-linejoin:round;}.cls-3{fill:#afc4fa;}.cls-12,.cls-4,.cls-9{fill:#00184d;}.cls-5{fill:#fff;}.cls-15,.cls-16,.cls-6,.cls-7{stroke:#fff;}.cls-6{stroke-width:2.72px;}.cls-7{stroke-width:2.72px;}.cls-13,.cls-8{stroke:#00184d;}.cls-8{stroke-width:1.5px;}.cls-11,.cls-12,.cls-9{isolation:isolate;}.cls-9{font-size:125.09px;}.cls-12,.cls-9{font-family:ArialMT, Arial;}.cls-10{fill:#fd3741;}.cls-12{font-size:47.02px;}.cls-13,.cls-15,.cls-16{stroke-width:1.36px;}.cls-14{fill:#ffe6cc;}.cls-17{fill:#2149a2;}.cls-18{fill:#f27455;}.cls-19{fill:#ffd500;}.cls-20{clip-path:url(#clip-path);}</style><clipPath id="clip-path" transform="translate(-94.01 -139.31)"><polygon class="cls-1" points="821.45 461.5 821.48 496.18 875.15 495.31 873.43 461.46 821.45 461.5"/></clipPath></defs><g id="OBJECTS"><path class="cls-2" d="M378.35,1224.58a594.77,594.77,0,0,1-54.84-38.94c-131.19-104.77-209-261.35-225.19-452.84C88.15,612,127,502.83,213.75,408.41,281.19,335,377.24,272.88,493.57,227" transform="translate(-94.01 -139.31)"/><path class="cls-2" d="M789.67,152.63A1335,1335,0,0,1,957.51,142c166,0,318.92,32.63,430.5,91.88,131.77,70,205.9,174.58,214.36,302.44,13,195.93-51,375.16-185,518.36-62.87,67.17-140.62,125-227.75,169.87" transform="translate(-94.01 -139.31)"/><path class="cls-3" d="M1551.56,541.72c53.9,813.91-1328.7,1062.79-1402.47,187.69-51.9-615.66,1366-737.67,1402.47-187.69" transform="translate(-94.01 -139.31)"/><polygon class="cls-4" points="728.69 369.34 728.61 369.2 728.66 369.17 728.69 369.34"/><path class="cls-5" d="M1466.71,678a11,11,0,1,0,11-11,11,11,0,0,0-11,11" transform="translate(-94.01 -139.31)"/><path class="cls-5" d="M667.34,889.91a11,11,0,1,0,11-11,11,11,0,0,0-11,11" transform="translate(-94.01 -139.31)"/><path class="cls-5" d="M989.55,337.56a11,11,0,1,0,11-11,11,11,0,0,0-11,11" transform="translate(-94.01 -139.31)"/><path class="cls-5" d="M853.18,258.64a11,11,0,1,0,11-11,11,11,0,0,0-11,11" transform="translate(-94.01 -139.31)"/><path class="cls-5" d="M264,812a11,11,0,1,0,11-11,11,11,0,0,0-11,11" transform="translate(-94.01 -139.31)"/><path class="cls-5" d="M207.86,678a11,11,0,1,0,11-11,11,11,0,0,0-11,11" transform="translate(-94.01 -139.31)"/><path class="cls-6" d="M1462.44,542.85a15.25,15.25,0,1,0,15.25-15.25A15.25,15.25,0,0,0,1462.44,542.85Z" transform="translate(-94.01 -139.31)"/><circle class="cls-7" cx="1141.19" cy="258.6" r="15.25" transform="translate(-122.93 113.77) rotate(-12.5)"/><path class="cls-6" d="M259.68,551.76a15.25,15.25,0,1,0,15.25-15.25A15.25,15.25,0,0,0,259.68,551.76Z" transform="translate(-94.01 -139.31)"/><path class="cls-6" d="M633.23,436.75a15.25,15.25,0,1,0,15.25-15.25A15.24,15.24,0,0,0,633.23,436.75Z" transform="translate(-94.01 -139.31)"/><path class="cls-6" d="M630.72,735.08A15.25,15.25,0,1,0,646,719.83,15.25,15.25,0,0,0,630.72,735.08Z" transform="translate(-94.01 -139.31)"/><path class="cls-8" d="M648.48,161a105.19,105.19,0,0,1,75.16,178.79q1.1,2.44,2.34,4.84a104.57,104.57,0,0,0,21,28,105.63,105.63,0,0,1-48.46-13.91A105.21,105.21,0,1,1,648.48,161Z" transform="translate(-94.01 -139.31)"/><text class="cls-9" transform="translate(477.98 164.82)">Hi!</text><rect class="cls-10" x="937.82" y="319.72" width="377.07" height="66.73"/><rect class="cls-5" x="946.11" y="328.01" width="360.48" height="50.14"/><g class="cls-11"><text class="cls-12" transform="translate(974.05 368.26)">TE</text><text class="cls-12" transform="translate(1038.65 368.26)">L</text><text class="cls-12" transform="translate(1069.25 368.26)">E</text><text class="cls-12" transform="translate(1101.55 368.26)">P</text><text class="cls-12" transform="translate(1130.98 368.26)">HON</text><text class="cls-12" transform="translate(1242.32 368.26)">E</text></g><path class="cls-10" d="M1220.37,354.16c-75.87,0-146.1,14.13-203.37,38.14V459h406.73V392.3c-57.27-24-127.5-38.14-203.36-38.14" transform="translate(-94.01 -139.31)"/><line class="cls-13" x1="1329.71" y1="252.99" x2="922.99" y2="252.99"/><line class="cls-13" x1="922.99" y1="319.72" x2="1329.71" y2="319.72"/><rect class="cls-10" x="922.99" y="386.45" width="406.73" height="759.76"/><polyline class="cls-13" points="942.35 1146.21 942.35 405.81 1310.36 405.81 1310.36 1146.21"/><line class="cls-13" x1="937.82" y1="386.45" x2="1314.89" y2="386.45"/><rect class="cls-3" x="1189.49" y="994.18" width="101.51" height="101.51"/><polygon class="cls-5" points="1281.63 994.38 1189.48 1088 1189.48 1059.15 1253.23 994.38 1281.63 994.38"/><polygon class="cls-5" points="1291.01 1002.43 1291.01 1031.25 1227.76 1095.5 1199.39 1095.5 1291.01 1002.43"/><polyline class="cls-13" points="1189.5 1095.69 1189.5 994.18 1291.01 994.18 1291.01 1095.69"/><rect class="cls-3" x="1075.61" y="994.18" width="101.51" height="101.51"/><polygon class="cls-5" points="1167.74 994.38 1075.59 1088 1075.59 1059.15 1139.34 994.38 1167.74 994.38"/><polygon class="cls-5" points="1177.12 1002.43 1177.12 1031.25 1113.87 1095.5 1085.5 1095.5 1177.12 1002.43"/><polyline class="cls-13" points="1075.61 1095.69 1075.61 994.18 1177.12 994.18 1177.12 1095.69"/><rect class="cls-3" x="961.72" y="994.18" width="101.51" height="101.51"/><polygon class="cls-5" points="1053.86 994.38 961.7 1088 961.7 1059.15 1025.45 994.38 1053.86 994.38"/><polygon class="cls-5" points="1063.23 1002.43 1063.23 1031.25 999.98 1095.5 971.61 1095.5 1063.23 1002.43"/><polyline class="cls-13" points="961.72 1095.69 961.72 994.18 1063.23 994.18 1063.23 1095.69"/><rect class="cls-3" x="1189.49" y="766.42" width="101.51" height="101.51"/><polygon class="cls-5" points="1281.63 766.62 1189.48 860.24 1189.48 831.39 1253.23 766.62 1281.63 766.62"/><polygon class="cls-5" points="1291.01 774.67 1291.01 803.49 1227.76 867.73 1199.39 867.73 1291.01 774.67"/><polyline class="cls-13" points="1189.5 867.93 1189.5 766.42 1291.01 766.42 1291.01 867.93"/><rect class="cls-3" x="1075.61" y="766.42" width="101.51" height="101.51"/><polygon class="cls-5" points="1167.74 766.62 1075.59 860.24 1075.59 831.39 1139.34 766.62 1167.74 766.62"/><polygon class="cls-5" points="1177.12 774.67 1177.12 803.49 1113.87 867.73 1085.5 867.73 1177.12 774.67"/><polyline class="cls-13" points="1075.61 867.93 1075.61 766.42 1177.12 766.42 1177.12 867.93"/><rect class="cls-3" x="961.72" y="766.42" width="101.51" height="101.51"/><polygon class="cls-5" points="1053.86 766.62 961.7 860.24 961.7 831.39 1025.45 766.62 1053.86 766.62"/><polygon class="cls-5" points="1063.23 774.67 1063.23 803.49 999.98 867.73 971.61 867.73 1063.23 774.67"/><polyline class="cls-13" points="961.72 867.93 961.72 766.42 1063.23 766.42 1063.23 867.93"/><rect class="cls-3" x="1189.49" y="652.54" width="101.51" height="101.51"/><polygon class="cls-5" points="1281.63 652.74 1189.48 746.36 1189.48 717.51 1253.23 652.74 1281.63 652.74"/><polygon class="cls-5" points="1291.01 660.79 1291.01 689.61 1227.76 753.85 1199.39 753.85 1291.01 660.79"/><polyline class="cls-13" points="1189.5 754.05 1189.5 652.54 1291.01 652.54 1291.01 754.05"/><rect class="cls-3" x="1075.61" y="652.54" width="101.51" height="101.51"/><polygon class="cls-5" points="1167.74 652.74 1075.59 746.36 1075.59 717.51 1139.34 652.74 1167.74 652.74"/><polygon class="cls-5" points="1177.12 660.79 1177.12 689.61 1113.87 753.85 1085.5 753.85 1177.12 660.79"/><polyline class="cls-13" points="1075.61 754.05 1075.61 652.54 1177.12 652.54 1177.12 754.05"/><rect class="cls-3" x="961.72" y="652.54" width="101.51" height="101.51"/><polygon class="cls-5" points="1053.86 652.74 961.7 746.36 961.7 717.51 1025.45 652.74 1053.86 652.74"/><polygon class="cls-5" points="1063.23 660.79 1063.23 689.61 999.98 753.85 971.61 753.85 1063.23 660.79"/><polyline class="cls-13" points="961.72 754.05 961.72 652.54 1063.23 652.54 1063.23 754.05"/><rect class="cls-3" x="1189.49" y="538.66" width="101.51" height="101.51"/><polygon class="cls-5" points="1281.63 538.86 1189.48 632.47 1189.48 603.63 1253.23 538.86 1281.63 538.86"/><polygon class="cls-5" points="1291.01 546.9 1291.01 575.72 1227.76 639.97 1199.39 639.97 1291.01 546.9"/><polyline class="cls-13" points="1189.5 640.16 1189.5 538.66 1291.01 538.66 1291.01 640.16"/><rect class="cls-3" x="1075.61" y="538.66" width="101.51" height="101.51"/><polygon class="cls-5" points="1167.74 538.86 1075.59 632.47 1075.59 603.63 1139.34 538.86 1167.74 538.86"/><polygon class="cls-5" points="1177.12 546.9 1177.12 575.72 1113.87 639.97 1085.5 639.97 1177.12 546.9"/><polyline class="cls-13" points="1075.61 640.16 1075.61 538.66 1177.12 538.66 1177.12 640.16"/><rect class="cls-3" x="961.72" y="538.66" width="101.51" height="101.51"/><polygon class="cls-5" points="1053.86 538.86 961.7 632.47 961.7 603.63 1025.45 538.86 1053.86 538.86"/><polygon class="cls-5" points="1063.23 546.9 1063.23 575.72 999.98 639.97 971.61 639.97 1063.23 546.9"/><polyline class="cls-13" points="961.72 640.16 961.72 538.66 1063.23 538.66 1063.23 640.16"/><rect class="cls-3" x="1189.49" y="424.77" width="101.51" height="101.51"/><polygon class="cls-5" points="1281.63 424.97 1189.48 518.59 1189.48 489.74 1253.23 424.97 1281.63 424.97"/><polygon class="cls-5" points="1291.01 433.02 1291.01 461.84 1227.76 526.09 1199.39 526.09 1291.01 433.02"/><polyline class="cls-13" points="1189.5 526.28 1189.5 424.77 1291.01 424.77 1291.01 526.28"/><rect class="cls-3" x="1075.61" y="424.77" width="101.51" height="101.51"/><polygon class="cls-5" points="1167.74 424.97 1075.59 518.59 1075.59 489.74 1139.34 424.97 1167.74 424.97"/><polygon class="cls-5" points="1177.12 433.02 1177.12 461.84 1113.87 526.09 1085.5 526.09 1177.12 433.02"/><polyline class="cls-13" points="1075.61 526.28 1075.61 424.77 1177.12 424.77 1177.12 526.28"/><rect class="cls-3" x="961.72" y="424.77" width="101.51" height="101.51"/><polygon class="cls-5" points="1053.86 424.97 961.7 518.59 961.7 489.74 1025.45 424.97 1053.86 424.97"/><polygon class="cls-5" points="1063.23 433.02 1063.23 461.84 999.98 526.09 971.61 526.09 1063.23 433.02"/><polyline class="cls-13" points="961.72 526.28 961.72 424.77 1063.23 424.77 1063.23 526.28"/><rect class="cls-3" x="1189.49" y="880.3" width="101.51" height="101.51"/><polygon class="cls-5" points="1281.63 880.5 1189.48 974.12 1189.48 945.27 1253.23 880.5 1281.63 880.5"/><polygon class="cls-5" points="1291.01 888.55 1291.01 917.37 1227.76 981.62 1199.39 981.62 1291.01 888.55"/><polyline class="cls-13" points="1189.5 981.81 1189.5 880.3 1291.01 880.3 1291.01 981.81"/><rect class="cls-3" x="1075.61" y="880.3" width="101.51" height="101.51"/><polygon class="cls-5" points="1167.74 880.5 1075.59 974.12 1075.59 945.27 1139.34 880.5 1167.74 880.5"/><polygon class="cls-5" points="1177.12 888.55 1177.12 917.37 1113.87 981.62 1085.5 981.62 1177.12 888.55"/><polyline class="cls-13" points="1075.61 981.81 1075.61 880.3 1177.12 880.3 1177.12 981.81"/><rect class="cls-3" x="961.72" y="880.3" width="101.51" height="101.51"/><polygon class="cls-5" points="1053.86 880.5 961.7 974.12 961.7 945.27 1025.45 880.5 1053.86 880.5"/><polygon class="cls-5" points="1063.23 888.55 1063.23 917.37 999.98 981.62 971.61 981.62 1063.23 888.55"/><polyline class="cls-13" points="961.72 981.81 961.72 880.3 1063.23 880.3 1063.23 981.81"/><rect class="cls-14" x="276.11" y="740.83" width="183.97" height="139.05"/><path class="cls-13" d="M400.73,1009.43H389V895.75a5.85,5.85,0,1,1,11.69,0v113.68Z" transform="translate(-94.01 -139.31)"/><path class="cls-13" d="M427.62,1009.43H415.93V895.75a5.85,5.85,0,1,1,11.69,0Z" transform="translate(-94.01 -139.31)"/><path class="cls-13" d="M454.51,1009.43H442.82V895.75a5.85,5.85,0,1,1,11.69,0Z" transform="translate(-94.01 -139.31)"/><path class="cls-13" d="M481.4,1009.43H469.71V895.75a5.85,5.85,0,1,1,11.69,0Z" transform="translate(-94.01 -139.31)"/><path class="cls-13" d="M508.29,1009.43H496.6V895.75a5.85,5.85,0,1,1,11.69,0v113.68Z" transform="translate(-94.01 -139.31)"/><path class="cls-13" d="M535.18,1009.43H523.49V895.75a5.85,5.85,0,1,1,11.69,0Z" transform="translate(-94.01 -139.31)"/><rect class="cls-14" x="266.94" y="429.47" width="202.31" height="54.53"/><path class="cls-13" d="M391.56,613.55H379.87V584.39a5.85,5.85,0,1,1,11.69,0v29.16Z" transform="translate(-94.01 -139.31)"/><path class="cls-13" d="M417,613.55H405.34V584.39a5.84,5.84,0,1,1,11.68,0v29.16Z" transform="translate(-94.01 -139.31)"/><path class="cls-13" d="M442.49,613.55H430.8V584.39a5.85,5.85,0,1,1,11.69,0Z" transform="translate(-94.01 -139.31)"/><path class="cls-13" d="M468,613.55H456.27V584.39a5.84,5.84,0,1,1,11.68,0Z" transform="translate(-94.01 -139.31)"/><path class="cls-13" d="M493.42,613.55H481.73V584.39a5.85,5.85,0,1,1,11.69,0Z" transform="translate(-94.01 -139.31)"/><path class="cls-13" d="M518.88,613.55H507.2V584.39a5.84,5.84,0,1,1,11.68,0Z" transform="translate(-94.01 -139.31)"/><path class="cls-13" d="M544.35,613.55H532.66V584.39a5.85,5.85,0,1,1,11.69,0v29.16Z" transform="translate(-94.01 -139.31)"/><rect class="cls-14" x="296.31" y="288.15" width="143.56" height="66.75"/><path class="cls-13" d="M417,484.45H405.34V443.06a5.84,5.84,0,1,1,11.68,0v41.39Z" transform="translate(-94.01 -139.31)"/><path class="cls-13" d="M442.49,484.45H430.8V443.06a5.85,5.85,0,0,1,11.69,0Z" transform="translate(-94.01 -139.31)"/><path class="cls-13" d="M468,484.45H456.27V443.06a5.84,5.84,0,0,1,11.68,0Z" transform="translate(-94.01 -139.31)"/><path class="cls-13" d="M493.42,484.45H481.73V443.06a5.85,5.85,0,0,1,11.69,0Z" transform="translate(-94.01 -139.31)"/><path class="cls-13" d="M518.88,484.45H507.2V443.06a5.84,5.84,0,0,1,11.68,0Z" transform="translate(-94.01 -139.31)"/><rect class="cls-14" x="266.94" y="686.31" width="202.31" height="54.53"/><path class="cls-13" d="M391.56,870.38H379.87V841.22a5.85,5.85,0,0,1,11.69,0v29.16Z" transform="translate(-94.01 -139.31)"/><path class="cls-13" d="M417,870.38H405.34V841.22a5.84,5.84,0,1,1,11.68,0v29.16Z" transform="translate(-94.01 -139.31)"/><path class="cls-13" d="M442.49,870.38H430.8V841.22a5.85,5.85,0,0,1,11.69,0Z" transform="translate(-94.01 -139.31)"/><path class="cls-13" d="M468,870.38H456.27V841.22a5.84,5.84,0,1,1,11.68,0Z" transform="translate(-94.01 -139.31)"/><path class="cls-13" d="M493.42,870.38H481.73V841.22a5.85,5.85,0,0,1,11.69,0Z" transform="translate(-94.01 -139.31)"/><path class="cls-13" d="M518.88,870.38H507.2V841.22a5.84,5.84,0,0,1,11.68,0Z" transform="translate(-94.01 -139.31)"/><path class="cls-13" d="M544.35,870.38H532.66V841.22a5.85,5.85,0,0,1,11.69,0v29.16Z" transform="translate(-94.01 -139.31)"/><line class="cls-13" x1="469.25" y1="740.83" x2="266.94" y2="740.83"/><polygon class="cls-4" points="439.49 354.9 295.93 354.9 249.38 429.47 486.04 429.47 439.49 354.9"/><path class="cls-15" d="M397.46,555.27h-7.52v-15.7a3.76,3.76,0,1,1,7.52,0v15.7Z" transform="translate(-94.01 -139.31)"/><path class="cls-15" d="M442.81,555.27h-7.53v-15.7a3.77,3.77,0,0,1,7.53,0v15.7Z" transform="translate(-94.01 -139.31)"/><path class="cls-15" d="M420.13,527.18h-7.52V511.47a3.76,3.76,0,1,1,7.52,0v15.71Z" transform="translate(-94.01 -139.31)"/><path class="cls-15" d="M465.48,527.18H458V511.47a3.76,3.76,0,1,1,7.52,0v15.71Z" transform="translate(-94.01 -139.31)"/><path class="cls-15" d="M510.83,527.18h-7.52V511.47a3.76,3.76,0,1,1,7.52,0v15.71Z" transform="translate(-94.01 -139.31)"/><path class="cls-15" d="M488.15,555.27h-7.52v-15.7a3.76,3.76,0,1,1,7.52,0v15.7Z" transform="translate(-94.01 -139.31)"/><path class="cls-15" d="M533.5,555.27H526v-15.7a3.76,3.76,0,1,1,7.52,0Z" transform="translate(-94.01 -139.31)"/><polygon class="cls-4" points="368.1 108.36 296.32 288.15 439.88 288.15 368.1 108.36"/><path class="cls-16" d="M465.48,331.45H458V315.74a3.76,3.76,0,0,1,7.52,0v15.71Z" transform="translate(-94.01 -139.31)"/><path class="cls-16" d="M420.13,409.47h-7.52V393.76a3.76,3.76,0,0,1,7.52,0v15.71Z" transform="translate(-94.01 -139.31)"/><path class="cls-16" d="M465.48,409.47H458V393.76a3.76,3.76,0,1,1,7.52,0v15.71Z" transform="translate(-94.01 -139.31)"/><path class="cls-16" d="M510.83,409.47h-7.52V393.76a3.76,3.76,0,0,1,7.52,0v15.71Z" transform="translate(-94.01 -139.31)"/><path class="cls-16" d="M442.81,370.46h-7.53V354.75a3.77,3.77,0,0,1,7.53,0v15.71Z" transform="translate(-94.01 -139.31)"/><path class="cls-16" d="M488.15,370.46h-7.52V354.75a3.76,3.76,0,0,1,7.52,0v15.71Z" transform="translate(-94.01 -139.31)"/><rect class="cls-14" x="252.3" y="484" width="231.59" height="202.31"/><line class="cls-13" x1="469.25" y1="484" x2="266.94" y2="484"/><rect class="cls-13" x="280.78" y="497.85" width="174.62" height="174.62"/><line class="cls-13" x1="469.25" y1="497.58" x2="469.25" y2="672.73"/><line class="cls-13" x1="478.36" y1="497.58" x2="478.36" y2="672.73"/><line class="cls-13" x1="266.94" y1="497.58" x2="266.94" y2="672.73"/><line class="cls-13" x1="257.83" y1="497.58" x2="257.83" y2="672.73"/><path class="cls-5" d="M533.62,724.46A71.51,71.51,0,1,1,462.11,653a71.51,71.51,0,0,1,71.51,71.5" transform="translate(-94.01 -139.31)"/><path class="cls-4" d="M462.11,661.11a63.35,63.35,0,1,1-63.35,63.35,63.42,63.42,0,0,1,63.35-63.35m0-8.15a71.51,71.51,0,1,0,71.51,71.5A71.51,71.51,0,0,0,462.11,653Z" transform="translate(-94.01 -139.31)"/><path class="cls-4" d="M460,722.3l43.73-39.41-39.41,43.74a3.06,3.06,0,0,1-4.55-4.1l.23-.23" transform="translate(-94.01 -139.31)"/><path class="cls-4" d="M465.17,724.46,462.11,769l-3.06-44.56a3.07,3.07,0,0,1,6.12-.42c0,.14,0,.29,0,.42" transform="translate(-94.01 -139.31)"/><path class="cls-4" d="M467.92,724.46a5.81,5.81,0,1,1-5.81-5.8,5.81,5.81,0,0,1,5.81,5.8" transform="translate(-94.01 -139.31)"/><line class="cls-13" x1="469.25" y1="686.31" x2="266.94" y2="686.31"/><path class="cls-5" d="M331.83,1266.48a28.21,28.21,0,0,1-28.18-28.18v-39.91a28.22,28.22,0,0,1,28.18-28.18h465.1v96.27Z" transform="translate(-94.01 -139.31)"/><line class="cls-13" x1="209.64" y1="1043.91" x2="702.91" y2="1043.91"/><line class="cls-13" x1="209.64" y1="1057.7" x2="702.91" y2="1057.7"/><line class="cls-13" x1="209.64" y1="1071.49" x2="702.91" y2="1071.49"/><line class="cls-13" x1="209.64" y1="1085.29" x2="702.91" y2="1085.29"/><line class="cls-13" x1="209.64" y1="1099.08" x2="702.91" y2="1099.08"/><line class="cls-13" x1="209.64" y1="1112.87" x2="702.91" y2="1112.87"/><path class="cls-10" d="M331.82,1170.21H810.06a5.92,5.92,0,0,0,5.91-5.91v-7.22a5.92,5.92,0,0,0-5.91-5.91H331.82a47.21,47.21,0,0,0-47.2,47.21v39.92a47.21,47.21,0,0,0,47.2,47.21H810.06a5.92,5.92,0,0,0,5.91-5.91v-7.22a5.92,5.92,0,0,0-5.91-5.91H331.82a28.17,28.17,0,0,1-28.17-28.17v-39.89a28.22,28.22,0,0,1,28.17-28.2" transform="translate(-94.01 -139.31)"/><path class="cls-5" d="M331.83,1132.15A28.21,28.21,0,0,1,303.65,1104v-39.91a28.22,28.22,0,0,1,28.18-28.18H759v96.27Z" transform="translate(-94.01 -139.31)"/><line class="cls-13" x1="209.77" y1="909.57" x2="665.14" y2="909.57"/><line class="cls-13" x1="209.91" y1="923.37" x2="665.27" y2="923.37"/><path class="cls-13" d="M759,1075.79a.68.68,0,1,1,0,1.36H303.65a.68.68,0,0,1,0-1.36" transform="translate(-94.01 -139.31)"/><line class="cls-13" x1="210.04" y1="950.95" x2="665.41" y2="950.95"/><line class="cls-13" x1="210.18" y1="964.75" x2="665.55" y2="964.75"/><line class="cls-13" x1="209.64" y1="978.54" x2="665" y2="978.54"/><path class="cls-17" d="M331.82,1035.88H772.15a5.92,5.92,0,0,0,5.91-5.91v-7.22a5.92,5.92,0,0,0-5.91-5.91H331.82a47.21,47.21,0,0,0-47.2,47.21V1104a47.2,47.2,0,0,0,47.2,47.2H772.15a5.91,5.91,0,0,0,5.91-5.9v-7.22a5.91,5.91,0,0,0-5.91-5.91H331.82A28.17,28.17,0,0,1,303.65,1104v-39.89a28.22,28.22,0,0,1,28.17-28.2" transform="translate(-94.01 -139.31)"/><polygon class="cls-10" points="365.33 1018.09 327.15 999.75 288.96 1018.09 288.96 938.52 365.33 938.52 365.33 1018.09"/><polyline class="cls-13" points="365.33 984.75 365.33 1018.09 327.15 999.75 288.96 1018.09 288.96 984.75"/><path class="cls-17" d="M854.39,1285.5l121.76,0a7.48,7.48,0,0,0,7.57-8.44l-5.91-58.68H902.43l-28,26.92L846.19,1265a10.24,10.24,0,0,0-3.56,11.9,12.69,12.69,0,0,0,11.76,8.63" transform="translate(-94.01 -139.31)"/><path class="cls-15" d="M843.71,1279.22a11.12,11.12,0,0,0,3.14.43l136.71-.05" transform="translate(-94.01 -139.31)"/><path class="cls-15" d="M927.45,1233.11s-16.13-6.06-37.87-2.38" transform="translate(-94.01 -139.31)"/><path class="cls-15" d="M921.26,1242.83a93.13,93.13,0,0,0-43-1.18" transform="translate(-94.01 -139.31)"/><path class="cls-17" d="M706.72,1285.5l121.76,0a8.44,8.44,0,0,0,8.44-8.44l.11-58.68H761.66l-30.79,26.92L700.64,1265a11.17,11.17,0,0,0,6.08,20.53" transform="translate(-94.01 -139.31)"/><path class="cls-15" d="M785.43,1233.11s-16.14-6.06-37.88-2.38" transform="translate(-94.01 -139.31)"/><path class="cls-15" d="M778.14,1242.83a93.13,93.13,0,0,0-43-1.18" transform="translate(-94.01 -139.31)"/><path class="cls-15" d="M696.69,1279.22a10.65,10.65,0,0,0,3.1.43l136.71-.05" transform="translate(-94.01 -139.31)"/><path class="cls-18" d="M730.4,532.59c-4.64,14.56-19.89,70-22.79,82.55-5.83-3.2-11.74-6.29-17-8.79l-2-.87A22.53,22.53,0,0,0,659,635.09a128.69,128.69,0,0,0,13.07,23c15.4,23.88,50.43,47.07,77.33,24.2,20.7-24.07,29-54.78,40.3-83.5a437.38,437.38,0,0,0,13.19-46.57Z" transform="translate(-94.01 -139.31)"/><path class="cls-19" d="M804,581.09c-31.85,2.87-73.64-6-84.1-14.81,1.57-6,5-20.36,8.15-29.53,4.2-12.15,13.09-24.22,31.54-30.62,7.84-2.73,45.23-7.52,49.83,22,2.72,17.48-3.08,38.14-5.42,53" transform="translate(-94.01 -139.31)"/><path class="cls-4" d="M952.89,714.05l-192.34,2.24-13,500.27s49.11,13.55,97.95,4.78l11.8-457.21h.91l32.93,457.21s48.87,8.81,97.74-1.84Z" transform="translate(-94.01 -139.31)"/><line class="cls-15" x1="738.59" y1="1066.3" x2="749.99" y2="624.82"/><path class="cls-15" d="M889.92,1203.73s48.87,8.81,97.73-1.84" transform="translate(-94.01 -139.31)"/><path class="cls-15" d="M748,1199s49.11,13.55,98,4.78" transform="translate(-94.01 -139.31)"/><polyline class="cls-15" points="734.88 624.82 764.23 624.82 768.61 685.82"/><line class="cls-15" x1="881.47" y1="1064.83" x2="846.54" y2="574.73"/><path class="cls-15" d="M903,714.63s-3.14,49.82,41.09,49.5" transform="translate(-94.01 -139.31)"/><path class="cls-19" d="M764.23,568.45c0,28-4.78,145.89-5.15,148.18C778.7,721.9,821.18,727,857.67,727s79-5.14,98.59-10.41c-.37-2.29-8.65-120.15-8.65-148.18,0-29.49,4.75-55-15.24-64.31-21.65-10.08-40.08-16-89.33-16-30.28,0-61,7.4-81.6,17.36Z" transform="translate(-94.01 -139.31)"/><path class="cls-18" d="M882.11,489.92c-5.35,11.1-19.22,24.08-40.56,23.33-15.59-.55-23.31-12.2-25.16-23.26a193.52,193.52,0,0,1,26.66-1.85,354,354,0,0,1,39.06,1.78" transform="translate(-94.01 -139.31)"/><path class="cls-13" d="M792.78,675.62s38,24.65,106.16,21.06" transform="translate(-94.01 -139.31)"/><polygon class="cls-5" points="722.92 368.11 716.5 356.18 620.61 386.91 584.58 359.91 575.67 369.36 580.41 393.6 618.68 421.44 726.35 388.69 722.92 368.11"/><polygon class="cls-4" points="727.2 366.82 728.66 369.17 625.57 400.13 611.87 398.35 571.79 369.17 573.75 367.79 611.87 395.56 625.57 397.34 727.2 366.82"/><polygon class="cls-17" points="728.66 369.16 625.57 400.14 611.86 398.36 571.8 369.16 594.12 502.69 634.18 531.89 647.89 533.67 747.52 503.73 728.66 369.16"/><line class="cls-13" x1="611.86" y1="398.36" x2="634.18" y2="531.89"/><line class="cls-13" x1="647.89" y1="533.67" x2="625.57" y2="400.14"/><path class="cls-18" d="M652.59,622.49c-5.19-11.35-4.68-22.71-2.72-34.64,1.41-8.67,2.49-16.86,2.49-16.86a7.81,7.81,0,0,1,4.68-4.88s1.6-12.56,2.42-16.53c.56-2.7,3.55-4.19,6.26-3.66l10.32,2c5.2,1,14.18,2.43,13.63,7.79-.39,3.8-5.72,6.08-9.75,6a56.47,56.47,0,0,1,12,16.45c1.74,3.5.51,7.8-2.09,10.72l2.77,5.34c1.33,3.1-.16,7.51-3.29,8.74,0,0,4.91,5,1.69,10.17-1.33,2.17-4.83,3.5-7.13,1.76l-11.08-8.6c6.24,23.19-13,30.58-13,30.58s-3.62-6.63-7.19-14.45" transform="translate(-94.01 -139.31)"/><polyline class="cls-13" points="595.28 463.72 583.77 453.41 570.71 448.54"/><polyline class="cls-13" points="595.81 449.64 589.52 441.39 579.46 434.91 570.58 433.9"/><polyline class="cls-13" points="585.9 422.47 577.15 420.89 563 426.98"/><path class="cls-13" d="M691,613.2c-1.34,2.16-4.83,3.5-7.13,1.76l-11.08-8.6c1.73,6.43,1.5,11.64.27,15.81" transform="translate(-94.01 -139.31)"/><path class="cls-18" d="M969.39,592c-1.08,28,2.14,56.7-11,83.09-27.54,37.3-76.92,3.39-102.89-17.4A216,216,0,0,1,835,638.87a22.13,22.13,0,0,1-2.53-3.19l20.23-34.36c8.33,2.24,21.53,6.36,29.61,9.2,4.17,1.33,9,3.08,14.11,5-.71-5.11-1.54-11-2.56-17.81-1.47-11.17-3-22.58-4.09-33.92l77-12c1.58,13.37,2.31,26.63,2.66,40.21" transform="translate(-94.01 -139.31)"/><path class="cls-13" d="M896.43,615.36S929.15,620,941.89,641" transform="translate(-94.01 -139.31)"/><path class="cls-19" d="M889.88,526.46c6.44-13.33,22.89-19.21,29.75-20.37,29.57-5,41.09,13.33,47.11,30.66,3.18,9.17,6.58,23.52,8.15,29.54-10.47,8.86-52.27,17.66-84.1,14.79-2.59-16.7-7.14-41.78-.91-54.62" transform="translate(-94.01 -139.31)"/><path class="cls-13" d="M950.21,576.08c-17.39,4.21-40.22,6.73-59.43,5-1-6.38-2.26-14-3.11-21.65" transform="translate(-94.01 -139.31)"/><path class="cls-18" d="M853.54,606.16C853.58,590.53,845,571,845,571a7.85,7.85,0,0,0-4.69-4.88s-1.59-12.56-2.42-16.53c-.56-2.7-3.55-4.19-6.26-3.66l-10.31,2c-5.21,1-14.19,2.42-13.64,7.78.39,3.81,5.73,6.09,9.76,6.06a56.11,56.11,0,0,0-12,16.45c-1.74,3.49-.52,7.8,2.08,10.72l-2.76,5.34c-1.34,3.09.15,7.5,3.28,8.74,0,0-4.91,5-1.69,10.17,1.34,2.16,4.84,3.5,7.14,1.75l11.07-8.59c.08,6.7-1.43,9.6-1,14,2.22,20.92,18.11,18,18.11,18s9.18-20.68,11.85-32.17" transform="translate(-94.01 -139.31)"/><polyline class="cls-13" points="714.02 463.72 725.54 453.41 738.6 448.54"/><polyline class="cls-13" points="713.5 449.64 719.78 441.39 729.84 434.91 738.72 433.9"/><polyline class="cls-13" points="723.4 422.47 732.15 420.89 746.3 426.98"/><polygon id="SVGID" class="cls-18" points="727.44 322.19 727.46 356.87 781.14 356 779.42 322.15 727.44 322.19"/><g class="cls-20"><path class="cls-4" d="M870,460.39c-2.45,8.81-12.23,29.77-49.15,23.94V460.42Z" transform="translate(-94.01 -139.31)"/></g><path class="cls-18" d="M776.52,421.84c6.75,8.67,17.38,9.9,23.73,2.75s6-20-.73-28.64-17.39-9.9-23.74-2.75-6,20,.74,28.64" transform="translate(-94.01 -139.31)"/><path class="cls-13" d="M779.7,400s14.1-1.66,16,16" transform="translate(-94.01 -139.31)"/><path class="cls-18" d="M844.6,324.38a56.08,56.08,0,0,1,55.92,55.91v40.57c0,30.75-34.4,52.4-63.47,52.4-22.75,0-48.36-21.65-48.36-52.4V380.29a56.08,56.08,0,0,1,55.91-55.91" transform="translate(-94.01 -139.31)"/><path class="cls-13" d="M819.25,469.1a53.4,53.4,0,0,1-30.56-48.24V395.15" transform="translate(-94.01 -139.31)"/><path class="cls-4" d="M904.85,371.75c0,14.53-4.33,32.34-4.33,32.34H886.83a182.23,182.23,0,0,1-7.31-19.18s5.66-9.22,5.66-12.39c0-6.74-4-19-14.59-21.49s-36,8.65-36,8.65S813.81,348.62,807,351c-11,3.83-16.9,30.73-18.31,38.05-5.43-41.17,0-61.09,0-61.09s34.66-5.84,52.87-6.24c44-1,63.3,19.21,63.3,50" transform="translate(-94.01 -139.31)"/><path class="cls-18" d="M917.81,421.84c-6.75,8.67-17.38,9.9-23.73,2.75s-6-20,.73-28.64,17.39-9.9,23.74-2.75,6,20-.74,28.64" transform="translate(-94.01 -139.31)"/><path class="cls-13" d="M914.63,400s-14.11-1.66-16,16" transform="translate(-94.01 -139.31)"/><path class="cls-13" d="M834.91,397.21s2.1,12.15-5.24,17.79l6.49,6.5" transform="translate(-94.01 -139.31)"/><path class="cls-4" d="M821.46,430.25a16.62,16.62,0,0,0,32.56,0Z" transform="translate(-94.01 -139.31)"/><path class="cls-5" d="M851,430.25a16.61,16.61,0,0,1-26.57,0Z" transform="translate(-94.01 -139.31)"/><path class="cls-4" d="M817.28,406.06h0a4.46,4.46,0,0,1-4.46-4.46V396a4.47,4.47,0,0,1,8.93,0v5.57a4.46,4.46,0,0,1-4.47,4.46" transform="translate(-94.01 -139.31)"/><path class="cls-4" d="M859.72,406.06h0a4.46,4.46,0,0,1-4.47-4.46V396a4.47,4.47,0,0,1,8.94,0v5.57a4.47,4.47,0,0,1-4.47,4.46" transform="translate(-94.01 -139.31)"/></g></svg>