<svg id="Layer_1" data-name="Layer 1" xmlns="http://www.w3.org/2000/svg" xmlns:xlink="http://www.w3.org/1999/xlink" viewBox="0 0 422.19 423.71"><defs><style>.cls-1,.cls-15,.cls-16,.cls-17,.cls-18,.cls-19,.cls-20,.cls-29,.cls-31,.cls-7{fill:none;}.cls-2{fill:#ffdecf;}.cls-3{fill:#5ac794;}.cls-4{fill:#1b56cf;}.cls-5{fill:#ea5533;}.cls-6{fill:#fff;}.cls-19,.cls-20,.cls-29,.cls-7{stroke:#000;}.cls-15,.cls-16,.cls-18,.cls-19,.cls-20,.cls-31,.cls-7{stroke-linecap:round;}.cls-16,.cls-17,.cls-18,.cls-19,.cls-20,.cls-7{stroke-linejoin:round;}.cls-8{fill:#f88865;}.cls-9{fill:#c091ff;}.cls-10{fill:#0b0202;}.cls-11{fill:#ecb585;}.cls-12{fill:#de6341;}.cls-13,.cls-14{fill:#100909;}.cls-14{stroke:#222221;}.cls-14,.cls-15,.cls-29,.cls-31{stroke-miterlimit:10;}.cls-14,.cls-15,.cls-16,.cls-19,.cls-29{stroke-width:2px;}.cls-15,.cls-31{stroke:#100909;}.cls-16{stroke:#823bb1;}.cls-17,.cls-18{stroke:#4678cf;stroke-width:5px;}.cls-20{stroke-width:2px;}.cls-21{fill:#1c1c1b;}.cls-22{fill:#140000;}.cls-23{fill:#983597;}.cls-24{fill:#005db0;}.cls-25{clip-path:url(#clip-path);}.cls-26{clip-path:url(#clip-path-2);}.cls-27{fill:#080b0c;}.cls-28{clip-path:url(#clip-path-3);}.cls-30{fill:#00ba87;}.cls-31{stroke-width:3px;}.cls-32{fill:#4678cf;}</style><clipPath id="clip-path" transform="translate(-41.95 -36.15)"><path class="cls-1" d="M272.44,251.1c4.21,2.85,9.76,3.76,14.75,3.51a25.69,25.69,0,0,0,3.34-.38c-2.62-2.52-3.49-4.47-3-8.25a21.68,21.68,0,0,1,1.65-5.63c.27-.65,2.67-4.66,2.41-5.1a1.6,1.6,0,0,0-.28-.35,3.26,3.26,0,0,0-2.33-.52,14.59,14.59,0,0,1-8.42-2.64,24.51,24.51,0,0,1-3.3-2.81c-.58-.58-1.68-2.62-2.57-2.68-.08,0-.14,0-.21.07-1,4.19-1,8.09-3.45,11.86a13.64,13.64,0,0,1-3.35,3.65,5.08,5.08,0,0,1-2.63,1.38A24.47,24.47,0,0,0,272.44,251.1Z"/></clipPath><clipPath id="clip-path-2" transform="translate(-41.95 -36.15)"><path class="cls-1" d="M97.7,347.79c10.53-8.32,20.43-9.27,33.14-5,9.41,3.2,19.56,12.21,26.31,19.51,18.83,20.37,39.46,39.08,56.32,61.11,1.13,1.48,4.32,5.78,2.74,4.8-14.73-9.21-4.16,5-7.5,8.89s-13.62,1.89-17.41,1.47c-5.93-.65-6.55,2.36-11.37-1.08-7.56-5.41-13.37-12.87-19.44-19.91s-12.76-13.95-21.28-17.68a2.38,2.38,0,0,0-1.9-.23,5.69,5.69,0,0,0-2.33,2.83c-1,10.73,5.12,19.15,4.1,29.88l-34.25-1.21c-3.75-13.77-14.94-40.09-17.74-54.09C83.25,357.91,89.75,354.06,97.7,347.79Z"/></clipPath><clipPath id="clip-path-3" transform="translate(-41.95 -36.15)"><path class="cls-1" d="M201.59,297.67a16.77,16.77,0,0,0-4.06-4.53c-4.71-3.46-10.05.35-14.83,3.47-5.27,3.44-8.26,6.23-6.93,12.05a31.17,31.17,0,0,0,6.79,13.42,7.71,7.71,0,0,0,2.36,2,6,6,0,0,0,4.72,0c1.51-.59,3.34.13,4.85.71s4,5.56,4.28,6.4c1,2.71,2.7,5.2-.27,7.54a79,79,0,0,0,20.95-8.37c-2.25-.58-3.64-2.79-4.7-4.86-4.27-8.27-7.2-17.2-11.7-25.36C202.59,299.29,202.11,298.47,201.59,297.67Z"/></clipPath></defs><g id="OBJECTS"><path class="cls-2" d="M178.45,429.34l-3.2,0c-15.42.28-30.91,1.67-46.24-.05s-30.87-6.93-41.72-17.9c-19.62-19.85-23.24-54.59-28.36-80.69-9.24-47.14-19.24-98.91,8.93-141.26,30.9-46.45,84.55-50.07,134-64.72A293.29,293.29,0,0,0,266.1,97c16-9.29,31.33-20.22,49-25.46,23.91-7.08,50.57-2.81,72.07,9.81,48.28,28.32,55.6,80.74,58.6,131.86,2.83,48.27,6.45,94.07-6.8,141.55-5.44,19.51-13.46,39.26-28.79,52.51-20.27,17.54-48.43,20-74.1,20.61-30.6.67-60.83,4.63-91.56,3.79C222.51,431.09,200.5,429.16,178.45,429.34Z" transform="translate(-41.95 -36.15)"/><rect class="cls-3" x="247.6" y="150.14" width="69.16" height="21.38"/><path d="M349.29,199.53H300c-.81,0-1.47-.91-1.47-2h0c0-1.12.66-2,1.47-2h49.33c.81,0,1.47.91,1.47,2h0C350.76,198.62,350.1,199.53,349.29,199.53Z" transform="translate(-41.95 -36.15)"/><rect class="cls-4" x="252.47" y="135.19" width="69.16" height="15.09"/><path d="M354.15,180.68H304.83a1.45,1.45,0,0,1-1.47-1.43h0a1.45,1.45,0,0,1,1.47-1.44h49.32a1.45,1.45,0,0,1,1.47,1.44h0A1.45,1.45,0,0,1,354.15,180.68Z" transform="translate(-41.95 -36.15)"/><path class="cls-5" d="M360.3,235.92H302.21V216.05H360.3a9.94,9.94,0,0,1,9.94,9.94h0A9.93,9.93,0,0,1,360.3,235.92Z" transform="translate(-41.95 -36.15)"/><path class="cls-6" d="M359.32,233.22,302.11,233,302,219l58.56-.36c4.74,0,6.17,3.67,6.17,7.74h0C366.7,230.46,364.06,233.22,359.32,233.22Z" transform="translate(-41.95 -36.15)"/><line class="cls-7" x1="260.1" y1="187.97" x2="323.61" y2="188.13"/><line class="cls-7" x1="260.1" y1="191.59" x2="321.79" y2="191.75"/><path d="M364,219.48l-.09,12.75c1.67-1.45,2.82-3,2.82-5.36v-1.44A7.84,7.84,0,0,0,364,219.48Z" transform="translate(-41.95 -36.15)"/><path class="cls-4" d="M361,214.43v-5.35h3.45v-.75a1,1,0,0,0-1-1H294.3a4.4,4.4,0,0,0,0,8.79h69.17a1,1,0,0,0,1-1v-.73Z" transform="translate(-41.95 -36.15)"/><path class="cls-6" d="M364.24,214.41H296.43c-1.47,0-3.71-1.27-3.71-2.74h0c0-1.47,2.24-2.59,3.71-2.59h67.81Z" transform="translate(-41.95 -36.15)"/><polygon points="316.78 171.23 315.93 173.09 264.17 172.86 264.72 171.06 316.78 171.23"/><path class="cls-8" d="M168,115.87c-8.65-1.9-29.95,16.73-35.62,22.88-6.69,7.27-11.74,13.18-13.23,23-1,6.74-.08,9.92,5.61,14.06,13.81,10.05,31.38-2.86,41.77-12.53,8.49-7.9,17.37-22,13.92-34.15C178.36,121.77,173.62,119.5,168,115.87Z" transform="translate(-41.95 -36.15)"/><path class="cls-8" d="M262.2,173.6a25.71,25.71,0,0,0-2.74-8.95,66.5,66.5,0,0,0-4.78-7.89c-6.18-9.07-13.3-17.26-19.81-26-2.65-3.58-6.23-5.54-10.21-7.36-3.34-1.52-6.56-2.88-10.1-1.21a12.46,12.46,0,0,0-6.78,11.79c.58,9.25,10.1,19.05,15.17,26.22,4.21,6,8.92,12.49,14.06,17.67,3.85,3.89,9.63,10.68,15.6,10.76C259.38,188.67,262.74,179.28,262.2,173.6Z" transform="translate(-41.95 -36.15)"/><path class="cls-9" d="M197.57,387.33c0,.75.09,1.51.17,2.26a246.85,246.85,0,0,0,5,30c1.48,6.24,11.08,15.64,16.82,8.27,2.82-3.62,1.67-10.43,1.85-14.83l.81-19.63q1.64-39.26,3.25-78.52c.66-16,1.33-32,.19-47.94-.77-10.66-.2-27.21-14-29.36-6.66-1-12.68,4.32-16.15,10.1-8.41,14.05-8,31.49-7.24,47.85.7,16,1.43,32.18,6.27,47.42,1.44,4.56,3.25,9,4,13.74C200.23,366.92,197,377.12,197.57,387.33Z" transform="translate(-41.95 -36.15)"/><path class="cls-10" d="M202.9,420.56c5.31,1,10.36.21,15.64-.5a7.22,7.22,0,0,1,2-.09c3.86.55,7.64,3.27,11.52,4.16,5.37,1.24,10.48,2.1,15.58,4.39a4.82,4.82,0,0,1,2.39,1.8c4.08,7.25-10.48,6.82-13,6.79-4.78-.05-9.49-.53-14.26-.59-4,0-8.08.07-12.09-.15-2.39-.14-6.24,1-7.94-.95-1.32-1.53-1.11-4.62-.65-6.51A36.21,36.21,0,0,0,202.9,420.56Z" transform="translate(-41.95 -36.15)"/><path class="cls-9" d="M160.1,424.82c-.08.12-.16.22-.24.33-3.28,4.11-17.52,6.91-17.4.12.87-46.09-3.38-91.58,1.42-137.64,1.43-13.74,3.53-27.92,11-39.54,4.08-6.34,11.64-12.16,18.62-9.3,2.94,1.21,5.12,3.77,6.76,6.5,5.69,9.43,6,21.07,5.54,32.07a236.21,236.21,0,0,1-8.12,51.73c-1.6,5.92-3.79,11.7-4.88,17.75-1.35,7.43-1,15-1.38,22.59-.63,12.89-3.32,25.56-6.62,38C163.62,411.87,162.79,421,160.1,424.82Z" transform="translate(-41.95 -36.15)"/><path class="cls-11" d="M237.76,245.23c-3.38-21.22-6.76-40.82-7.48-44.31-1.26-6.08-3-12.73-8.11-16.21-4.15-2.82-9.53-2.82-14.53-2.6A297.21,297.21,0,0,0,177.11,185c-3.39.51-11.3.38-14,2.52s-3.47,8.77-3.9,12.1c-1.37,10.68-1.15,18.81-8.51,27.51-4.63,5.47-10.12,10.57-12.44,17.35-1.23,3.6-1.51,7.54-3.24,10.93-1.5,2.95-4,5.26-6,7.86-6.82,8.62-8.71,20-10.37,30.88,25,5.81,50.14,11.65,75.76,12.19,9,.18,18-.29,27-.76l23.71-1.24C246.73,304.3,242.24,273.35,237.76,245.23Z" transform="translate(-41.95 -36.15)"/><path class="cls-12" d="M227.74,174.67a18.25,18.25,0,0,0-1.79-4.84c-1.75-3.25-5.18-8.23-5.52-12-.36-4,3.56-8.29,5.12-11.79,1.48-3.34,4.11-5.71,6.56-8.32,1.62-1.73,3.82-6.28,5.76-6.94-4.6-5.91-12.07-10.29-18.31-14.41-7.06-4.66-16.15-5.29-24.49-5.44-3.37-.06-6.73,0-10.1.15-3,.11-12.33,0-18.1,2.9-4,2-6,5.46-7.12,9.58-1.34,4.79.11,7.21,3.12,11,3.54,4.43,8.07,7.85,7.46,14.14-.62,6.45-3.17,10.6-7.6,15-4.24,4.21-6.45,10.66-6.69,16.56-.16,4.17-1,12.44,3.11,15a10.07,10.07,0,0,0,3.58,1.13,124.94,124.94,0,0,0,66-6.2C227.86,184.41,228.82,179.62,227.74,174.67Z" transform="translate(-41.95 -36.15)"/><path class="cls-10" d="M161.81,436.16l0,.15a1.58,1.58,0,0,1-.51,1.07,1.45,1.45,0,0,1-.79.19c-10.65.48-21.14.93-31.79,1.24-2.41.07-12.56.09-13.09-3.49a2.72,2.72,0,0,1,1-2.29,7.27,7.27,0,0,1,2.23-1.19c4.87-1.91,10.37-3,15-5.43,1.73-.88,3.39-2.13,5.14-3.06.93-.5,4.81-3.53,5.64-3.34,5.19,1.21,11.12,2.1,16.49,1.17A32.64,32.64,0,0,1,161.81,436.16Z" transform="translate(-41.95 -36.15)"/><path class="cls-13" d="M182.86,85.35a25.42,25.42,0,0,1,2.91-5.29c3.1-4.11,10.14-9,15.56-7.58,3.35.84,5.11,3.91,5.89,7.06a18.88,18.88,0,0,1,.13,6.87,3.62,3.62,0,0,0,0,1.43,5.91,5.91,0,0,0,.7,1.28,5.4,5.4,0,0,1,.29,5c-.58,1.25-1.65,2.32-1.8,3.69-.2,1.82,1.31,3.47,1.19,5.3-.13,2.16-2.38,3.5-4.42,4.23-3.72,1.33-7.38,1.26-11.16,2a26.05,26.05,0,0,1-10.15.19,14.86,14.86,0,0,0-4.28-.49c-1.08.11-2.12.53-3.2.59a2.65,2.65,0,0,1-2.71-1.37A3.47,3.47,0,0,1,172,106a33.21,33.21,0,0,1,2.36-6.38c1.52-2.84,3.83-5.19,5.49-7.95A54.72,54.72,0,0,0,182.86,85.35Z" transform="translate(-41.95 -36.15)"/><path class="cls-8" d="M183.47,96.65c0,2.82.08,5.63,0,8.43-.08,2.24-.14,5-1.43,6.87a12.58,12.58,0,0,0,4.9,3.34,11.56,11.56,0,0,0,2.33.38,20.75,20.75,0,0,0,3.15.13,11.66,11.66,0,0,0,8.4-4.43c-1.55.07-1.09-2.65-1.14-3.64-.07-1.74-.15-3.48-.22-5.22a32.21,32.21,0,0,0-.31-3.69,12.7,12.7,0,0,0-2.59-6,10.26,10.26,0,0,0-6.28-3.43,36.51,36.51,0,0,0-3.76-.36c-1.09-.07-2.05-.59-2.66.77a5.22,5.22,0,0,0-.3,2Z" transform="translate(-41.95 -36.15)"/><path class="cls-8" d="M200.43,73.81c-1.58.16-3.11-4.13-4.66-3.72-1.39.37-4.38.42-5.8.75-2.37.54-4.28,6.41-6,8.2-1.9,2-1.92,4.87-1.77,7.43s1.39,5.32,1.82,7.72c.53,3,1,5.37,4.11,6.39,2.56.84,5.31.62,8,.39a10.31,10.31,0,0,0,3.31-.66c6.26-2.73,5.16-13.25,4.79-18.73a22.42,22.42,0,0,0-1.16-6.85,1.74,1.74,0,0,0-.47-.74,1.82,1.82,0,0,0-1.3-.25Z" transform="translate(-41.95 -36.15)"/><path class="cls-13" d="M162.61,108.91c6.88,1.77,20.21,4.48,23.76-4.12,1.47-3.58.51-7.62.09-11.47a2.31,2.31,0,0,1,.07-1.14,2.66,2.66,0,0,1,1-1,12.27,12.27,0,0,0,4.27-5.44c.51-1.35.14-4.85,1-5.78a2,2,0,0,1,1-.48,27.87,27.87,0,0,1,5.66-.93c2.88-.17,7.57-.78,7.42-4.65s-4.3-5.42-7.32-6c-6.57-1.16-22.78-2.18-24.95,7-.25,1.07-.25,2.33-1.09,3a4.55,4.55,0,0,1-2.46.65,8.9,8.9,0,0,0-7.6,8.77,5,5,0,0,1-.31,2.83,4.07,4.07,0,0,1-1.71,1.28,15.18,15.18,0,0,0-5.15,3.75C151.41,101.33,156.52,107.34,162.61,108.91Z" transform="translate(-41.95 -36.15)"/><path class="cls-13" d="M199.62,89.08a2.74,2.74,0,0,0-2.16,1c-1,1.3-.73,4.09.87,4.53a3.51,3.51,0,0,0,3.09-1.28c1.65-1.88.91-4.22-1.71-4.28Z" transform="translate(-41.95 -36.15)"/><path class="cls-14" d="M224.91,161.18a24.24,24.24,0,0,0-.64-3.25.57.57,0,0,0-1.1.31,61.5,61.5,0,0,1,.9,6.21.48.48,0,1,0,1,0A22.3,22.3,0,0,0,224.91,161.18Z" transform="translate(-41.95 -36.15)"/><path class="cls-12" d="M154,141.86a14,14,0,0,0,3,5.26c5.14,5.27,4.79,10.73,13.28,7.71,7.85-2.79,13.28-9.54,16.82-16.83,2.55-5.26,3.32-12.76.43-18.09-4.44-8.22-12.14-10.09-20.61-7.21-4.21,1.43-7.82,3.81-11.76,5.77-4.65,2.32-9.41,4.25-13.47,7.7,4.36,1.39,7,6.22,9.48,9.71A24.15,24.15,0,0,1,154,141.86Z" transform="translate(-41.95 -36.15)"/><path class="cls-8" d="M246.94,161.43c-10.33-6.49-22.25-7.57-33.55-12.17-3.63-1.48-5.83-8.83-9.67-9.57a4.43,4.43,0,0,0-2.65.07c-2.29,1-1.63,4.44-.47,6.67,5.45,10.46,13.58,19.25,21.87,27.65,4.52,4.57,9.45,9.09,15.16,12.14,4.74,2.53,15.42,5.91,19.81.86a10,10,0,0,0,1.9-4.38C262,171.08,256.58,167.49,246.94,161.43Z" transform="translate(-41.95 -36.15)"/><path class="cls-15" d="M254.51,166.69c-3.26-2.6-6.25-5.5-10.66-6.75-4.66-1.32-9.25-2.69-13.9-4.09-3.8-1.14-11.15-3-13.6-6.26" transform="translate(-41.95 -36.15)"/><path class="cls-15" d="M181,110.32c.93,1.1,2.27,3,3.57,3.83a16,16,0,0,0,5.56,2.16c4.65.65,8.56-.58,10.71-4.94" transform="translate(-41.95 -36.15)"/><path class="cls-15" d="M251.55,185.44a6.67,6.67,0,0,0,5.26-2.63" transform="translate(-41.95 -36.15)"/><path class="cls-6" d="M190.11,161.51a52.63,52.63,0,0,0,7.32-.24c2.2-.23,4.38-.93,6.57-1.08,4.18-.3,7.78-2.61,11.32-4.75,1.45-.87,3.26-1.86,4.16-3.34a38.81,38.81,0,0,0,1.64-3.78,29.54,29.54,0,0,0,2.43-10.76c.21-3.79.16-7.45.57-11.22a2.33,2.33,0,0,0-.22-1.57,2.3,2.3,0,0,0-1.36-.72,1.36,1.36,0,0,0,1-.84c.1-.43-.43-.93-.77-.65,2.51-2.07-3.68-1.85-4.52-1.83A37.82,37.82,0,0,0,210,122a37.37,37.37,0,0,0-14.54,7.49c-3.77-3.82-9.29-5.21-14.52-6.43-4.76-1.11-9.63-2.23-14.49-1.7a9.62,9.62,0,0,0,1.46,1.32,6.25,6.25,0,0,0-2,.38,2.19,2.19,0,0,0,1.09,1l-1.3.72c.16-.09,1.3,7.72,1.33,8.21.53,7.63.08,16.11,5.06,21.91C176.38,159.9,183.52,161.32,190.11,161.51Z" transform="translate(-41.95 -36.15)"/><path class="cls-4" d="M225,125.27c-.26-.06.24,0,0,0-8.68-1.29-21.13.17-29.23,3.66a1.21,1.21,0,0,1-1.32,0c-8-3.57-21.31-4.58-30-3.18.67,7.44.08,15,.91,22.43s.77,14.67,1.31,22c0,.31.05.62.07.93,2.22.52,8.7.86,10.92,1.37,5.94,1.36,11.89,2.62,17.88,3.71,1.61,0,3.23-.07,4.84-.11,6.73-2,17.94-5.29,24.76-7A404.51,404.51,0,0,0,225,125.27Z" transform="translate(-41.95 -36.15)"/><path class="cls-13" d="M198.61,128.32a2,2,0,0,0-.25-.39,3.31,3.31,0,0,0-2.14-1,6.64,6.64,0,0,0-3.85.41.62.62,0,0,0-.28.22.69.69,0,0,0-.07.35c-.15,6,.34,12,.48,18,.16,6.53.37,30.55.32,30.54a20.23,20.23,0,0,0,5.81.33,2.19,2.19,0,0,0,1.13-.32c.89-.68-.08-17.65-.06-24.34,0-7.46-.37-15.28-.76-22.63A3.23,3.23,0,0,0,198.61,128.32Z" transform="translate(-41.95 -36.15)"/><path class="cls-6" d="M205.91,134.37c.77.28,1.54.53,2.33.77l-.58.08a18,18,0,0,0-2.18.46c-.33.1-.64.22-1,.33s-.59.15-.88.24c.11,1.2.23,2.41.36,3.61a4.33,4.33,0,0,0,1.29-.1c.43-.09.85-.18,1.28-.25a7.65,7.65,0,0,0-1.14.9c-.39.39-.84.71-1.27,1.07,0,.33.08.67.11,1l3.27-.56c.77-.66,1.47-1.36,2.2-2.07.37-.36.76-.69,1.14-1l.08-.09a13.65,13.65,0,0,0,.46,2.58l3.1-.5c0-.56-.08-1.11,0-1.68,0-.31,0-.62,0-.92a9.31,9.31,0,0,0,.89.61,12.56,12.56,0,0,0,2.48,1c.26.08.51.18.76.28l2.49-.41c0-.34,0-.69-.06-1a29.62,29.62,0,0,0-3.77-1.68l.87-.16c.93-.17,1.87-.31,2.79-.53l-.18-3.83-.77.09a14,14,0,0,0-1.6.24l.51-.43c.57-.46,1.19-.91,1.77-1.4,0-.44-.08-.88-.11-1.32l-2.85.43c-.4.33-.79.67-1.17,1-.76.65-1.48,1.34-2.2,2l0,0v-.79c0-.5,0-1-.09-1.5l0-.27c-1.11.16-2.23.3-3.35.45,0,.17-.1.33-.13.5-.09.57-.18,1.13-.26,1.7l-.08,0a26.24,26.24,0,0,0-2.39-1.15c-.37-.16-.74-.3-1.12-.44-1.18.19-2.35.42-3.52.69,0,.32.05.63.08.94C204.21,133.66,205,134.05,205.91,134.37Z" transform="translate(-41.95 -36.15)"/><path class="cls-12" d="M207.21,134a25.79,25.79,0,0,1,2.48,1l1,.47c-2.21.51-4.41,1.06-6.63,1.55a1,1,0,0,0-.36.16l.15,1.53a1,1,0,0,0,.72.12c1.73-.38,3.47-.8,5.2-1.21-.73.59-1.45,1.2-2.15,1.84s-1.38,1.3-2.09,1.92c-.42.36-.88.7-1.29,1.09v0l1.7-.29.44-.36c.7-.63,1.38-1.29,2.08-1.93,1.07-1,2.19-1.84,3.31-2.71,0,.2,0,.41,0,.61a4,4,0,0,0,0,1.19c.09.74,0,1.48.1,2.22l1.84-.3a.61.61,0,0,0,0-.19c-.14-.74,0-1.53-.1-2.28a5,5,0,0,1,.06-.85c0-.18,0-.37,0-.56l2.93,1.67a29.22,29.22,0,0,0,2.78,1.3l1.69-.28v0c-1.32-.61-2.7-1.12-4-1.84l-2.37-1.35c.75-.14,1.5-.26,2.26-.36,1.3-.17,2.58-.61,3.88-.77l-.09-1.89c-1.27.16-2.52.58-3.79.75-.69.09-1.37.2-2,.32.62-.54,1.25-1.09,1.92-1.57a29.35,29.35,0,0,0,3.7-3.17c0-.05,0-.1,0-.15l-1.35.21a40.87,40.87,0,0,1-3.24,2.63c-.8.6-1.54,1.27-2.29,1.93a5.94,5.94,0,0,0,0-.73,5.93,5.93,0,0,1,0-1.19,4.84,4.84,0,0,0-.1-1.32.76.76,0,0,0-.3-.44l-1.31.18a1.08,1.08,0,0,0-.21.87,3.42,3.42,0,0,1,0,1.06,6.12,6.12,0,0,0,0,1.21,7.31,7.31,0,0,1,0,.81c-.53-.26-1.08-.5-1.62-.76a24.09,24.09,0,0,0-2.29-1c-1-.37-2.06-.75-3.09-1.15-.5.1-1,.21-1.49.33a.66.66,0,0,0,0,.14C204.6,133,205.9,133.5,207.21,134Z" transform="translate(-41.95 -36.15)"/><path class="cls-15" d="M125.89,172.94a3.07,3.07,0,0,0,2.63,3.62" transform="translate(-41.95 -36.15)"/><path class="cls-8" d="M208,151.59a61,61,0,0,0-5.79,2.71c-.84.41-1.67.8-2.52,1.18-.14-.27-.27-.54-.42-.8.26-.15.53-.28.79-.44.45-.27.91-.53,1.37-.78.73-.38,1.45-.78,2.15-1.2l.07,0c.79-.44,1.57-.86,2.38-1.27a10.09,10.09,0,0,0,2.17-1.38,2.05,2.05,0,0,1,.4-.23,1.06,1.06,0,0,0,.54-1.46.82.82,0,0,0-.89-.77,8.52,8.52,0,0,0-3.14,1.4c-1.23.67-2.47,1.28-3.72,1.89l-3.75,1.82a4.48,4.48,0,0,0-.32-.44,12.16,12.16,0,0,0-.84-.93l.25-.08a56.72,56.72,0,0,0,6.7-2.62.83.83,0,0,0,.46-.56,2.35,2.35,0,0,0,.4-.18,1.14,1.14,0,0,0-1.65-1.5,1.3,1.3,0,0,1-.21.12,3,3,0,0,0-.43.11l-.24.11-.49.12-2.08.58a26,26,0,0,0-3.67,1.24,25.18,25.18,0,0,1-2.67,1,5.63,5.63,0,0,0-1.88.69,13.24,13.24,0,0,1-2.71,1,.76.76,0,0,0-.21.08.52.52,0,0,1-.22-.14,30.6,30.6,0,0,0,1.73-2.83,11.84,11.84,0,0,0,.77-1.92,2,2,0,0,0-.28-2,1,1,0,0,0-1.34,0,9.89,9.89,0,0,0-1.19,1.76c-.69.56-1.45,1.38-1.7,1.62-2,2-3.27,4.75-5.72,6.24-1.85,1.12-4.11,1.24-6.25,1.54-3.51.49-6.79,1.42-10.3,1.83q-6.33.74-12.66,1.41c-8.92.94-18.37.92-26.92,3.74-9.74,3.21-1.94,16.11,3.39,20,11.92,8.71,27.77.93,38.65-5.64l8.72-5.25c6.28-3.79,13.48-5.25,20.21-8,2.2-.7,4.36-1.56,6.52-2.38a21.47,21.47,0,0,0,2.74-1.41,13.59,13.59,0,0,0,2.39-1.55l.19-.08c1.15-.39.66-2.23-.51-1.84l-.3.12a.94.94,0,0,0-.33.14c-.78.37-1.53.89-2.31,1.26s-1.65.75-2.5,1.1a4.05,4.05,0,0,0-.12-.85c.83-.39,1.65-.8,2.49-1.16,1.15-.5,2.18-1.25,3.31-1.8.88-.44,2.16-.8,2.49-1.85C209.35,152.32,208.87,151.25,208,151.59Z" transform="translate(-41.95 -36.15)"/><path class="cls-15" d="M167.67,155.51c-5.66,1.57-12.71,1-18.6,1.56-3.82.4-8.66,1-12,2.39" transform="translate(-41.95 -36.15)"/><path class="cls-15" d="M162.08,212.09c.13,10.43-12.69,19.59-12,30" transform="translate(-41.95 -36.15)"/><path class="cls-15" d="M137.39,268.31a18.81,18.81,0,0,0-7.84,8.92" transform="translate(-41.95 -36.15)"/><path class="cls-15" d="M201.61,99.74a19.7,19.7,0,0,1-6.2.78" transform="translate(-41.95 -36.15)"/><path class="cls-16" d="M187.55,91a9.73,9.73,0,0,1-7.63,4.71,2,2,0,0,0-1.18.3,1.91,1.91,0,0,0-.46,1.24,8.69,8.69,0,0,1-1.5,4.21,4.27,4.27,0,0,1-3.91,1.78,4.33,4.33,0,0,1-3.65,4.59" transform="translate(-41.95 -36.15)"/><rect class="cls-11" x="242.64" y="202.35" width="131.53" height="128.25"/><line class="cls-15" x1="238.49" y1="243.76" x2="378.62" y2="243.76"/><line class="cls-15" x1="238.49" y1="290.14" x2="378.62" y2="290.14"/><line class="cls-17" x1="33.61" y1="202.35" x2="33.61" y2="396.03"/><line class="cls-17" x1="374.18" y1="202.35" x2="374.18" y2="396.03"/><line class="cls-18" x1="15.23" y1="202.56" x2="392.68" y2="202.56"/><line class="cls-15" x1="325.33" y1="204.28" x2="325.33" y2="333.56"/><path class="cls-15" d="M383.25,259.67a7.22,7.22,0,0,1,14.43,0" transform="translate(-41.95 -36.15)"/><path class="cls-15" d="M383.25,305.07a7.22,7.22,0,1,1,14.43,0" transform="translate(-41.95 -36.15)"/><path class="cls-15" d="M383.25,349.51a7.22,7.22,0,0,1,14.43,0" transform="translate(-41.95 -36.15)"/><circle class="cls-6" cx="304.61" cy="96.99" r="23.26"/><polyline class="cls-19" points="303.15 79.82 299.55 96.77 312.84 91.6"/><circle class="cls-20" cx="342.59" cy="131.19" r="23.26" transform="translate(92.12 396.87) rotate(-76.31)"/><path class="cls-19" d="M342.88,150.58a15.61,15.61,0,0,0-.14,3.32" transform="translate(-41.95 -36.15)"/><path class="cls-19" d="M319.21,132.44c1-.32,2.12,0,3.18-.27" transform="translate(-41.95 -36.15)"/><path class="cls-19" d="M342.33,108.35c0,1.2-.36,2.28-.28,3.47" transform="translate(-41.95 -36.15)"/><path class="cls-19" d="M365.73,130c-1.52,0-3.12.36-4.57.28" transform="translate(-41.95 -36.15)"/><polygon points="358.39 83.37 359.89 80.26 361.44 83.34 365.35 83.12 365.3 83.13 362.14 86.22 364.83 90.21 359.87 88.14 355.55 90.28 357.38 86.27 354.32 83.65 358.39 83.37"/><polygon points="91.79 171.3 93 168.75 94.27 171.28 97.44 171.09 97.39 171.1 94.83 173.63 97.01 176.89 92.99 175.21 89.48 176.96 90.96 173.67 88.49 171.53 91.79 171.3"/><polygon points="4.62 169.09 6.07 166.07 7.58 169.06 11.37 168.84 11.32 168.86 8.26 171.86 10.86 175.72 6.05 173.72 1.86 175.8 3.63 171.9 0.67 169.36 4.62 169.09"/><polygon points="43.79 38.31 45.01 35.78 46.27 38.29 49.44 38.1 49.4 38.12 46.84 40.63 49.02 43.87 44.99 42.19 41.48 43.93 42.96 40.67 40.48 38.53 43.79 38.31"/><path class="cls-19" d="M391,108.5a4.89,4.89,0,1,1-4.88-5.22A5.06,5.06,0,0,1,391,108.5Z" transform="translate(-41.95 -36.15)"/><path class="cls-19" d="M133.21,81.86a4.85,4.85,0,1,1-4.84-5.18A5,5,0,0,1,133.21,81.86Z" transform="translate(-41.95 -36.15)"/><path class="cls-19" d="M98.12,267a5.1,5.1,0,1,1-10.18,0" transform="translate(-41.95 -36.15)"/><ellipse class="cls-19" cx="380.59" cy="41.56" rx="2.04" ry="2.18"/><path class="cls-19" d="M273.24,147a4.59,4.59,0,1,1,9.17,0" transform="translate(-41.95 -36.15)"/><path class="cls-19" d="M410,79.22a4.27,4.27,0,1,1,0-8.54" transform="translate(-41.95 -36.15)"/><path class="cls-19" d="M114.75,86.94a3.74,3.74,0,0,1,0,7.48" transform="translate(-41.95 -36.15)"/><polyline class="cls-18" points="212.77 411.23 235.94 320.04 268 318.94 291.18 411.23"/><polyline class="cls-18" points="199.7 411.23 222.88 322.25 254.93 321.14 278.11 411.23"/><path class="cls-6" d="M275.7,385.05q-2.56-.49-5.11-1.1a125.34,125.34,0,0,1-18.84-6.17c-18.52-7.73-22.87-29.29-28.84-46.13-6.23-17.59-11.59-34.79-11.4-53.8.14-13.16,3.49-26.69,11.82-36.87,11.29-13.8,33.67-19.69,48.23-7.62C283,242.87,282,254.52,282,268c0,15.13,4.08,29.34,2.95,44.54,21.43,2.19,49.21,3.79,68.73,13.46,6.05,3,11.34,7.91,13.73,14.21a26.38,26.38,0,0,1-.31,18.18c-5.22,14.33-18.36,24.87-33.17,27.66C316.07,389.36,293.45,388.53,275.7,385.05Z" transform="translate(-41.95 -36.15)"/><path class="cls-8" d="M433.24,439.63a3.21,3.21,0,0,0-.32-4.54,280.11,280.11,0,0,1-24.39-24c-1.89-2.07-4-4.3-6.75-4.74a9.34,9.34,0,0,0-5.51,1.16,13.44,13.44,0,0,0-6.4,6.73c-4.9,11.7,10.12,21.47,18,26.78a87.3,87.3,0,0,1,10.86,9.14,3.2,3.2,0,0,0,4.49-.1C426.64,446.62,430,443.3,433.24,439.63Z" transform="translate(-41.95 -36.15)"/><path class="cls-10" d="M461.76,433.46a31,31,0,0,0,1.72-3.12c.86-1.77,1-4.2-.49-5.42s-3.6-.6-5.33.09c-6.52,2.59-12.62,6.16-19.19,8.63a17.55,17.55,0,0,1-3.17,1,22.91,22.91,0,0,0-2.71.12c-1.49.65-3.24,3.9-4.32,5.16q-4.71,5.55-9.75,10.8l.75.7c1,.88,2,1.78,3,2.62,3.59,3,7.43,8,11.66,4.83.78-.59,3.2-2.82,3.95-3.43,4.11-3.3,8.22-7.1,12.2-10.62,2.64-2.34,5.48-4.45,8.06-6.85A22.05,22.05,0,0,0,461.76,433.46Z" transform="translate(-41.95 -36.15)"/><path class="cls-21" d="M405.37,439.37q2.17-3.81,4.13-7.72a139.06,139.06,0,0,0,5.8-13.39q-3.45-3.5-6.77-7.13c-1.89-2.07-4-4.3-6.75-4.74a8.67,8.67,0,0,0-4.72.79,13.53,13.53,0,0,0-8,9.66C387.35,426.28,397.9,434.27,405.37,439.37Z" transform="translate(-41.95 -36.15)"/><path class="cls-22" d="M332.58,353.79l-2.1-1.54c6.63-9,9.19-19.1,7.21-28.39-2.14-10.07-9.73-18.92-20.32-23.68-16.61-7.47-37.48-4.47-57.56-.11l-.55-2.55c20.51-4.45,41.88-7.49,59.18.28,11.34,5.1,19.49,14.63,21.8,25.52C342.38,333.35,339.66,344.17,332.58,353.79Z" transform="translate(-41.95 -36.15)"/><path class="cls-8" d="M352.37,322.93a13.75,13.75,0,0,0-2.11-7.38,10.27,10.27,0,0,0-10.91-3.8c-3.73,1.07-6.48,4.17-8,7.76A26.55,26.55,0,0,0,329.6,326c-.27,1.72-.42,3.48-.55,5.23-.41,5.88-.89,12.17,0,18.15.07.44.16.86.26,1.27.59.57,1.15,1.17,1.78,1.71l1.14.79a26.42,26.42,0,0,0,5.14,1.68,25.43,25.43,0,0,0,5.39,1.45l.82.07c.12-.26.25-.59.41-1,1.53-4.15,4.13-14.84,5.67-19a50.71,50.71,0,0,0,2.07-6.5A27.18,27.18,0,0,0,352.37,322.93Z" transform="translate(-41.95 -36.15)"/><path d="M329.91,334.56c1.72,1.05,3.89,1,5.81,1.43,1.16.23,2.3.58,3.45.87s2.35.59,3.5.95a41.64,41.64,0,0,1,5.74,2.49c.47-1.58.9-3,1.27-4a49.56,49.56,0,0,0,2.08-6.49,27.3,27.3,0,0,0,.61-6.9,13.77,13.77,0,0,0-2.11-7.38,10.27,10.27,0,0,0-10.91-3.8c-3.73,1.07-6.48,4.17-8,7.76A26.55,26.55,0,0,0,329.6,326c-.27,1.72-.42,3.48-.55,5.23-.05.77-.1,1.55-.16,2.33A2.79,2.79,0,0,0,329.91,334.56Z" transform="translate(-41.95 -36.15)"/><path class="cls-23" d="M387.43,446.7c4.92-5.1,9.66-10.36,14.3-15.72,6.11-7.07,17.52-16.4,20.24-25.74a1.38,1.38,0,0,0-.69-1.6c-3.79-2-16.75-12.68-18.14-14-8-7.58-16-15.08-25.12-21.28-16.56-11.2-34.66-22.15-54.48-26.36-5.61-1.19-11-1-16.29-3-6.13-2.36-12.09-5.23-18.17-7.71-7.42-3-14.35-7.12-21.8-10.07-6.33-2.51-14.39-2.3-19.74,2.32-7.15,6.17-5.89,15.25-2.55,23.2,5.28,12.56,13.65,17.67,26.16,21.7,23.75,7.64,49.22,12.93,67.59,30.74C355,415,369.83,432.46,387.43,446.7Z" transform="translate(-41.95 -36.15)"/><path class="cls-9" d="M302.93,249.5c-5.07-7.6-21.58-6.41-29.55-7.12-2.16-.19-5.87.78-8,1.14a12.9,12.9,0,0,0-5.8,1.94c-17.86,10.72-27.73,27.25-27.36,48.31.25,14.3,4.62,28.07,9.23,41.48.25.75.46,1.38.65,1.92l1.85-.52a151.35,151.35,0,0,0,16.5-5.52,79.54,79.54,0,0,0,14.69-8c4.71-3.22,9-6.94,13.48-10.51,3.63-2.93,7.93-2.87,11.27-6.13a76.09,76.09,0,0,1-2.73-7.63,31.09,31.09,0,0,1-1.17-9.71c0-4-.42-8.9.9-12.69a7.88,7.88,0,0,1,1.15-2c2.79-4,5.35-6.86,5.83-11.75C304.27,258.7,305.2,252.9,302.93,249.5Z" transform="translate(-41.95 -36.15)"/><path d="M261.13,301.08A126.74,126.74,0,0,0,264,284.22a12.39,12.39,0,0,1,.83-4c-.06.13,1.37,3,1.47,3.45a12.21,12.21,0,0,1,.13,3.46c-.18,2.73-1.41,5.72-.91,8.45.34,1.85,1.6,3.53,1.51,5.42-.13,2.76-3,4.55-4.05,7.12-.92,2.3-.14,5.56-1.93,7.48-.81.87-2.21,1.4-3,.22s.44-4.77.77-6.24C259.4,306.75,260.45,304,261.13,301.08Z" transform="translate(-41.95 -36.15)"/><path class="cls-24" d="M302.59,310.46a35.58,35.58,0,0,0-2.87-5.68c-.29-.54-.57-1.08-.82-1.65a3.55,3.55,0,0,0-.3-.58c-.4.27-.82.53-1.24.77-2,1.17-4.05,2.38-6.09,3.53-3.84,2.16-7.73,4.26-11.64,6.31-3.73,2-7.52,4-11.39,5.67a52.11,52.11,0,0,1-5.71,2c-2.08.62-4.13,1.34-6.22,1.91l-2,.54c-.18.05-.35.12-.53.18-2.09.68-4.54,1.72-4.86,3.89a5.74,5.74,0,0,0,.4,2.51c1,3.16,2.23,9.32,5.87,9.46,1.58.06,4-.68,5.71-.8a51.3,51.3,0,0,0,7.1-.94,125.44,125.44,0,0,0,15.44-4.45C292.7,329.86,306.73,322.85,302.59,310.46Z" transform="translate(-41.95 -36.15)"/><path class="cls-23" d="M342.34,275c-.35-.19-.69-.38-1-.55-1.91-1-3.93-2-6.07-1.91a12.56,12.56,0,0,0-5.76,2.23c-9,5.36-17.82,11.08-25.71,17.95s-14.87,14.95-19.57,24.3a24.82,24.82,0,0,0-2.88,8.73,30.89,30.89,0,0,0,.37,6.92c.62,4.82.43,9.2,5.53,11.27a38.33,38.33,0,0,0,6.83,1.6c4.47.9,9.34,3.64,13.52.84,9.54-6.42,18.56-16.33,21.95-26.05,4.47-12.76,15.13-22.52,20.73-34.82,1-2.2,2.56-6.88-.36-8.36-1-.51-2.37-.13-3.45-.35A14.77,14.77,0,0,1,342.34,275Z" transform="translate(-41.95 -36.15)"/><path class="cls-23" d="M359.39,284.4c-.11-3.26-.15-7.24-1.56-10.24s-5.21-5.34-8.28-6.1a10.89,10.89,0,0,0-10.48,2.87,23.22,23.22,0,0,0-3.17,5.16c-3,6-6.54,11.6-9.55,17.57a23.33,23.33,0,0,0-1.54,3.56c-.41,1.38,3.32,4.2,3.17,5.63-.49,5-1.89,10.75-2.38,15.71l-3.21,11.74c4.07-.16,6.49,2.09,10.29,3.27a37.2,37.2,0,0,0,7.95,1.23c1.56.13,18,1.88,17.79.27-1.08-10.21.57-20.49,1.06-30.74C359.79,297.69,359.61,291,359.39,284.4Z" transform="translate(-41.95 -36.15)"/><path class="cls-9" d="M288.37,275.07a4.48,4.48,0,0,0,4.88,3.95,12.11,12.11,0,0,0,3.38-1.34,14.71,14.71,0,0,1,9.45-1c6,1.41,11.13.07,16.94-.76a92.66,92.66,0,0,0,19.41-4.82,34.68,34.68,0,0,0,8.78-4.49c3.09-2.32,5.64-5,6.8-8.79a7.93,7.93,0,0,0-1.08-7.31c-1.1-1.32-.72-2.5-2.34-3-5-1.65-12.3-1.15-17.52-1.14a413.82,413.82,0,0,1-46.42-2.55c-4.09-.46-3.24,5.65-2.6,8.33.71,2.92,2.46,5.74,2.6,8.72a26,26,0,0,1-.91,8C289.23,270.73,288.23,273.13,288.37,275.07Z" transform="translate(-41.95 -36.15)"/><path class="cls-19" d="M307.47,271.45a22.77,22.77,0,0,1-8.3-6.91" transform="translate(-41.95 -36.15)"/><path class="cls-9" d="M244.22,253.91c-11.76,13.45-19.13,67.09-11.63,67.87,6.08.64,18.95-2.19,23.27-7.42,1.94-2.33,2.56-5.45,3.11-8.43q1.15-6.15,2.3-12.29c3.13-16.73,7-33.93,3.48-50.58C253.66,244.54,249.15,248.28,244.22,253.91Z" transform="translate(-41.95 -36.15)"/><path class="cls-6" d="M277.44,327.74c11.33,5.33,19.47,15.31,21.78,26.67a36.53,36.53,0,0,1-.35,16.86c-1.12,4.18-3.68,12.45-8.53,13.61a14.26,14.26,0,0,1-5.63-.18l-6.17-1c-3.27-.54-6.84-1.14-9.39-3.42a20.58,20.58,0,0,0-7.18-4.43c-9.57-3.78-19.71-8-25.52-16.49-2.7-3.92-4.26-8.51-6.78-12.55-2-3.24-4.67-6.11-6.4-9.52a13.69,13.69,0,0,1-1.63-7.2c.3-3.48,1.44-3.72,4.57-4.34A160.91,160.91,0,0,1,244,323.1C255.26,322.15,267,322.85,277.44,327.74Z" transform="translate(-41.95 -36.15)"/><path class="cls-19" d="M323.67,330.91c-.6-4.45,5.32-24.82,5.43-29.3s-1.18-6.43,1-10.44" transform="translate(-41.95 -36.15)"/><path class="cls-19" d="M264.75,275.82c-1.11,10.42-2.74,20.79-4.88,31.05a24.75,24.75,0,0,1-2.14,6.77,13,13,0,0,1-4.13,4.54" transform="translate(-41.95 -36.15)"/><path class="cls-19" d="M298.08,375.54c-1.29,3.74-3.11,5.13-6.21,7.38" transform="translate(-41.95 -36.15)"/><path class="cls-6" d="M274.92,283.26a9,9,0,0,1-.87-2,6.25,6.25,0,0,1-.39-1.9c0-.16.07-.35.22-.38a.76.76,0,0,1,.65-1.22,1,1,0,0,1,.13-.8c.34-.46,1.19-.57,1.71-.66a53.37,53.37,0,0,1,7-.62c4.78-.21,9.57-.42,14.36-.41a1.88,1.88,0,0,0,.85-.13,1.71,1.71,0,0,0,.47-.38l4.85-4.83,6.3-6.28,1.58-1.57a9.12,9.12,0,0,1,1.3-1,7.29,7.29,0,0,1,3.09-1.67,3.87,3.87,0,0,1,.69-.05c.27,0,.6.09.62.35a2.36,2.36,0,0,1,.91-.09.78.78,0,0,1,.67.54.28.28,0,0,0,.06.15.25.25,0,0,0,.15,0,2.84,2.84,0,0,1,.91-.11c.31.05.6.33.53.63a1,1,0,0,1,1.13.24c.81.78.93,2.23,1.18,3.27.3,1.24.56,2.5.87,3.74a9.61,9.61,0,0,1,.38,2.31,7.53,7.53,0,0,1-.55,2.56c-2,5.29-6.41,9.27-11.06,12.47a61.36,61.36,0,0,1-21.95,9.69,12.42,12.42,0,0,1-5.07.27,21.18,21.18,0,0,1-4-1.46c-1.22-.54-1.48-1.42-2.17-2.61Z" transform="translate(-41.95 -36.15)"/><path class="cls-4" d="M300.2,276.25s19.35,39,19.85,39.89l22.41-16.84L323.31,261a1,1,0,0,0-1.43-.35Z" transform="translate(-41.95 -36.15)"/><path class="cls-4" d="M299.36,276.9s19.47,38.76,20,39.67l-27.68,3.14L273,281.5a1.15,1.15,0,0,1,.9-1.65Z" transform="translate(-41.95 -36.15)"/><path d="M322,315.58c.05-.25-.11-.45-.2-.68s-.28-.65-.43-1c-.29-.62-.61-1.21-.91-1.82-1-2.07-2.1-4.11-3.18-6.15-2-3.87-4.11-7.73-6.14-11.6-1.72-3.28-3.36-6.6-5-9.93-.82-1.68-1.65-3.35-2.49-5L302.39,277c-.15-.28-.3-.55-.47-.81s-.43-.75-.82-.8a1,1,0,0,0-.45.08,14.82,14.82,0,0,0-2.06.84,7.34,7.34,0,0,0-1,.6c-.14.1-.2.12-.21.3a1.62,1.62,0,0,0,.16.57c.55,1.21,1.16,2.41,1.75,3.61s1.24,2.4,1.86,3.6c.28.55.56,1.1.83,1.66,4,8.32,8.19,16.05,12.36,24.3.05.1.1.21.16.31.65,1.31,1.28,2.63,1.9,4,.16.33.32.66.47,1s.22.57.37.81c.27.45,1.2.3,1.63.24a8,8,0,0,0,1.68-.39,2.8,2.8,0,0,0,.92-.53,1.51,1.51,0,0,0,.44-.68A.08.08,0,0,0,322,315.58Z" transform="translate(-41.95 -36.15)"/><path class="cls-19" d="M222.11,256.43c-1.47,5.75-4.21,17.76-4,23.68" transform="translate(-41.95 -36.15)"/><path class="cls-19" d="M289.65,355.55a19.72,19.72,0,0,1,2.8,14.2" transform="translate(-41.95 -36.15)"/><path class="cls-8" d="M302.11,302.22a63.6,63.6,0,0,1-9.38,4.68,8.87,8.87,0,0,1-4.24.77,5.55,5.55,0,0,1-3.23-1.45l-2.43,3.67a6.13,6.13,0,0,1-3.68,2.95c-5.41,1-11.45-1.46-16.73-2.33a120.13,120.13,0,0,0-25.56-1,14.21,14.21,0,0,0-4.27.65,4.81,4.81,0,0,0-3,2.88,6.67,6.67,0,0,0-.16,2.4c.23,3.37.92,6.82,2.87,9.57,3.17,4.45,9,6.18,14.51,6.27a133.75,133.75,0,0,0,19.46-1.63,181.14,181.14,0,0,0,20.16-3.63,94.49,94.49,0,0,0,11.17-3.5c4.91-1.91,10-4.23,12.91-8.9.31-.49.56-1.2.15-1.6s-1.09-.15-1.57.15c-2,1.28-3.67,3.11-5.74,4.39-.45.28-1,.54-1.47.24a4.63,4.63,0,0,1,1.67-1.39,34.85,34.85,0,0,0,5.18-4.46,7.08,7.08,0,0,0,2.05-2.81,1,1,0,0,0-.09-1c-.28-.3-.78-.2-1.16,0a20.64,20.64,0,0,0-4.11,2.95,58.17,58.17,0,0,1-4.82,3.26,2.61,2.61,0,0,1-1.47.51c.08-.6.64-1,1.15-1.32a45.19,45.19,0,0,0,7.78-6.42,3.65,3.65,0,0,0,1-1.52,1.31,1.31,0,0,0-.65-1.56,1.78,1.78,0,0,0-1.48.3c-3.47,1.92-6,5.27-9.57,7-.25.12-.87.36-1.12.13s.26-.6.56-.83c.81-.6,1.6-1.21,2.39-1.83,1.57-1.25,3.11-2.55,4.6-3.89a3.09,3.09,0,0,0,.87-1.07,1.1,1.1,0,0,0-.25-1.28c-.51-.38-1.22,0-1.77.29Z" transform="translate(-41.95 -36.15)"/><path class="cls-19" d="M314.67,340.74c-4-.74-8-1.95-12-2.78-2.49-.51-5-.88-7.53-1.24" transform="translate(-41.95 -36.15)"/><path class="cls-8" d="M362.73,253.64a13.23,13.23,0,0,0-1.87-2.85,10.44,10.44,0,0,0-9.08-3.8c-3.92.57-7,3.91-8.42,7.6s-1.61,7.73-1.89,11.69a35.25,35.25,0,0,1-1.27,8.11,4.46,4.46,0,0,1-2.63,3.3,19.8,19.8,0,0,1-2.63.88,15.26,15.26,0,0,1-2,.66.33.33,0,0,0-.27.46,7.15,7.15,0,0,1,.58,1.85c.34,1.76-.42,2.52-1.73,3.45a45.12,45.12,0,0,1-8.91,4.94,3.59,3.59,0,0,0-1.5.93,1.37,1.37,0,0,0,0,1.71,1.66,1.66,0,0,0,1.76.18c3.14-1,6.22-2.37,9.31-3.54a.78.78,0,0,1,.61-.06,2.22,2.22,0,0,1-1.07,1.09,46.28,46.28,0,0,1-8.06,3.79c-.72.26-5.93,1.78-3.47,3.4a2.29,2.29,0,0,0,1.63.2,19.47,19.47,0,0,0,6-2.09c1.91-1,3.78-1.85,5.76-2.67a11.67,11.67,0,0,1-3.65,2.71c-1.58.77-3.24,1.38-4.76,2.27-.89.52-2.14,2.2-.32,2.41a3.36,3.36,0,0,0,1.4-.24,41.42,41.42,0,0,0,10.26-5.08,18.48,18.48,0,0,1-5.1,4.25c-.77.45-3.82,2.21-1.75,3.06a2.42,2.42,0,0,0,1.46,0,10.33,10.33,0,0,0,3.05-1.59c4.14-2.86,7.76-6.32,11.61-9.55,3.11-2.62,5.6-6.14,8-9.4a75.28,75.28,0,0,0,7.46-12.26c1.57-3.28,2.95-6.8,2.84-10.43A13.42,13.42,0,0,0,362.73,253.64Z" transform="translate(-41.95 -36.15)"/><path class="cls-19" d="M390.37,413.29a34,34,0,0,0,9.05-2.94" transform="translate(-41.95 -36.15)"/><path class="cls-19" d="M335.79,356.76a8.15,8.15,0,0,0,3.92-.74" transform="translate(-41.95 -36.15)"/><path class="cls-19" d="M353.92,307.47q-3.24,8.56-7.08,16.89" transform="translate(-41.95 -36.15)"/><path class="cls-19" d="M351,325.43l-5.86,3.94" transform="translate(-41.95 -36.15)"/><path class="cls-19" d="M253.08,251.53a33.77,33.77,0,0,0-6.12,6.35" transform="translate(-41.95 -36.15)"/><path class="cls-8" d="M274,229.32c-.08,1.22,2.51,4,3.3,4.82a11.5,11.5,0,0,0,4.46,3.09c4.56,1.71,9.3,1.8,12.79-2a20.92,20.92,0,0,0,3.69-6.29c1.4-3.45,3.29-12.92,2.31-16.51-.89-3.26-4.35-.35-7.56-1.4-2.8-.92-4.93-1.74-7.89-1.18a11,11,0,0,0-6.79,4,21.23,21.23,0,0,0-1.2,1.77,39.87,39.87,0,0,0-2.18,5.78,39.24,39.24,0,0,0-.84,5Q274.08,227.9,274,229.32Z" transform="translate(-41.95 -36.15)"/><path class="cls-8" d="M272.44,251.1c2.41,1.63,7.87,4.5,10.66,3.1,2.28-1.13,4.42-2.39,4.43-5a21.87,21.87,0,0,1,1.64-8.87c.27-.65,2.67-4.66,2.41-5.1a1.6,1.6,0,0,0-.28-.35,3.26,3.26,0,0,0-2.33-.52,14.59,14.59,0,0,1-8.42-2.64,24.51,24.51,0,0,1-3.3-2.81c-.58-.58-1.68-2.62-2.57-2.68a.52.52,0,0,0-.21.07c-1,4.19-1,8.09-3.45,11.86-.93,1.43-3.34,4.49-6,5A24.47,24.47,0,0,0,272.44,251.1Z" transform="translate(-41.95 -36.15)"/><path d="M306.08,207.7a11.31,11.31,0,0,0-4.58-6.48c-2.69-1.87-6.39-2.62-9.26-1.05-2.45,1.34-3.87,4.08-6.23,5.58s-5.66,1.58-8.46,2.56a12.83,12.83,0,0,0-6.42,5.27c-.7,1.08-2.34,6.4-3.05,6.81a46,46,0,0,0-12.89,4.9,21.25,21.25,0,0,0-9,10.14c-1.42,3.68-1.22,8.42,1.85,10.9a8.45,8.45,0,0,0,6.95,1.39,18.31,18.31,0,0,0,6.56-3.13,24.82,24.82,0,0,0,7.73-8,13.38,13.38,0,0,0,1.31-10.78c.64,1.58,2.29,4.69,4.39,4.36a3,3,0,0,0,2-1.7,16.75,16.75,0,0,0,1.06-4.74,4.91,4.91,0,0,1,1.28-2.91,27.25,27.25,0,0,1,2.44-1.63c6.7-4.21,26.21,3.48,24.52-10.49A8.87,8.87,0,0,0,306.08,207.7Z" transform="translate(-41.95 -36.15)"/><path class="cls-8" d="M284.23,219.78a4.46,4.46,0,0,0-1.06-2.51,3.92,3.92,0,0,0-3.59-1.6,4.89,4.89,0,0,0-4.09,3.42c-1.3,4.07,2.84,7.58,6.35,5.57A5.1,5.1,0,0,0,284.23,219.78Z" transform="translate(-41.95 -36.15)"/><path class="cls-19" d="M278.67,217.69c.81-.21,2.28.73,3.09,2s.82,2.59,0,2.82" transform="translate(-41.95 -36.15)"/><path class="cls-16" d="M289.11,214a4.37,4.37,0,0,0,5.47-2.36,5.41,5.41,0,0,0,4.78,1.65,4.38,4.38,0,0,0,3.48-3.51" transform="translate(-41.95 -36.15)"/><g class="cls-25"><path d="M295.79,237a11.58,11.58,0,0,1-9.23-.36,4.69,4.69,0,0,0-1.45-.56,1.11,1.11,0,0,0-.86,2,4.47,4.47,0,0,0,1.46.65,13.17,13.17,0,0,1,2.87,1.34,10.46,10.46,0,0,0,3.27,1.71,3.87,3.87,0,0,0,4-1.75" transform="translate(-41.95 -36.15)"/></g><path class="cls-19" d="M264.83,243.27c3.18,4.94,7.77,9.22,13.42,10.85a7.75,7.75,0,0,0,5.86-.2c1.76-1,2.74-2.89,3.61-4.7" transform="translate(-41.95 -36.15)"/><path class="cls-19" d="M287.9,230.83a6.75,6.75,0,0,0,4,2.12" transform="translate(-41.95 -36.15)"/><path class="cls-19" d="M294.6,312.74a13.63,13.63,0,0,1-2.23,1.11" transform="translate(-41.95 -36.15)"/><path class="cls-19" d="M296,316.21a14.06,14.06,0,0,1-1.64.93" transform="translate(-41.95 -36.15)"/><path class="cls-19" d="M297.79,319.41a2.89,2.89,0,0,0-1.14.37" transform="translate(-41.95 -36.15)"/><path class="cls-19" d="M335.52,287.21l1.73-.74" transform="translate(-41.95 -36.15)"/><path class="cls-19" d="M337.6,290.38l.93-.65" transform="translate(-41.95 -36.15)"/><path class="cls-19" d="M339.75,292.81a4.57,4.57,0,0,0,1.14-1.22" transform="translate(-41.95 -36.15)"/><path class="cls-19" d="M361.14,253.93a10.43,10.43,0,0,1,1,5.41" transform="translate(-41.95 -36.15)"/><path class="cls-6" d="M309.9,279c.91-.13,1.82-.28,2.72-.46l-.51.37a16.79,16.79,0,0,0-1.91,1.55c-.26.26-.51.54-.76.8s-.51.44-.75.68l2.38,3.24a5.31,5.31,0,0,0,1.22-.76l1.11-.89a7.87,7.87,0,0,0-.61,1.44c-.17.57-.44,1.1-.65,1.66l.66.89,2.91-2.19c.4-1,.7-2,1-3.08.16-.54.37-1,.54-1.58l0-.12a16,16,0,0,0,1.89,2.2l2.79-2c-.3-.54-.7-1-1-1.57a8.4,8.4,0,0,0-.53-.87,8.13,8.13,0,0,0,1.22.13,14.76,14.76,0,0,0,3-.27c.3-.05.6-.08.91-.12l2.23-1.65-.64-.95a34.54,34.54,0,0,0-4.66.33l.77-.59c.82-.64,1.67-1.25,2.46-1.93-.77-1.18-1.54-2.36-2.32-3.53l-.72.47a16.46,16.46,0,0,0-1.44,1l.27-.67c.31-.72.66-1.46,1-2.22l-.85-1.2c-.85.63-1.71,1.24-2.57,1.86-.2.52-.4,1-.59,1.55-.38,1-.71,2-1,3.06a.11.11,0,0,0,0,.05c-.14-.25-.29-.5-.44-.74-.29-.47-.6-.93-.92-1.37-.06-.09-.13-.17-.19-.25-1,.72-2,1.43-3.06,2.14a5.52,5.52,0,0,0,.16.54q.33.87.69,1.74h-.1c-1,0-2,0-3,.14l-1.35.15c-1.06.78-2.09,1.6-3.09,2.45l.6.85C307.82,279.15,308.86,279.1,309.9,279Z" transform="translate(-41.95 -36.15)"/><path class="cls-12" d="M311,277.9c1-.15,2-.25,3-.3l1.26-.07c-1.9,1.6-3.76,3.25-5.68,4.84a1.07,1.07,0,0,0-.27.34l1,1.36a1,1,0,0,0,.77-.24c1.51-1.25,3-2.53,4.47-3.8-.39.93-.77,1.87-1.1,2.84s-.63,1.93-1,2.88c-.21.56-.48,1.12-.67,1.69l0,0,1.51-1.14c.08-.19.17-.38.23-.56.35-1,.65-1.93,1-2.89.51-1.46,1.12-2.86,1.74-4.26a4.91,4.91,0,0,1,.33.59,4.72,4.72,0,0,0,.68,1.12c.51.65.81,1.41,1.34,2.05l1.65-1.21a.72.72,0,0,0-.11-.19c-.55-.62-.86-1.44-1.37-2.1a4.71,4.71,0,0,1-.42-.84c-.09-.18-.2-.35-.31-.53l3.83.09a33.6,33.6,0,0,0,3.47-.18l1.51-1.12a.08.08,0,0,1,0,0c-1.66.1-3.3.32-5,.29l-3.09-.07c.66-.51,1.33-1,2-1.5,1.2-.82,2.21-1.89,3.41-2.7l-1.14-1.75c-1.17.81-2.16,1.84-3.33,2.65-.63.44-1.24.89-1.84,1.35a26.7,26.7,0,0,1,1-2.47,29.79,29.79,0,0,0,1.88-4.88l-.1-.14-1.22.89c-.49,1.41-1.1,2.77-1.73,4.14-.45,1-.81,2-1.18,3-.14-.22-.28-.46-.44-.67a6.51,6.51,0,0,1-.63-1.16,5.51,5.51,0,0,0-.83-1.19.89.89,0,0,0-.55-.26l-1.19.83a1.11,1.11,0,0,0,.28.93,4.09,4.09,0,0,1,.6,1,6.52,6.52,0,0,0,.69,1.14,7.48,7.48,0,0,1,.48.76l-2,.1c-.94,0-1.88.13-2.8.26q-1.85.27-3.69.48c-.44.35-.87.71-1.3,1.08l.09.12C307.83,278.32,309.39,278.14,311,277.9Z" transform="translate(-41.95 -36.15)"/><path d="M51,437.55c-2.48-1.74-13-8.22-7.36-11.11,5-2.54,9.57-2.58,14.21.54,1.88,1.26,4.37,3.35,6.58,3.92,3.86,1,6.06-4.62,8-7.14a33.58,33.58,0,0,1,10.27-9,9.3,9.3,0,0,1,5.31-1.56c3.75.33,6.13,4.6,5.78,8.34s-2.66,7-5,10c-4.37,5.68-9,11.22-13.38,16.81a2.83,2.83,0,0,1-2.89,1c-7.18-1.72-13.48-6.23-19.58-10.39Z" transform="translate(-41.95 -36.15)"/><path d="M96.07,439.31a57.08,57.08,0,0,1,5.86-.88,66.63,66.63,0,0,0,7-1.25,4.79,4.79,0,0,0,2-.85c2.79-2.33.08-9.45-.09-12.4a65.29,65.29,0,0,1,.75-14.24c.49-2.95,1.41-6.55,4-8.41,2.76-2,5.82-.61,8.78.7a11.23,11.23,0,0,1,4.69,3.41c1.68,2.34,1.74,5.44,1.74,8.32,0,5.79.09,11.38-.33,17.25a121,121,0,0,0-.05,14.38,4.74,4.74,0,0,1-.18,1.84c-.64,1.63-2.76,2-4.51,2.05-12.26.52-24.52-.08-36.77-.17a1.69,1.69,0,0,1-.89-.17c-.55-.34-.55-1.14-.41-1.78a9.93,9.93,0,0,1,4.15-6.06A13,13,0,0,1,96.07,439.31Z" transform="translate(-41.95 -36.15)"/><path class="cls-3" d="M97.16,347.29c3.52-3.89,8.8-6,14-6.63a44.68,44.68,0,0,1,19.63,2.17c9.42,3.2,19.56,12.21,26.31,19.51,18.84,20.37,39.46,39.08,56.32,61.11a13.89,13.89,0,0,1,2.74,4.8c1.27,4.86-1.9,9.12-6.32,12s-9.75,4.34-13.54,3.92a35.46,35.46,0,0,1-16.42-6.66c-7.56-5.41-13.36-12.87-19.44-19.91s-12.76-13.95-21.28-17.68a2.36,2.36,0,0,0-1.89-.23,5.66,5.66,0,0,0-2.34,2.83c-1,10.73,5.12,19.15,4.1,29.88l-34.25-1.21c-2.4-8.82-5.5-16.82-6.32-26a270.68,270.68,0,0,0-4.11-28.77c-.94-4.75-2-9.51-2.06-14.35s1-9.85,3.93-13.71C96.55,348,96.85,347.64,97.16,347.29Z" transform="translate(-41.95 -36.15)"/><g class="cls-26"><path d="M115.31,410.74c-.28.33-.55.67-.8,1-2.48,3.33-3.73,7.4-5.61,11.09-.9,1.76-2.09,3.57-4,4.2-5.9,2-4.68-8.16-1-9.77,1.81-.78,3.28-.79,4.61-2.29s2.06-3.87,3.21-5.54c1.59-2.32,3.42-4.37,4.7-6.9a72.67,72.67,0,0,0,4-10.63c1-3.07.75-6.37,3.28-8.72a2.54,2.54,0,0,1,1.57-.8c1,0,1.75.93,2.22,1.83,2,3.81,2.48,8.22,4,12.26,2.37,6.42,6.41,13.13,5.31,20.27-1.24-3.88-5.46-5.93-7.81-9.26-1.1-1.57-1.78-3.42-2.92-5a1.37,1.37,0,0,0-.67-.55,1.39,1.39,0,0,0-1.16.47C121.31,405,117.87,407.66,115.31,410.74Z" transform="translate(-41.95 -36.15)"/></g><path class="cls-23" d="M220.52,360.3a91.66,91.66,0,0,0-16.24-2.12c-2.07-.05-4.1-.47-5.48,1.21s-2.7,3.86-4.12,5.71a4.66,4.66,0,0,1-1.48,1.42,3.81,3.81,0,0,1-1.8.3,10.49,10.49,0,0,1-6.74-2.67q.42-5.67,1-11.31a34,34,0,0,1,1.21-6.81,42.49,42.49,0,0,1,5.24-10.93,22.26,22.26,0,0,1,3.58-3.48c1.11-.94,2.31-.9,3.62-1.26s2.66-1,4.11-1.3a15.77,15.77,0,0,1,15.43,6.35,22.1,22.1,0,0,1,3.39,10.66C222.66,350.88,221.29,355.6,220.52,360.3Z" transform="translate(-41.95 -36.15)"/><path class="cls-23" d="M188.22,363.28c-.09-7.61-1.09-15.43,1.2-22.68s9.23-13.84,16.72-12.51a18.77,18.77,0,0,1,7.33,3.47,51.44,51.44,0,0,1,17.63,22c4.69,11.26,5.21,23.77,5.26,36,.06,13.06-.22,26.89-8.71,36.81-2.88,3.35-7.19,6.46-11.52,7.31-5.26,1-10.65-.76-15.52-3a86.16,86.16,0,0,1-19-12c-6.51-5.38-5.9-7-2.52-14.07A93.76,93.76,0,0,0,188.22,363.28Z" transform="translate(-41.95 -36.15)"/><path d="M220.11,367.6c4.28-.86,8.16-3,12-5.19s7.69-4.33,12-5.17a7.56,7.56,0,0,0,4.06-2.33c1.37-1.76-1.32-3.86-3.21-5.05-2.89-1.84-5.49-1.63-8.9-1.26a64,64,0,0,0-12.09,2.53c-5.9,1.84-11,4.82-13.68,10.64C207.33,368.1,215.58,368.51,220.11,367.6Z" transform="translate(-41.95 -36.15)"/><path class="cls-27" d="M133.43,349.37c1.44.59,2.84,1.31,4.25,1.86,2.41.95,14.54,8.49,15.69,9l39.82,38.14L190,403.86c-10.65-13.18-32-28.43-32.34-28.6l-21.42-10.47a2.17,2.17,0,0,1-1.16-1.46l-2.61-11.65A2.15,2.15,0,0,1,133.43,349.37Z" transform="translate(-41.95 -36.15)"/><path class="cls-8" d="M219.06,387.27q-.93-3.69-2-7.33c-1.05-3.55-2.49-7-3.46-10.56-.72-2.62-.69-5.69-2.3-8s-4.62-4.1-6.43-6.5a28.77,28.77,0,0,1-4.72-9.09c-1.81-6.06-1.08-13.07,2.81-18.06,2-2.61,4.56-2.66,7.31-4s4.3-1.43,7.44-.52c6,1.77,11.2,6,14.91,11,2.5,6.68,7,12.4,9.09,19.52,2.11,7.29,3,15.09,4.45,22.56,1,5.38,2,10.82,1.72,16.28-.38,7-4.13,16-9.72,20.54a9.35,9.35,0,0,1-8.08,2.12,9.74,9.74,0,0,1-6-5.57,32.22,32.22,0,0,1-2.06-8.14Q220.84,394.37,219.06,387.27Z" transform="translate(-41.95 -36.15)"/><path class="cls-8" d="M137,356.13a5,5,0,0,1,.65-2.19,6.66,6.66,0,0,1,3.71-2.16A112.72,112.72,0,0,1,154,348.67a7.62,7.62,0,0,1,2.69-.16,6.93,6.93,0,0,1,3.16,1.75c3.05,2.56,4.89,6.16,7.89,8.67,3.9,3.26,8.72,5.63,13.26,7.85,5.57,2.73,10.6,5.58,16.46,7.85,7.56,3.1,15.52,5.16,23.24,7.88,4.57,1.6,9.19,3.24,13.23,5.92s7.48,6.55,8.64,11.26-.42,10.22-4.49,12.85c-4.46,2.88-4.05,4.27-9.05,2.47a252.86,252.86,0,0,1-23.47-10.54q-14.59-7.7-28.8-16.14c-8.64-5.14-17.29-12.46-26.45-16.38-3.7-1.58-10-4-12.06-7.69A16.85,16.85,0,0,1,137,356.13Z" transform="translate(-41.95 -36.15)"/><path class="cls-4" d="M129.48,303.43,119,313.48a.38.38,0,0,0-.12.32l1.39,10.72a.4.4,0,0,0,.35.34l10,.89a.38.38,0,0,0,.42-.4l-.86-21.66A.38.38,0,0,0,129.48,303.43Z" transform="translate(-41.95 -36.15)"/><path class="cls-11" d="M145.34,315.69a1.27,1.27,0,0,0-.4-.57,7.8,7.8,0,0,0-2.73-1.55,29.45,29.45,0,0,0-6.09-1.27c-.78-.08-1.56-.08-2.35-.09h-1.13c-.28,0-.84.16-1-.08s-.17-1.35-.2-1.72c-.1-1.2-.15-2.4-.16-3.6a13.79,13.79,0,0,0-.11-1.93.73.73,0,0,0-1.25-.37c-.3.31-.58.63-.87.95a20.36,20.36,0,0,1-1.5,1.43c-.8.77-1.63,1.51-2.43,2.28-1.52,1.44-3.71,3.28-5.14,4.81-.41.44-.21.61-.07,1.17.06.27.47.36.51.63l.27,2.09c.22,1.66.43,3.31.65,5l.25,1.91a.73.73,0,0,0,1,.59L133.38,321l7.57-3C141.62,317.72,145.6,316.59,145.34,315.69Z" transform="translate(-41.95 -36.15)"/><polygon class="cls-4" points="79.48 278.85 104.29 278.08 110.88 329.94 86.62 329.8 79.48 278.85"/><path d="M119.33,313.4a4.75,4.75,0,0,0,3.77,1.65.27.27,0,0,1,.28.24l5.7,50.49a.27.27,0,0,1-.37.29l-4.55-1.64a.26.26,0,0,1-.18-.23l-5.13-50.59A.27.27,0,0,1,119.33,313.4Z" transform="translate(-41.95 -36.15)"/><path class="cls-19" d="M132.2,312c-3.28,0-8,2-11,3.2" transform="translate(-41.95 -36.15)"/><path class="cls-3" d="M118.9,345.41a22.15,22.15,0,0,0-8.56,3.64c-2.6,1.84-4.18,4.36-6.36,6.56-2.4,2.42-5.4,4.25-7.61,6.9-2.49,3-4.19,7.15-6.06,10.55L63.78,421a1.53,1.53,0,0,0,.77,2.16c3.78,1.53,12.87,5.58,14.39,5.95,5.09,1.23,9.91,2.24,14.6,4.3a5.08,5.08,0,0,0,5.87-1.28,32.83,32.83,0,0,0,5.55-8.44,57,57,0,0,1,7.34-12.38,124,124,0,0,0,11.2-17.41c2.38-4.27,4.53,5,5.6,6.75,3,4.94,7.23,9.5,11,13.85C156,432.81,186,455.45,211.94,446.43a31.67,31.67,0,0,0,14.15-10.09c4-5,5.69-11.58,6.56-17.88-7.69-2.06-16-4.36-22.62-8.93-3.42-2.36-6.77-4.81-10.16-7.22-1.71-1.2-3.42-2.4-5.15-3.57-.5-.34-4.79-2.72-4.75-3.09a2.28,2.28,0,0,1-2.42,2c-1.75-.19-1.63-1.91-2.45-3a55,55,0,0,0-4.92-5.1c-12.65-12.66-25.16-25.22-39.41-36.31-3.73-2.91-7.58-5.83-12.09-7.26A19.89,19.89,0,0,0,118.9,345.41Z" transform="translate(-41.95 -36.15)"/><path class="cls-19" d="M135.85,397.14c-.14,0,.07-.25.1-.11,2.59,10.35,10.43,18.54,18.62,25.4" transform="translate(-41.95 -36.15)"/><path class="cls-8" d="M200.84,298.34a18.88,18.88,0,0,0-14.79-6.63,15.42,15.42,0,0,0-12.07,5.8c-2.56,3.39-2.18,8.2-.75,12.2,1.52,4.28,4.05,8.11,6.6,11.87a9.84,9.84,0,0,0,3.49,3.61,8,8,0,0,0,4.32.53,21.29,21.29,0,0,0,4.12-.8c2.68-.79,3.53-.2,4.83,2a28.46,28.46,0,0,1,2.18,4.21c1,2.71,2.7,5.2-.27,7.54a79,79,0,0,0,20.95-8.37c-2.25-.58-3.64-2.79-4.7-4.86C210.51,317.26,207.39,305.59,200.84,298.34Z" transform="translate(-41.95 -36.15)"/><path class="cls-23" d="M214.5,322a22.19,22.19,0,0,1,10.33,3.06,35.44,35.44,0,0,1,4.58,3,53.4,53.4,0,0,1,10.91,11.84c1.57,2.25,3,4.57,4.45,6.93.71,1.17,1.4,2.36,2.08,3.55l1,1.77c.13.25.28.48.41.72a1.62,1.62,0,0,1,.17.41,3.39,3.39,0,0,0,0,.35c-.29-.33-.59-.65-.91-1a6.25,6.25,0,0,0-.85-.69,3.2,3.2,0,0,0-1.38-.53,16.81,16.81,0,0,0-5.25,0,31.87,31.87,0,0,0-3.56,1.11c-1.1.35-2.24.54-3.33.87-.93.28-1.87.67-2.79,1a59.36,59.36,0,0,0-6.16,2.72c-7.49,3.81-14.64,8.68-22.86,10.43A90.9,90.9,0,0,1,194,343.45c-.83-5.2-.39-9.58,3.44-13.26C202.07,325.78,207.92,321.94,214.5,322Z" transform="translate(-41.95 -36.15)"/><path class="cls-19" d="M104.85,355.67q-2.13,8.86-4.25,17.72" transform="translate(-41.95 -36.15)"/><path d="M196.36,409.6a7.46,7.46,0,0,0-.59-2.33,23.24,23.24,0,0,0-2.42-3.36,18.92,18.92,0,0,1-3-6.56c-.41-1.5-.57-1.44-2-2.23s-2.63-1.49-4-2.2a37.88,37.88,0,0,0,1.56,6.47c.84,2.26,2.15,3.34,3.82,5a15.49,15.49,0,0,1,2,2.23c.93,1.38,1.48,3.14,2.89,4S196.44,410.71,196.36,409.6Z" transform="translate(-41.95 -36.15)"/><path class="cls-19" d="M210.33,365.37c-3.7-7.11-1.57-11.41-5.42-18.4" transform="translate(-41.95 -36.15)"/><path d="M209.38,310.53A54.69,54.69,0,0,0,206.55,299a8,8,0,0,0-1.65-3,3,3,0,0,0-3.16-.8,19,19,0,0,1-.3-3.62,3.91,3.91,0,0,0-1.55-3.14,2.39,2.39,0,0,0-3.61,2.16c0-1.85-.42-3.7-2.41-4-1.75-.29-3.73.32-4.36,2.17-1-1.38-2.89-1.88-4.61-2.08a12.78,12.78,0,0,0-8.06,1.33A5.21,5.21,0,0,0,175,289.7c-.71,1.2-.22,3-1.36,3.83s-2.68.87-3.68,2.4a5.41,5.41,0,0,0-.09,5.66,4.8,4.8,0,0,0,.85,6.62c1.85,1.35,4.4,1.14,6.6.55,3.89-1,7.87-1.68,11.61-3.18,1.27,1.11,2.75,1.37,4.23,2.06,3,1.4,4.47,5,7.91,6.35a10.82,10.82,0,0,0,2.43.67c1.84.28,5.25.32,5.87-2A5.41,5.41,0,0,0,209.38,310.53Z" transform="translate(-41.95 -36.15)"/><g class="cls-28"><path d="M197.64,325.59c0,.21-.08.42-.13.63a4.18,4.18,0,0,1-1,1.78,1.7,1.7,0,0,1-1,.59,1.36,1.36,0,0,1-1-.42,2.31,2.31,0,0,1,.06-3,23.74,23.74,0,0,1,1.83-2.4,5.87,5.87,0,0,0,1.3-1.73c0-.11.09-.23.21-.25a.29.29,0,0,1,.21.08,2.4,2.4,0,0,1,.37,2.84c-.16.26-.37.49-.51.76A3.62,3.62,0,0,0,197.64,325.59Z" transform="translate(-41.95 -36.15)"/></g><path class="cls-8" d="M193.78,305.64a4.4,4.4,0,0,1,4.51,2.86,3.92,3.92,0,0,1-7,3.49C189.8,309.75,190.86,305.93,193.78,305.64Z" transform="translate(-41.95 -36.15)"/><path class="cls-19" d="M194.57,307.25c-1.79.2-2.89,3.39-1.59,4.59" transform="translate(-41.95 -36.15)"/><path class="cls-19" d="M216.85,382a3.85,3.85,0,0,1,2.81,1.53,21.31,21.31,0,0,1,1.75,2.81,15.8,15.8,0,0,0,5.35,5.37" transform="translate(-41.95 -36.15)"/><path class="cls-19" d="M236.92,407.54a5.45,5.45,0,0,1-6.16,2.36" transform="translate(-41.95 -36.15)"/><path class="cls-19" d="M87.51,378.05c2.5-7.34,7-11.72,9.83-21,.75-2.47,2.79-4.39,4.7-6.14,4.47-4.1,11.07-6.36,17.14-6.6,2.09-.08,4.68-.49,5.9-.11" transform="translate(-41.95 -36.15)"/><path class="cls-16" d="M172.18,301a4.78,4.78,0,0,0,2.23,1.57,2.82,2.82,0,0,0,2.62-.46,4,4,0,0,0,1.11-2.65,3.44,3.44,0,0,0,4,1.33,2.67,2.67,0,0,0,1.31-3.72" transform="translate(-41.95 -36.15)"/><path class="cls-19" d="M182.68,320.29a5.4,5.4,0,0,0,5.07-2.37" transform="translate(-41.95 -36.15)"/><path class="cls-29" d="M124.53,397.23c0-5.85-.53-13.91-1.07-22.79" transform="translate(-41.95 -36.15)"/><path class="cls-6" d="M128.43,323.73c.85.36,1.71.7,2.58,1l-.64.05a18.24,18.24,0,0,0-2.43.35c-.36.09-.71.2-1.07.3s-.66.12-1,.2c.12,1.33.24,2.66.37,4a5,5,0,0,0,1.44,0l1.41-.19a8.94,8.94,0,0,0-1.27.92c-.43.4-.94.73-1.41,1.09l.12,1.1,3.62-.38c.86-.67,1.64-1.39,2.46-2.12.41-.37.85-.71,1.27-1.08l.09-.09a15.14,15.14,0,0,0,.49,2.86l3.44-.32c0-.62-.07-1.23,0-1.85a8.66,8.66,0,0,0,0-1,10.47,10.47,0,0,0,1,.74,15.13,15.13,0,0,0,2.75,1.32c.28.11.56.24.84.37l2.76-.28c0-.38,0-.76-.05-1.14a34.81,34.81,0,0,0-4.18-2.11l1-.11c1-.12,2.07-.22,3.09-.39,0-1.41-.1-2.82-.17-4.23l-.86,0a17.11,17.11,0,0,0-1.77.16l.57-.44c.64-.46,1.32-.92,2-1.42,0-.48-.08-1-.11-1.46l-3.17.28-1.3,1c-.84.67-1.65,1.37-2.45,2.09l-.05,0c0-.29,0-.58,0-.87q0-.82-.09-1.65l0-.31c-1.24.1-2.48.18-3.72.27a4.75,4.75,0,0,0-.14.54c-.12.61-.22,1.23-.3,1.85l-.09-.06c-.87-.51-1.74-1-2.65-1.43l-1.24-.56c-1.31.13-2.61.3-3.9.52,0,.34,0,.69.07,1C126.55,322.83,127.47,323.32,128.43,323.73Z" transform="translate(-41.95 -36.15)"/><path class="cls-12" d="M129.88,323.36a27.45,27.45,0,0,1,2.74,1.3l1.12.58c-2.45.41-4.89.86-7.35,1.24a1.1,1.1,0,0,0-.41.15c0,.57.11,1.13.16,1.69a1.09,1.09,0,0,0,.79.19c1.93-.3,3.86-.64,5.78-1-.81.6-1.61,1.22-2.4,1.87s-1.53,1.34-2.33,2c-.46.37-1,.71-1.44,1.1a.07.07,0,0,0,0,0l1.88-.2.49-.36c.79-.64,1.54-1.32,2.32-2,1.19-1,2.44-1.87,3.69-2.76a5,5,0,0,1,0,.67,4.78,4.78,0,0,0,0,1.31c.1.82,0,1.63.09,2.45l2.05-.19a1.55,1.55,0,0,0,0-.22c-.15-.82,0-1.68-.09-2.51a4.9,4.9,0,0,1,.06-.93c0-.21,0-.41,0-.62l3.24,2c1,.61,2,1.12,3.07,1.63l1.87-.19v0c-1.47-.76-3-1.42-4.4-2.3l-2.62-1.65c.83-.1,1.66-.18,2.5-.24,1.45-.1,2.87-.49,4.31-.57,0-.7-.05-1.39-.08-2.09-1.42.09-2.8.47-4.22.56-.76,0-1.51.13-2.26.21.69-.56,1.39-1.11,2.13-1.6a29.92,29.92,0,0,0,4.13-3.22c0-.05,0-.11,0-.16l-1.5.13a43.28,43.28,0,0,1-3.62,2.67c-.88.6-1.71,1.28-2.54,2,0-.27,0-.54,0-.81a7.19,7.19,0,0,1,.06-1.31,5.53,5.53,0,0,0-.1-1.46.87.87,0,0,0-.34-.5l-1.45.1a1.15,1.15,0,0,0-.24.95,3.82,3.82,0,0,1,0,1.17,6.57,6.57,0,0,0,0,1.33,8.72,8.72,0,0,1,0,.89c-.59-.32-1.2-.62-1.79-.95-.83-.44-1.68-.85-2.54-1.21-1.14-.48-2.28-1-3.41-1.48-.56.07-1.11.16-1.67.25,0,.05,0,.1,0,.15C127,322.12,128.42,322.77,129.88,323.36Z" transform="translate(-41.95 -36.15)"/><path d="M63.61,115a1.24,1.24,0,0,1,1.6.43c1.35,1.48,1,4.83.68,6.65a5.8,5.8,0,0,1-.72,2.22c-.33.54-.81,1-1.16,1.52a7.75,7.75,0,0,0-1,2.71c-.6,2.74-1.19,5.47-1.78,8.21a2.74,2.74,0,0,1-1.07-2.1,10.39,10.39,0,0,1,.22-2.42,16.92,16.92,0,0,0,0-6,13,13,0,0,1-.43-5.3,10.9,10.9,0,0,1,3-5.43A2.35,2.35,0,0,1,63.61,115Z" transform="translate(-41.95 -36.15)"/><polygon class="cls-10" points="62.56 200.57 66.37 170.24 24.67 170.24 29.07 200.57 62.56 200.57"/><path d="M108.31,206.39c0,2.44-9.33,4.42-20.84,4.42s-20.85-2-20.85-4.42S76,202,87.47,202,108.31,203.94,108.31,206.39Z" transform="translate(-41.95 -36.15)"/><path d="M78.62,148.93C77.7,143.56,75.81,138.4,75,133a41.8,41.8,0,0,1,2.93-23,5.17,5.17,0,0,1,2.24,4,26.09,26.09,0,0,1-.24,4.75c-.55,7.15,2,14.1,3.75,21.06A97,97,0,0,1,86.27,164c0,3.36-.28,6.9-2.13,9.71a7.13,7.13,0,0,0-1,2.14C78.24,168.67,80,157.14,78.62,148.93Z" transform="translate(-41.95 -36.15)"/><path d="M93.29,132.41c1.54-8,1.41-16.62,5.27-23.84.3-.57.72-1.2,1.37-1.28,1-.14,1.64,1.17,1.75,2.23.63,5.61-2.08,11-3.67,16.39-3.05,10.43-2.18,21.54-5.18,32-3.32-2.35-1.62-5.68-1.44-9A119.32,119.32,0,0,1,93.29,132.41Z" transform="translate(-41.95 -36.15)"/><path d="M106.19,140.58q3.21-9.26,6.5-18.48c.34-1,.91-2.12,1.94-2.14a1.85,1.85,0,0,1,1.62,1.24,6.23,6.23,0,0,1,.11,3.48c-2.23,13.49-6.43,26.54-10.83,39.45-.83,2.41-1.41,6.38-3.33,8.24-1.06,1-3.65,1.8-4.74.28-1.64-2.29,2.7-8.64,3.37-10.9,1-3.24,1.08-6.7,1.89-10C103.65,148,104.91,144.26,106.19,140.58Z" transform="translate(-41.95 -36.15)"/><path class="cls-30" d="M84,206.42a4.81,4.81,0,0,0,.06,2.69c.91,1.74,4.44,1,6.49.91,2.27-7.38,3.18-16.52,4.2-22.4a197.52,197.52,0,0,0,2.84-35.35c-.06-5.81-1.5-11.11-3.34-16.6l-4-11.82a3.9,3.9,0,0,0-.69-1.4,2.61,2.61,0,0,0-3.29-.23,6,6,0,0,0-2.07,2.86c-3.64,8.81.19,18.7,1.14,28.18a46.11,46.11,0,0,1-2.13,19.16c-.85,2.54-1.93,5.08-1.9,7.76,0,2.47,1,4.81,1.74,7.16a40.35,40.35,0,0,1,1.75,14.81C84.78,203.12,84.26,204.86,84,206.42Z" transform="translate(-41.95 -36.15)"/><path class="cls-30" d="M93.45,209.85c.86-.06,1.71-.14,2.57-.23,2.39-5.62,4.55-11.33,5.12-17.4.55-5.78-1.63-12.05-.12-17.68.56-2.08,1.71-4,1.88-6.17a19.27,19.27,0,0,0-.82-5.4c-2.06-9.82,2.15-19.72,3.7-29.63.43-2.72.58-5.76-1-8-5.17,7-9.85,16.51-9.88,25.38,0,9.73-3.12,19.21-5,28.75a73.28,73.28,0,0,0-1.63,16.77c.19,5,1.81,9,3,13.71Z" transform="translate(-41.95 -36.15)"/><path class="cls-30" d="M65.67,135.88c-.74-1.85-1.38-3.74-2.12-5.59a15.08,15.08,0,0,1-1-2.13c-.07-.36-.05-.72-.12-1.07-.18-1-.94-1.81-1.17-2.79a7.57,7.57,0,0,1-.11-1.34,25.89,25.89,0,0,1-.38-3.78c0-.08-.05-.47,0-.48a8.75,8.75,0,0,0-1,3c-.09.87-.07,1.74-.08,2.61a27.06,27.06,0,0,1-.25,5.09,15.67,15.67,0,0,0-.37,6.05,34,34,0,0,0,1.73,7.25c3,7.8,9.53,14.18,10.85,22.42.42,2.6.28,5.25.48,7.87.43,5.58,2,11.49,3.12,16.94.37,1.7,3.25,19.34,3.6,19.38,1,.13,2.75.67,3.67-.08s.69-2.62.65-3.64c-.24-4.94-1.73-9.72-2.17-14.64-.21-2.37.15-4.65.15-7a54.52,54.52,0,0,0-.61-8c-.26-1.82-.81-3.41-.94-5.24-.11-1.38-.62-2.71-.83-4.08-.18-1.17-.14-2.38-.37-3.54a21.08,21.08,0,0,0-1.3-3.64c-.69-1.73-1.2-3.54-1.94-5.26a76.06,76.06,0,0,0-4.56-8.54A73.69,73.69,0,0,1,65.67,135.88Z" transform="translate(-41.95 -36.15)"/><path class="cls-7" d="M90.25,209.87c2.46-6.2,5-12.66,4.6-19.33-.31-5.52-2.6-11-1.68-16.45.46-2.79,1.75-5.38,2.66-8.06,3-8.88,1.06-21.18-.84-30.15" transform="translate(-41.95 -36.15)"/><path class="cls-19" d="M149.49,348l1.35,11.84" transform="translate(-41.95 -36.15)"/><rect class="cls-12" x="381.91" y="176.23" width="4.91" height="54.03" transform="translate(-76.92 52.19) rotate(-12.54)"/><rect class="cls-4" x="386.21" y="167.35" width="4.91" height="54.03" transform="translate(-61.6 9.51) rotate(-6.56)"/><rect class="cls-23" x="368.21" y="201.44" width="54.03" height="4.91" transform="translate(142.11 559.13) rotate(-88.94)"/><line class="cls-31" x1="365.59" y1="123.07" x2="361.76" y2="182.16"/><polygon class="cls-32" points="413.74 110.21 411.28 140.85 361.76 139.49 363.25 109.26 413.74 110.21"/><path class="cls-6" d="M412.25,153c2,1.19,4.12,2.31,6.22,3.4l-1.63-.08a44,44,0,0,0-6.29.11c-.95.09-1.88.28-2.82.4s-1.72.09-2.57.19q-.2,5.14-.34,10.29a12.59,12.59,0,0,0,3.66.41c1.22,0,2.44,0,3.66,0a21.46,21.46,0,0,0-3.53,1.92c-1.24.87-2.62,1.54-3.93,2.31,0,.95-.05,1.9-.07,2.85,3.11.06,6.23.12,9.34.2,2.42-1.43,4.64-3,6.94-4.61,1.17-.81,2.4-1.53,3.58-2.33a2.43,2.43,0,0,0,.25-.2,39.17,39.17,0,0,0,.33,7.44l8.87.28c.26-1.56.2-3.15.5-4.71a23.65,23.65,0,0,0,.32-2.6,26,26,0,0,0,2.25,2.2,38.53,38.53,0,0,0,6.56,4.25c.69.37,1.35.8,2,1.21l7.13.2c.07-1,.14-2,.22-2.93a88,88,0,0,0-9.95-6.71l2.51,0c2.66,0,5.34.13,8,0q.48-5.4.92-10.8c-.73-.06-1.45-.1-2.19-.18a43.75,43.75,0,0,0-4.57-.18l1.61-.92c1.76-1,3.65-1.91,5.45-3,.09-1.25.13-2.5.19-3.75l-8.14-.33c-1.23.73-2.45,1.47-3.64,2.2-2.36,1.43-4.64,3-6.92,4.52l-.13.09c.12-.74.21-1.48.29-2.2.15-1.4.27-2.82.32-4.23,0-.26,0-.53,0-.79-3.17-.15-6.35-.34-9.54-.53a12.76,12.76,0,0,0-.54,1.33c-.49,1.53-.94,3.07-1.36,4.61l-.22-.17c-2-1.57-4.1-3.09-6.26-4.49-1-.63-2-1.24-3-1.83-3.38-.1-6.75-.09-10.11,0,0,.89-.1,1.78-.14,2.67C407.76,150.06,409.93,151.61,412.25,153Z" transform="translate(-41.95 -36.15)"/><path class="cls-12" d="M416.05,152.5a71.32,71.32,0,0,1,6.56,4.18c.88.63,1.78,1.23,2.66,1.84-6.37.25-12.74.62-19.12.78a2.48,2.48,0,0,0-1.07.26l-.15,4.35a2.76,2.76,0,0,0,2,.72c5-.13,10-.36,15-.58-2.26,1.26-4.5,2.56-6.71,4s-4.33,2.9-6.55,4.25c-1.31.8-2.74,1.49-4,2.34v.13l4.84.09c.48-.25.95-.5,1.37-.76,2.21-1.38,4.36-2.86,6.56-4.27,3.34-2.14,6.8-4,10.27-5.82a12.23,12.23,0,0,1-.3,1.71A12,12,0,0,0,427,169c0,2.11-.6,4.13-.55,6.27l5.26.16a3.31,3.31,0,0,0,.05-.55c-.12-2.13.54-4.28.57-6.41a12,12,0,0,1,.48-2.35c.1-.52.15-1.05.22-1.57q3.78,3.12,7.58,6.23a87.63,87.63,0,0,0,7.28,5.14l4.82.13a.38.38,0,0,0,0-.1c-3.49-2.42-7.14-4.6-10.46-7.29-2.06-1.67-4.09-3.36-6.13-5,2.14,0,4.29.07,6.45.2,3.71.22,7.46-.33,11.15-.06.16-1.78.31-3.56.46-5.34-3.63-.23-7.27.29-10.9.07-2-.12-3.9-.17-5.84-.19a67.25,67.25,0,0,1,6-3.39,77,77,0,0,0,11.53-6.85c0-.15,0-.29,0-.43l-3.88-.16A108.22,108.22,0,0,1,441,153.13c-2.46,1.25-4.78,2.72-7.11,4.17.07-.68.16-1.37.17-2.06a18,18,0,0,1,.57-3.33,14.13,14.13,0,0,0,.21-3.73,2.31,2.31,0,0,0-.69-1.39l-3.73-.21a2.91,2.91,0,0,0-.91,2.33,10,10,0,0,1-.36,3,16.13,16.13,0,0,0-.42,3.39c0,.76-.13,1.53-.22,2.29-1.41-1-2.84-2-4.26-3-1.95-1.4-4-2.71-6.06-3.91q-4.12-2.4-8.2-4.87c-1.44,0-2.88.05-4.31.11l0,.38C409.09,148.41,412.53,150.51,416.05,152.5Z" transform="translate(-41.95 -36.15)"/><path class="cls-15" d="M455.78,147.71c.2,3.38-.6,6.77-1,10.11" transform="translate(-41.95 -36.15)"/><path class="cls-15" d="M424.91,145.64c7.09.05,14.17.15,21.26.37" transform="translate(-41.95 -36.15)"/><path class="cls-15" d="M404.13,160.45c.79-4.54.67-13.54,1.07-15" transform="translate(-41.95 -36.15)"/><path class="cls-15" d="M448,176.73c-4.6.22-39.83.05-44.32-1.1l.27-6.29" transform="translate(-41.95 -36.15)"/><path class="cls-15" d="M454.21,164.7c-.28,3.53-.56,7.05-.85,10.58" transform="translate(-41.95 -36.15)"/><polygon points="365.02 200.31 339.75 200.31 337.58 169.23 367.19 169.23 365.02 200.31"/><path class="cls-11" d="M302.86,36.19q11.36-.16,22.71.35c9.64.43,20.15,1.63,27,8.47,12.73,12.78,9.47,34.31-4.46,41S312.77,91.84,297.62,92c-14.21.12-32.49,2-45.1-6-14.39-9.13-11.14-34.31,2.57-43,6-3.8,13.3-4.71,20.36-5.33Q289.12,36.39,302.86,36.19Z" transform="translate(-41.95 -36.15)"/><path class="cls-11" d="M254.21,116.74c14.22-4.38,27.94-11.83,29.27-31.46C284.6,68.63,264.92,57.92,270.6,77,276.38,96.37,267.68,107.05,254.21,116.74Z" transform="translate(-41.95 -36.15)"/><polyline class="cls-15" points="225.04 17.19 216.93 17.53 216.95 42.53 224.05 42.23"/><path class="cls-15" d="M272.22,61.86c-2.67,1.39-2.72,5.64-.53,7.7s5.7,2.15,8.49,1,5-3.29,7.18-5.39c.92-.89,1.92-2.16,1.37-3.32s-2.26-1.18-3.3-.46c-2.1,1.45-2.08,4.87-.33,6.73a7.31,7.31,0,0,0,7.11,1.61,18.27,18.27,0,0,0,6.57-3.8A5.94,5.94,0,0,0,301,63.18c.34-1.16-.29-2.67-1.49-2.81a2.22,2.22,0,0,0-1.74.73c-2,2-.6,5.8,2,7s5.63.39,8.19-.83a25.43,25.43,0,0,0,13.54-16.67,3.84,3.84,0,0,0,.05-2.2c-.51-1.33-2.37-1.72-3.66-1.1a6.75,6.75,0,0,0-2.8,3.16,31.35,31.35,0,0,0-3.56,12.76c-.14,2.34.3,5.17,2.44,6.13a5.59,5.59,0,0,0,3,.22,21.48,21.48,0,0,0,12.31-6.2c1.53-1.57,2.71-4.41.93-5.7-1.42-1-3.5.09-4.4,1.6a8.36,8.36,0,0,0,.17,8.07,17.37,17.37,0,0,0,5.89,5.92" transform="translate(-41.95 -36.15)"/><path class="cls-15" d="M340.23,52a12.73,12.73,0,0,0,7.57.4c0,7.24-.72,14.58-.76,21.82-2.52-.6-5.86.12-8.38-.48" transform="translate(-41.95 -36.15)"/></g></svg>